<?xml version="1.0" standalone="no"?>
<!DOCTYPE svg PUBLIC "-//W3C//DTD SVG 1.1//EN" "http://www.w3.org/Graphics/SVG/1.1/DTD/svg11.dtd" >
<svg xmlns="http://www.w3.org/2000/svg">
<metadata></metadata>
<defs>
<font id="jigsawmedium" horiz-adv-x="1169" >
<font-face units-per-em="2048" ascent="1638" descent="-410" />
<missing-glyph horiz-adv-x="434" />
<glyph horiz-adv-x="2048" />
<glyph horiz-adv-x="2048" />
<glyph unicode="&#xd;" horiz-adv-x="2048" />
<glyph unicode=" "  horiz-adv-x="434" />
<glyph unicode="&#x09;" horiz-adv-x="434" />
<glyph unicode="&#xa0;" horiz-adv-x="434" />
<glyph unicode="!" horiz-adv-x="665" d="M197 123q0 57 40 96t97 39q56 0 95.5 -39t39.5 -96q0 -55 -39.5 -95t-95.5 -40q-57 0 -97 39.5t-40 95.5zM227 395v1014h209v-1014h-209z" />
<glyph unicode="&#x22;" horiz-adv-x="710" d="M94 1477h201l-31 -396h-147zM416 1477h198l-30 -396h-146z" />
<glyph unicode="#" horiz-adv-x="1400" d="M135 373v178h193l45 319h-185v179h211l52 360h202l-53 -360h295l51 360h205l-53 -360h168v-179h-193l-47 -319h191v-178h-218l-53 -373h-205l54 373h-291l-55 -373h-203l55 373h-166zM530 551h293l45 319h-295z" />
<glyph unicode="$" horiz-adv-x="1062" d="M88 150l131 145q115 -100 264 -111v461q-38 16 -60 26t-56 27.5t-54.5 31t-48 35t-44 41.5t-35 48.5t-28 58.5t-16 68.5t-6.5 81.5q0 135 102 232t246 120v125h142v-121q89 -5 165 -28.5t166 -77.5l-106 -168q-68 39 -118.5 56t-106.5 20v-414q67 -28 113 -52t94.5 -60 t77 -77t47 -99.5t18.5 -129.5q0 -148 -100 -253.5t-250 -135.5v-137h-142v125q-113 5 -209.5 41t-185.5 121zM354 1053q0 -64 33 -105t96 -76v336q-53 -17 -91 -56.5t-38 -98.5zM625 209q56 23 89.5 67.5t33.5 104.5q0 69 -31.5 113.5t-91.5 80.5v-366z" />
<glyph unicode="%" horiz-adv-x="1656" d="M61 1061q0 164 99 262t250 98q148 0 240.5 -97.5t92.5 -264.5q0 -165 -101 -264t-247 -99q-148 0 -241 98t-93 267zM264 1061q0 -94 38.5 -144.5t96.5 -50.5q59 0 100.5 50.5t41.5 144.5q0 97 -41 144.5t-97 47.5q-57 0 -98 -49t-41 -143zM406 0l688 1483l151 -72 l-686 -1483zM909 350q0 164 98.5 262.5t249.5 98.5q148 0 241 -98t93 -265q0 -165 -101 -262.5t-249 -97.5q-146 0 -239 97t-93 265zM1112 350q0 -92 39 -143t96 -51q59 0 100.5 50.5t41.5 143.5q0 97 -41 145t-97 48q-57 0 -98 -48.5t-41 -144.5z" />
<glyph unicode="&#x26;" horiz-adv-x="1386" d="M94 403q0 204 203 340q-79 49 -127.5 131.5t-48.5 194.5q0 162 116.5 257t294.5 95q108 0 185.5 -24t159.5 -78l-99 -158q-54 33 -104 48.5t-123 15.5q-84 0 -143.5 -44.5t-59.5 -123.5q0 -48 16.5 -85.5t42.5 -60t61.5 -37t68 -19.5t67.5 -5h729v-191h-215v-659h-225v90 q-29 -21 -49 -33t-62.5 -31.5t-99 -29.5t-125.5 -10q-203 0 -333 109t-130 308zM324 416q0 -73 38.5 -127t95.5 -79.5t122 -25.5q26 0 51.5 2.5t48.5 8.5t42 11.5t40 16t34 16t31.5 18t25 16.5t23 16t17.5 12v358h-393q-38 -19 -64.5 -37t-54.5 -46.5t-42.5 -69t-14.5 -90.5 z" />
<glyph unicode="'" horiz-adv-x="450" d="M125 1477h201l-31 -396h-148z" />
<glyph unicode="(" horiz-adv-x="770" d="M170 633q0 255 110.5 492.5t264.5 361.5l137 -133q-125 -108 -214 -312.5t-89 -408.5q0 -106 35.5 -241t107 -268t160.5 -204l-139 -141q-164 148 -268.5 381.5t-104.5 472.5z" />
<glyph unicode=")" horiz-adv-x="770" d="M88 -80q89 71 160.5 204t107 268t35.5 241q0 204 -89 408.5t-214 312.5l139 133q153 -124 263 -361.5t110 -492.5q0 -239 -104.5 -472.5t-268.5 -381.5z" />
<glyph unicode="*" horiz-adv-x="856" d="M94 952v201l209 -29l-129 166l174 101l80 -197l80 197l172 -99l-131 -170l213 31v-201l-211 31l129 -170l-172 -98l-82 196l-78 -196l-174 98l131 170z" />
<glyph unicode="+" horiz-adv-x="1030" d="M39 600v184h371v373h211v-373h368v-184h-368v-373h-211v373h-371z" />
<glyph unicode="," horiz-adv-x="534" d="M76 -182l137 397h248l-221 -397h-164z" />
<glyph unicode="-" horiz-adv-x="610" d="M33 430v197h542v-197h-542z" />
<glyph unicode="." horiz-adv-x="534" d="M131 127q0 57 40 96t97 39t97.5 -39t40.5 -96q0 -58 -40.5 -98.5t-97.5 -40.5t-97 40.5t-40 98.5z" />
<glyph unicode="/" horiz-adv-x="694" d="M-14 23l540 1437l183 -65l-541 -1440z" />
<glyph unicode="0" d="M74 705q0 328 139.5 522t378.5 194q231 0 367.5 -193t136.5 -526q0 -330 -138.5 -522t-367.5 -192q-126 0 -226 56.5t-162.5 155t-95 227t-32.5 278.5zM301 705q0 -68 8 -136t29 -139t52 -125t82 -88.5t114 -34.5q134 0 209 143t75 380q0 155 -31.5 271t-95.5 182.5 t-153 66.5q-65 0 -116.5 -32.5t-83.5 -84.5t-52.5 -122.5t-28.5 -139t-8 -141.5z" />
<glyph unicode="1" d="M94 1090l473 319h199v-1409h-223v1159l-336 -225z" />
<glyph unicode="2" d="M86 172q92 67 200.5 161t233 226.5t201.5 249.5q61 94 61 209q0 85 -65 146t-166 61q-82 0 -162.5 -40.5t-132.5 -92.5l-127 147q193 182 432 182q204 0 328 -108.5t125 -296.5q0 -138 -96 -299q-23 -37 -53.5 -76.5t-56.5 -71t-68.5 -73.5t-66 -65t-73 -67t-65.5 -58 t-68.5 -58t-58.5 -49h593v-199h-851z" />
<glyph unicode="3" d="M131 102l90 170q153 -90 295 -90q109 0 180.5 62.5t71.5 175.5q0 233 -307 233h-86v183h86q67 0 127 22t103.5 73.5t43.5 123.5q0 74 -59.5 122t-140.5 48q-79 0 -136.5 -14t-119.5 -46l-78 154q176 102 342 102q117 0 210.5 -39.5t150.5 -120.5t57 -192 q0 -218 -195 -311q238 -87 238 -346q0 -126 -66 -224t-176.5 -150t-245.5 -52q-217 0 -385 116z" />
<glyph unicode="4" d="M74 522l567 887h254v-846h164v-196h-164v-367h-221v367h-524zM322 563h352v574z" />
<glyph unicode="5" d="M127 96l98 180q159 -96 299 -96q124 0 196.5 66t72.5 194q0 126 -73.5 183t-193.5 57q-83 0 -239 -25l-82 105l92 649h680v-199h-506l-45 -344q135 11 137 11q140 0 243.5 -43.5t165.5 -142t62 -245.5q0 -207 -145.5 -333.5t-374.5 -126.5q-228 0 -387 110z" />
<glyph unicode="6" d="M135 506q0 160 53 306.5t146.5 261.5t215 203.5t265.5 147.5l103 -165q-169 -76 -288 -175t-196 -247q101 24 187 24q193 0 312.5 -108.5t119.5 -313.5q0 -201 -126.5 -326.5t-324.5 -125.5q-227 0 -347 133t-120 385zM358 489q0 -138 60.5 -226.5t181.5 -88.5 q108 0 166.5 69.5t58.5 186.5q0 103 -63 173.5t-162 70.5q-87 0 -223 -31q-19 -74 -19 -154z" />
<glyph unicode="7" d="M147 1202v201h830l86 -137l-627 -1280l-209 63l570 1153h-650z" />
<glyph unicode="8" d="M129 381q0 136 67.5 220.5t184.5 137.5q-217 102 -217 303q0 65 25 129.5t74 121.5t133.5 92.5t191.5 35.5q101 0 183 -31.5t132.5 -83.5t77.5 -116.5t27 -134.5q0 -213 -209 -318q241 -112 241 -346q0 -179 -129 -291t-327 -112q-122 0 -225 46t-166.5 137t-63.5 210z M348 393q0 -83 69.5 -151t168.5 -68q102 0 168.5 57t66.5 150q0 51 -19 92t-57 72t-76 52.5t-94 45.5q-227 -88 -227 -250zM387 1049q0 -82 57 -135.5t160 -92.5q88 36 134 87t46 128q0 50 -18 88.5t-47.5 60t-62.5 32t-68 10.5q-81 0 -141 -46t-60 -132z" />
<glyph unicode="9" d="M135 969q0 201 125.5 326.5t323.5 125.5q227 0 347 -133.5t120 -384.5q0 -161 -53 -307.5t-146.5 -262t-215 -204t-265.5 -147.5l-103 165q170 77 288.5 176t195.5 248q-101 -24 -185 -24q-194 0 -313 108.5t-119 313.5zM360 979q0 -103 64 -173.5t164 -70.5q92 0 223 29 q16 63 16 156q0 89 -24 158t-79.5 113t-137.5 44q-107 0 -166.5 -70.5t-59.5 -185.5z" />
<glyph unicode=":" horiz-adv-x="534" d="M129 133q0 57 40.5 97t98.5 40q57 0 97.5 -40t40.5 -97q0 -58 -40.5 -98.5t-97.5 -40.5q-58 0 -98.5 40t-40.5 99zM129 815q0 59 40.5 99t98.5 40q57 0 97.5 -40.5t40.5 -98.5q0 -57 -40.5 -98t-97.5 -41q-58 0 -98.5 41t-40.5 98z" />
<glyph unicode=";" horiz-adv-x="534" d="M31 -182l139 397h246l-219 -397h-166zM147 815q0 59 41 100t99 41q57 0 98 -41.5t41 -99.5q0 -57 -41 -98t-98 -41q-58 0 -99 41t-41 98z" />
<glyph unicode="&#x3c;" horiz-adv-x="1034" d="M135 690l627 522l131 -147l-457 -373l461 -362l-135 -150z" />
<glyph unicode="=" horiz-adv-x="1204" d="M143 412v184h918v-184h-918zM143 784v185h918v-185h-918z" />
<glyph unicode="&#x3e;" horiz-adv-x="1034" d="M135 330l463 362l-457 373l131 147l625 -520l-627 -510z" />
<glyph unicode="?" horiz-adv-x="864" d="M190 121q0 57 40 97t96 40t95.5 -40t39.5 -97q0 -55 -39.5 -94t-95.5 -39t-96 39t-40 94zM221 395v353q61 0 114 13.5t97.5 40.5t70 74.5t25.5 110.5q0 82 -46 137.5t-112.5 78t-148.5 22.5v196q84 0 160.5 -15t145.5 -48.5t119.5 -83.5t80 -124t29.5 -165 q0 -136 -95 -251.5t-227 -135.5v-203h-213z" />
<glyph unicode="@" horiz-adv-x="1644" d="M115 500q0 165 57.5 303.5t156.5 231t230.5 143.5t278.5 51q197 0 353 -76.5t248.5 -229t92.5 -358.5q0 -133 -29 -232.5t-80.5 -157.5t-116 -86t-141.5 -28q-61 0 -123.5 23t-93.5 68q-57 -43 -108.5 -68t-114.5 -25q-108 0 -174 59t-66 161q0 61 24 107.5t71 78 t102.5 52t130.5 36.5l115 22v60q0 60 -29.5 84t-89.5 24q-51 0 -113 -25t-104 -54l-72 116q155 113 299 113q125 0 198 -57.5t73 -182.5v-424q38 -30 90 -30q93 0 147.5 101t54.5 265q0 236 -150 382.5t-388 146.5q-253 0 -415.5 -164.5t-162.5 -421.5q0 -126 33 -234 t98.5 -193.5t173.5 -134t248 -48.5q94 0 207 41l53 -125q-131 -58 -258 -58q-155 0 -283 46.5t-223 136.5t-147.5 233.5t-52.5 327.5zM649 295q0 -44 27 -66t69 -22q70 0 181 72v172l-95 -23q-182 -39 -182 -133z" />
<glyph unicode="A" horiz-adv-x="1359" d="M16 29l566 1380h213l548 -1384l-223 -37l-164 420h-561l-164 -422zM471 598h412l-203 545z" />
<glyph unicode="B" horiz-adv-x="1148" d="M160 0v1409h422q64 0 122 -9.5t117 -35t102 -65t70 -104.5t27 -148q0 -192 -176 -304q86 -28 152.5 -117t66.5 -216q0 -88 -28 -158.5t-75.5 -117t-113 -77.5t-136.5 -44t-149 -13h-401zM381 197h160q49 1 88.5 6.5t79 20.5t66 39.5t43 66t16.5 96.5q0 99 -80 154 t-197 55h-176v-438zM381 825h174q117 0 178.5 56.5t61.5 162.5q0 87 -65 127.5t-163 40.5h-186v-387z" />
<glyph unicode="C" horiz-adv-x="1173" d="M84 707q0 158 55.5 292.5t150.5 226.5t224 143.5t274 51.5q217 0 351 -88l-99 -168q-94 58 -268 58q-91 0 -175 -37.5t-148 -103.5t-102 -164t-38 -211q0 -147 59.5 -266t169 -188t248.5 -69q169 0 281 56l88 -164q-140 -88 -369 -88q-204 0 -362.5 86t-249 250 t-90.5 383z" />
<glyph unicode="D" horiz-adv-x="1460" d="M160 0v1409h516q171 0 305.5 -52t220 -144.5t130 -217t44.5 -272.5q0 -156 -54 -290.5t-148.5 -229.5t-227 -149t-284.5 -54h-502zM381 197h242q81 0 156.5 19t143.5 61t118.5 103.5t80 152.5t29.5 202q0 85 -17.5 155t-47 119t-72.5 86t-88.5 58.5t-101 35.5t-104 18.5 t-102.5 4.5h-237v-1015z" />
<glyph unicode="E" horiz-adv-x="1073" d="M160 0v1409h827v-197h-606v-395h561v-192h-561v-428h606v-197h-827z" />
<glyph unicode="F" horiz-adv-x="1024" d="M160 0v1409h815v-197h-594v-395h549v-194h-549v-623h-221z" />
<glyph unicode="G" horiz-adv-x="1378" d="M84 694q0 157 55.5 292.5t152 230t231 148.5t288.5 54q254 0 410 -98l-97 -164q-54 29 -140 48.5t-165 19.5q-231 0 -370.5 -148.5t-139.5 -382.5q0 -105 32.5 -197.5t92 -162t149 -110t197.5 -40.5q98 0 158.5 14.5t114.5 47.5v332h-322v180h537v-598 q-183 -172 -494 -172q-200 0 -358.5 93t-245 254t-86.5 359z" />
<glyph unicode="H" horiz-adv-x="1443" d="M160 0v1409h223v-588h680v588h223v-1409h-223v627h-680v-627h-223z" />
<glyph unicode="I" horiz-adv-x="540" d="M160 0v1409h221v-1409h-221z" />
<glyph unicode="J" horiz-adv-x="540" d="M-190 -240h8q344 0 344 344v1305h221v-1311q0 -137 -41 -239.5t-117 -166t-180 -95t-235 -31.5v194z" />
<glyph unicode="K" horiz-adv-x="1273" d="M164 0v1409h223v-1409h-223zM391 745l594 678l213 -82l-534 -587l577 -676l-221 -92z" />
<glyph unicode="L" horiz-adv-x="1019" d="M164 0v1409h221v-1212h623v-197h-844z" />
<glyph unicode="M" horiz-adv-x="1796" d="M115 8l116 1401h275l391 -1049l418 1049h260l106 -1401l-221 -20l-67 1104l-392 -969h-231l-364 977l-74 -1112z" />
<glyph unicode="N" horiz-adv-x="1548" d="M160 0v1409h243l762 -1042v1042h224v-1409h-232l-774 1049v-1049h-223z" />
<glyph unicode="O" horiz-adv-x="1581" d="M84 705q0 148 49.5 278t139.5 227t225 153t297 56q157 0 290.5 -57.5t222.5 -155t139 -227t50 -272.5q0 -211 -86.5 -374t-247 -254t-370.5 -91q-208 0 -369.5 89.5t-250.5 253t-89 374.5zM309 705q0 -80 19.5 -155.5t59.5 -142t96 -116t133 -78.5t167 -29 q150 0 262.5 71t169 188t56.5 262q0 108 -31.5 202t-90.5 165t-151 112t-206 41t-206.5 -41t-152.5 -112t-92.5 -165t-32.5 -202z" />
<glyph unicode="P" horiz-adv-x="1099" d="M160 0v1409h389q92 0 175.5 -22.5t155.5 -68t115 -126t43 -186.5q0 -146 -69 -252t-185 -158.5t-264 -52.5h-139v-543h-221zM381 731h121q145 0 227 73.5t82 196.5q0 60 -23.5 103t-65.5 65.5t-89.5 32.5t-104.5 10h-147v-481z" />
<glyph unicode="Q" horiz-adv-x="1593" d="M84 705q0 148 49.5 278.5t139 227.5t224.5 153.5t298 56.5q126 0 237 -37.5t195 -104t145.5 -155.5t93 -196t31.5 -221q0 -162 -53.5 -299t-159.5 -230h285v-192l-580 18q-83 -16 -194 -16q-156 0 -288.5 53.5t-225.5 147.5t-145 227t-52 289zM307 705 q0 -138 55.5 -255.5t167 -191.5t258.5 -74q149 0 260.5 70t168.5 187.5t57 263.5q0 108 -31.5 201.5t-90.5 165t-151 112.5t-206 41q-149 0 -261 -69t-169.5 -186.5t-57.5 -264.5z" />
<glyph unicode="R" horiz-adv-x="1153" d="M160 0v1409h387q69 0 133 -10t130 -37t114.5 -69t79 -113t30.5 -162q0 -287 -280 -408l376 -577l-233 -53l-365 591h-151v-571h-221zM381 766h117q147 0 228 63.5t81 176.5q0 52 -18.5 91t-46.5 60.5t-69 34.5t-77 16.5t-80 3.5h-135v-446z" />
<glyph unicode="S" horiz-adv-x="1007" d="M66 143l133 156q63 -56 137 -85.5t145 -29.5q95 0 164.5 53t69.5 144q0 33 -8 61.5t-18.5 49t-33.5 41.5t-39 33.5t-50.5 30t-52 25t-58.5 25.5q-47 20 -75 33.5t-68.5 36t-65 43.5t-52.5 53t-43 66.5t-25.5 81.5t-10.5 102q0 103 61.5 187t155.5 127.5t198 43.5 q113 0 201 -23t191 -85l-105 -168q-83 50 -143 65t-148 15q-69 0 -131.5 -46t-62.5 -126q0 -37 13.5 -68.5t31.5 -52t54.5 -43t62 -34.5t74.5 -33q6 -3 10 -4.5t9.5 -4t10.5 -4.5q53 -24 86.5 -41t78.5 -45t72.5 -58t53.5 -70t38.5 -92t12.5 -114q0 -116 -64.5 -209.5 t-166.5 -142.5t-217 -49q-128 0 -230 32.5t-196 122.5z" />
<glyph unicode="T" horiz-adv-x="1044" d="M-4 1212v197h1053v-197h-410v-1212h-223v1212h-420z" />
<glyph unicode="U" horiz-adv-x="1382" d="M129 465v944h223v-926q0 -142 99 -220.5t251 -78.5q154 0 241 77t87 237v911h223v-942q0 -116 -46 -209t-124 -151t-177 -88.5t-210 -30.5q-157 0 -283.5 52t-205 162t-78.5 263z" />
<glyph unicode="V" horiz-adv-x="1355" d="M16 1370l226 49l434 -1153l446 1155l217 -51l-557 -1370h-237z" />
<glyph unicode="W" horiz-adv-x="1894" d="M16 1384l236 37l297 -1138l285 1128h241l301 -1132l285 1142l217 -35l-391 -1386h-234l-303 1112l-293 -1112h-239z" />
<glyph unicode="X" horiz-adv-x="1269" d="M16 41l486 672l-473 653l243 55l369 -532l371 532l221 -55l-465 -647l485 -676l-237 -57l-387 557l-387 -555z" />
<glyph unicode="Y" horiz-adv-x="1206" d="M16 1358l226 63l372 -587l377 587l215 -65l-487 -725v-631h-223v631z" />
<glyph unicode="Z" d="M47 156l762 1050h-711v199h932l80 -156l-766 -1052h733v-197h-954z" />
<glyph unicode="[" horiz-adv-x="622" d="M135 -209v1657h455v-186h-248v-1285h248v-186h-455z" />
<glyph unicode="\" horiz-adv-x="694" d="M-16 1395l184 65l541 -1437l-185 -68z" />
<glyph unicode="]" horiz-adv-x="622" d="M33 -23h248v1285h-248v186h454v-1657h-454v186z" />
<glyph unicode="^" horiz-adv-x="1247" d="M78 539l444 847h221l424 -847h-225l-319 653l-322 -653h-223z" />
<glyph unicode="_" horiz-adv-x="1024" d="M0 -147h1024v-203h-1024v203z" />
<glyph unicode="`" horiz-adv-x="616" d="M82 1290l127 150l326 -285l-103 -115z" />
<glyph unicode="a" horiz-adv-x="946" d="M72 244q0 72 30 127t85.5 91t118.5 58t145 37l143 25v67q0 62 -37 96.5t-111 34.5q-96 0 -249 -88l-86 144q182 118 350 118q65 0 122 -14.5t108 -46t80.5 -89t29.5 -136.5v-469l96 -95l-139 -133l-127 117q-143 -100 -283 -100q-119 0 -197.5 67t-78.5 189zM272 258 q0 -53 32 -80.5t77 -27.5q40 0 107 24t106 51v217l-125 -24q-85 -17 -141 -57.5t-56 -102.5z" />
<glyph unicode="b" horiz-adv-x="1091" d="M139 0v1477h205v-621q44 28 73 44t86.5 35t110.5 19q100 0 179 -38.5t128.5 -105t75 -152t25.5 -183.5q0 -92 -27.5 -177.5t-78.5 -155.5t-133 -112t-183 -42q-139 0 -258 106v-94h-203zM344 283q43 -36 70 -55t75 -37.5t99 -18.5q106 0 166.5 87t60.5 212q0 129 -57 214 t-166 85q-128 0 -248 -96v-391z" />
<glyph unicode="c" horiz-adv-x="862" d="M74 459q0 222 130 358.5t333 136.5q160 0 286 -77l-96 -160q-87 55 -180 55q-121 0 -193.5 -85t-72.5 -218q0 -135 76 -216t196 -81q98 0 188 53l95 -153q-132 -84 -297 -84q-212 0 -338.5 131t-126.5 340z" />
<glyph unicode="d" horiz-adv-x="1091" d="M70 463q0 94 26 180.5t75 156.5t128.5 112t177.5 42q132 0 271 -92v615h204v-1477h-204v86q-50 -40 -120.5 -69t-138.5 -29q-100 0 -181 38.5t-132.5 104t-78.5 151t-27 181.5zM274 471q0 -124 63 -211.5t169 -87.5q49 0 98 19t76.5 38.5t67.5 53.5v393q-126 96 -246 96 q-110 0 -169 -86t-59 -215z" />
<glyph unicode="e" horiz-adv-x="940" d="M72 463q0 212 117.5 351.5t322.5 139.5q93 0 165 -33.5t117 -92.5t68 -135.5t23 -166.5v-112h-602q8 -106 76 -177t173 -71q113 0 238 51l70 -158q-142 -71 -314 -71q-218 0 -336 129t-118 346zM285 563h397q0 94 -46 159.5t-136 65.5q-50 0 -90.5 -21t-65 -55.5 t-39 -71.5t-20.5 -77z" />
<glyph unicode="f" horiz-adv-x="688" d="M37 768v174h176v258q0 126 74 207.5t215 81.5q36 0 68.5 -3t54.5 -7t44.5 -11t33 -11t25.5 -11t17 -8l-63 -158q-73 31 -143 31q-48 0 -84.5 -27.5t-36.5 -95.5v-246h227v-174h-227v-768h-205v768h-176z" />
<glyph unicode="g" horiz-adv-x="1009" d="M47 -125q0 62 22.5 117t57 93t79 68t87 46.5t82.5 23.5v53q-124 24 -205.5 115.5t-81.5 216.5q0 153 111 249.5t268 96.5q122 0 199 -51l329 64v-195h-202q51 -79 51 -164q0 -127 -79.5 -216t-207.5 -116v-53q44 -7 88.5 -23.5t90.5 -46t81 -67.5t57.5 -93t22.5 -118 q0 -109 -61 -193t-157 -126.5t-208 -42.5q-86 0 -161.5 23t-134.5 67t-93.5 114t-34.5 158zM252 -125q0 -87 61.5 -140.5t157.5 -53.5q94 0 156.5 54t62.5 140q0 85 -63 140t-156 55q-95 0 -157 -54t-62 -141zM291 608q0 -77 51.5 -127.5t124.5 -50.5q70 0 121 51.5 t51 126.5q0 74 -50.5 125t-123.5 51q-71 0 -122.5 -51t-51.5 -125z" />
<glyph unicode="h" horiz-adv-x="1060" d="M139 0v1477h205v-641q58 52 139 85t156 33q133 0 218 -71t85 -195v-688h-205v635q0 131 -133 131q-113 0 -260 -127v-639h-205z" />
<glyph unicode="i" horiz-adv-x="505" d="M121 1264q0 55 38.5 94t92.5 39q56 0 94.5 -38.5t38.5 -94.5q0 -54 -39 -92.5t-94 -38.5q-54 0 -92.5 38.5t-38.5 92.5zM150 0v942h204v-942h-204z" />
<glyph unicode="j" horiz-adv-x="505" d="M-78 -340q68 38 114 83t71 96.5t35 103.5t10 116v883h204v-901q0 -166 -76.5 -303.5t-236.5 -218.5zM121 1264q0 56 38.5 94.5t94.5 38.5q54 0 92.5 -39t38.5 -94q0 -54 -38.5 -92.5t-92.5 -38.5q-55 0 -94 38.5t-39 92.5z" />
<glyph unicode="k" horiz-adv-x="966" d="M139 0v1477h205v-1477h-205zM346 524l379 434l203 -61l-346 -371l379 -471l-209 -73z" />
<glyph unicode="l" horiz-adv-x="483" d="M139 0v1477h205v-1477h-205z" />
<glyph unicode="m" horiz-adv-x="1554" d="M137 0v942h205v-104q65 57 141 86.5t146 29.5q78 0 137.5 -34.5t89.5 -94.5q24 25 59.5 50.5t106.5 52t147 26.5q128 0 198.5 -77.5t70.5 -192.5v-684h-207v664q0 57 -29.5 81.5t-75.5 24.5q-64 0 -132 -34.5t-103 -71.5v-664h-205v664q0 55 -31.5 80.5t-76.5 25.5 q-64 0 -134 -36t-102 -70v-664h-205z" />
<glyph unicode="n" horiz-adv-x="1060" d="M139 0v942h205v-106q60 52 137 85t152 33q142 0 225.5 -72.5t83.5 -197.5v-684h-207v639q0 133 -131 133q-72 0 -142 -40.5t-118 -86.5v-645h-205z" />
<glyph unicode="o" horiz-adv-x="1060" d="M66 469q0 68 16.5 135.5t54 131.5t90.5 112.5t133 78t175 29.5q96 0 175.5 -29.5t131 -78t87 -112.5t51 -130.5t15.5 -134.5t-16.5 -135t-53 -130t-89 -110.5t-130.5 -76.5t-171 -29q-146 0 -254 65.5t-161.5 173t-53.5 240.5zM279 469q0 -136 71.5 -216.5t181.5 -80.5 q50 0 93 17t79 51.5t57 93.5t21 137q0 79 -22.5 139.5t-59.5 94.5t-79 50.5t-86 16.5q-42 0 -84.5 -16t-82 -49.5t-64.5 -95t-25 -142.5z" />
<glyph unicode="p" horiz-adv-x="1091" d="M139 -446v1396h205v-94q44 28 73 44t86 35t109 19q80 0 147.5 -25t115.5 -69.5t81.5 -105t49.5 -131t16 -148.5q0 -93 -27.5 -178.5t-78.5 -155t-133 -111.5t-183 -42q-70 0 -139 27.5t-117 64.5v-526h-205zM344 274q43 -34 69 -51.5t73 -34t100 -16.5q106 0 168.5 87.5 t62.5 211.5q0 129 -58.5 215t-168.5 86q-119 0 -246 -102v-396z" />
<glyph unicode="q" horiz-adv-x="1089" d="M70 467q0 95 26 181t75 155t128 110t178 41q129 0 268 -92v80h205v-1388h-205v532q-49 -41 -118 -69.5t-138 -28.5q-101 0 -182.5 41t-132 109t-77.5 152.5t-27 176.5zM274 471q0 -125 62 -212t168 -87q38 0 72.5 9t66.5 28t52 34t50 40v387q-119 100 -245 100 q-110 0 -168 -85t-58 -214z" />
<glyph unicode="r" horiz-adv-x="722" d="M139 0v942h205v-123q64 69 98 93q64 46 136 46q64 0 151 -34l-88 -191q-40 27 -117 27q-50 0 -99 -43t-81 -99v-618h-205z" />
<glyph unicode="s" horiz-adv-x="776" d="M51 78l92 151q100 -65 217 -65q65 0 105.5 26t40.5 72q0 23 -12 42t-38.5 36.5t-51.5 30.5t-67 32q-13 6 -20 9q-54 24 -91 46.5t-71 55.5t-50.5 78t-16.5 102q0 52 19 96t50.5 73.5t72 50.5t83.5 30.5t86 9.5q189 0 299 -88l-96 -145q-87 61 -203 61q-49 0 -81.5 -22.5 t-32.5 -59.5q0 -17 6 -30.5t12 -22.5t23 -20t26 -15.5t34.5 -16.5t35.5 -17q8 -4 37.5 -17t40.5 -18.5t38 -19.5t39.5 -23t34.5 -25.5t33 -30.5t26 -34.5t22 -41t12.5 -47t5.5 -55.5q0 -87 -50.5 -152.5t-128.5 -96.5t-170 -31q-87 0 -169.5 24.5t-141.5 67.5z" />
<glyph unicode="t" horiz-adv-x="706" d="M37 768v174h156v207h204v-207h238v-174h-238v-485q0 -111 101 -111q19 0 40.5 3.5t35.5 8t35 11t28 8.5l53 -166q-3 -1 -16 -6.5t-19 -8t-21.5 -8t-27 -8.5t-30.5 -7t-36.5 -6t-41.5 -3.5t-49 -1.5q-127 0 -191.5 70t-64.5 200v510h-156z" />
<glyph unicode="u" horiz-adv-x="1062" d="M125 258v684h205v-637q0 -133 133 -133q108 0 256 129v641h205v-942h-205v109q-62 -53 -136.5 -87t-148.5 -34q-142 0 -225.5 72.5t-83.5 197.5z" />
<glyph unicode="v" horiz-adv-x="950" d="M12 907l211 49l252 -723l268 721l195 -47l-360 -907h-220z" />
<glyph unicode="w" horiz-adv-x="1523" d="M12 905l197 49l237 -716l222 704h192l223 -704l234 716l194 -49l-329 -905h-209l-213 659l-215 -659h-211z" />
<glyph unicode="x" horiz-adv-x="937" d="M12 41l338 440l-313 428l221 45l217 -319l230 319l206 -49l-331 -411l346 -451l-213 -55l-254 346l-238 -346z" />
<glyph unicode="y" horiz-adv-x="966" d="M14 -301q27 -2 76 -2q79 0 137.5 44t87.5 116l62 151l-363 899l211 47l262 -702l271 704l198 -47l-450 -1099q-124 -299 -393 -299q-47 0 -99 6v182z" />
<glyph unicode="z" horiz-adv-x="866" d="M45 137l487 623h-452v182h678l53 -145l-475 -613h455v-184h-676z" />
<glyph unicode="{" horiz-adv-x="761" d="M111 422v178q64 1 101.5 10.5t57 34.5t25.5 56t6 87v431q0 154 71.5 220t231.5 66h103v-194h-97q-61 0 -81.5 -35t-20.5 -117v-397q0 -94 -23 -156.5t-92 -95.5q69 -37 92 -95.5t23 -154.5v-395v-14q0 -30 0.5 -44.5t5.5 -36.5t15.5 -32.5t30.5 -18.5t50 -8h97v-196h-103 q-149 0 -226 74.5t-77 213.5v430q0 58 -5 89t-24.5 56t-57.5 34t-103 10z" />
<glyph unicode="|" horiz-adv-x="495" d="M141 -455v1932h211v-1932h-211z" />
<glyph unicode="}" horiz-adv-x="761" d="M66 -289h94q30 0 50 9t30.5 21.5t16 35.5t6.5 40.5t1 47.5v395q0 97 23 156t92 92q-70 39 -92.5 99t-22.5 155v395q0 86 -19.5 120t-84.5 34h-94v194h100q156 0 230.5 -69t74.5 -217v-431q0 -57 5.5 -88t25.5 -56t57.5 -34t102.5 -10v-178q-65 -1 -102.5 -10t-57.5 -34 t-25.5 -56.5t-5.5 -88.5v-430q0 -145 -75 -216.5t-230 -71.5h-100v196z" />
<glyph unicode="~" horiz-adv-x="1085" d="M33 674q159 190 323 190q59 0 116 -21t94.5 -46.5t83 -46.5t83.5 -21q97 0 199 102l121 -124q-158 -193 -334 -193q-57 0 -113.5 21.5t-94 47t-85 47t-88.5 21.5q-43 0 -98 -32t-101 -76z" />
<glyph unicode="&#xa1;" horiz-adv-x="665" d="M197 887q0 55 39.5 95t95.5 40q57 0 97 -39.5t40 -95.5q0 -57 -40 -96t-97 -39q-56 0 -95.5 39t-39.5 96zM227 -399v1013h209v-1013h-209z" />
<glyph unicode="&#xa2;" horiz-adv-x="862" d="M74 459q0 197 104 329t273 160v121h143v-117q127 -12 229 -75l-96 -160q-65 40 -133 49v-590q77 5 147 49l95 -153q-119 -72 -242 -82v-127h-143v131q-174 26 -275.5 152t-101.5 313zM281 469q0 -103 46.5 -175t123.5 -101v561q-79 -29 -124.5 -105.5t-45.5 -179.5z" />
<glyph unicode="&#xa3;" horiz-adv-x="1048" d="M123 623v188h180q-2 17 -8.5 57t-10 70.5t-3.5 58.5q0 190 117.5 306t301.5 116q140 0 267 -65l-76 -170q-96 47 -189 47q-92 0 -149 -66t-57 -157q0 -24 2.5 -51.5t5.5 -46.5t8.5 -51.5t7.5 -47.5h305v-188h-278q6 -76 0 -142q-23 -189 -103 -293h551v-188h-868v154 q95 43 153 133t58 198q0 71 -6 138h-209z" />
<glyph unicode="&#xa4;" horiz-adv-x="1054" d="M90 705q0 336 142 526t399 190q203 0 336 -133l-156 -137q-76 72 -188 72q-113 0 -185 -76.5t-100 -218.5h438v-148h-457q-2 -27 -2 -75q0 -60 2 -91h457v-147h-432q27 -136 95.5 -210.5t178.5 -74.5q64 0 123.5 25t94.5 63l149 -125q-143 -157 -362 -157 q-138 0 -241 51.5t-166.5 147t-94.5 225t-31 293.5z" />
<glyph unicode="&#xa5;" horiz-adv-x="1241" d="M33 1358l225 63l375 -587l377 587l213 -65l-355 -529h252v-168h-383v-143h383v-166h-383v-350h-223v350h-389v166h389v143h-389v168h260z" />
<glyph unicode="&#xa6;" horiz-adv-x="491" d="M135 385h215v-848h-215v848zM135 682v821h215v-821h-215z" />
<glyph unicode="&#xa7;" horiz-adv-x="995" d="M86 -104l121 151q71 -55 134 -81.5t153 -26.5q78 0 132 34t54 88q0 33 -25.5 62t-67 50t-94.5 45t-108 46.5t-108 54.5t-94.5 68.5t-67 90t-25.5 116.5q0 53 17.5 102.5t46 85.5t52.5 59.5t50 41.5q-135 96 -135 233q0 134 104.5 219.5t276.5 85.5q116 0 186 -25.5 t162 -86.5l-117 -158q-51 40 -101 60t-128 20q-79 0 -125.5 -29.5t-46.5 -79.5q0 -35 30.5 -64t80 -52t109 -47.5t118.5 -55.5t108.5 -68.5t80 -95t30.5 -127.5q0 -159 -182 -280q182 -106 182 -258q0 -142 -109.5 -233t-287.5 -91q-138 0 -225.5 35.5t-180.5 110.5z M299 604q0 -17 7 -34t16.5 -30t27.5 -27t30 -22.5t36 -21t34 -17t34.5 -15t27.5 -11.5q168 82 168 174q0 25 -14 48.5t-31 39.5t-49 34t-50.5 26t-54 23t-41.5 17q-29 -15 -57.5 -37t-56 -63t-27.5 -84z" />
<glyph unicode="&#xa8;" horiz-adv-x="729" d="M33 1268q0 55 38.5 94t92.5 39q56 0 94.5 -38.5t38.5 -94.5q0 -54 -39 -92.5t-94 -38.5q-54 0 -92.5 38.5t-38.5 92.5zM432 1268q0 55 38.5 94t92.5 39q55 0 94 -38.5t39 -94.5q0 -54 -39 -92.5t-94 -38.5q-54 0 -92.5 38.5t-38.5 92.5z" />
<glyph unicode="&#xa9;" horiz-adv-x="1593" d="M80 694q0 197 98.5 364t267 264t365.5 97t365 -97t266 -264t98 -364q0 -196 -98 -363t-266 -264.5t-365 -97.5t-365.5 97.5t-267 264.5t-98.5 363zM229 694q0 -162 77 -298.5t211 -216t294 -79.5q161 0 295 80t210.5 216.5t76.5 297.5t-76.5 298t-210.5 217.5t-295 80.5 t-295 -80.5t-210.5 -217.5t-76.5 -298zM412 692q0 182 120.5 296t296.5 114q131 0 220 -58l-68 -116q-63 39 -160 39q-103 0 -177.5 -77t-74.5 -198q0 -118 73 -196t187 -78q91 0 166 35l64 -113q-96 -59 -230 -59q-179 0 -298 112.5t-119 298.5z" />
<glyph unicode="&#xaa;" horiz-adv-x="845" d="M106 883q0 37 12 68.5t32 54t48 41t58 31t65.5 22.5t66 16.5t63.5 12.5q15 3 22 4v43q0 69 -82 69q-42 0 -93 -18t-91 -43l-76 141q68 48 126.5 71t143.5 23q47 0 90.5 -11t83.5 -35.5t63.5 -70t23.5 -106.5v-322l77 -75l-129 -123l-92 84q-109 -68 -196 -68 q-90 0 -153 50t-63 141zM289 903q0 -61 57 -61q51 0 127 45v123q-55 -13 -61 -15q-123 -26 -123 -92z" />
<glyph unicode="&#xab;" horiz-adv-x="962" d="M102 438l256 361l144 -92l-197 -269l197 -266l-144 -94zM461 438l256 361l143 -92l-194 -269l194 -266l-143 -94z" />
<glyph unicode="&#xac;" horiz-adv-x="1058" d="M63 602v184h920v-557h-195v373h-725z" />
<glyph unicode="&#xad;" horiz-adv-x="610" d="M33 430v197h542v-197h-542z" />
<glyph unicode="&#xae;" horiz-adv-x="1593" d="M80 694q0 197 98.5 364t267 264t365.5 97t365 -97t266 -264t98 -364q0 -196 -98 -363t-266 -264.5t-365 -97.5t-365.5 97.5t-267 264.5t-98.5 363zM229 694q0 -162 77 -298.5t211 -216t294 -79.5q161 0 295 80t210.5 216.5t76.5 297.5t-76.5 298t-210.5 217.5t-295 80.5 t-295 -80t-210.5 -217t-76.5 -299zM565 295v799h232q128 0 206 -54t78 -172q0 -158 -153 -231l215 -320l-152 -36l-209 329h-69v-315h-148zM713 739h59q78 0 120 32.5t42 90.5q0 33 -13.5 55t-37.5 32.5t-48.5 14t-56.5 3.5h-65v-228z" />
<glyph unicode="&#xaf;" horiz-adv-x="624" d="M61 1141v174h502v-174h-502z" />
<glyph unicode="&#xb0;" horiz-adv-x="770" d="M109 1169q0 114 80 195.5t194 81.5t194 -81.5t80 -195.5q0 -113 -80 -192.5t-194 -79.5t-194 79.5t-80 192.5zM262 1169q0 -50 36 -86t85 -36q51 0 86 36t35 86q0 52 -35.5 89.5t-85.5 37.5t-85.5 -37.5t-35.5 -89.5z" />
<glyph unicode="&#xb1;" horiz-adv-x="1030" d="M43 0v188h942v-188h-942zM43 670v184h367v367h211v-367h364v-184h-364v-371h-211v371h-367z" />
<glyph unicode="&#xb2;" horiz-adv-x="641" d="M51 1311q111 108 258 108q108 0 179 -57t71 -148q0 -18 -2 -34.5t-9 -34.5t-11 -30.5t-16.5 -31t-17.5 -27t-21 -28t-20 -24.5t-23 -26.5t-21 -23.5q-30 -30 -92 -88h229v-164h-461l-37 115q43 36 56.5 48t64 56.5t75.5 72t60 68t50.5 73.5t15.5 59q0 27 -25 48.5 t-65 21.5q-69 0 -133 -64z" />
<glyph unicode="&#xb3;" horiz-adv-x="649" d="M61 758l56 114q72 -38 155 -38q39 0 66 22.5t27 63.5t-32.5 68.5t-90.5 27.5h-72v114h72q46 0 76 26t30 61q0 26 -19 47.5t-59 21.5q-68 0 -129 -37l-59 103q48 36 95 51.5t116 15.5q104 0 165.5 -53t61.5 -141q0 -91 -69 -138q42 -22 66 -64.5t24 -98.5 q0 -97 -70 -164.5t-188 -67.5q-126 0 -222 66z" />
<glyph unicode="&#xb4;" horiz-adv-x="616" d="M82 1176l328 284l125 -147l-351 -252z" />
<glyph unicode="&#xb6;" horiz-adv-x="1118" d="M57 987q0 89 28 159.5t72.5 113.5t104 71.5t117 39.5t117.5 11h475v-1759h-215v1567h-101v-645h-147q-51 -1 -108.5 13.5t-119 49t-111 84t-81 126.5t-31.5 169zM270 989q0 -39 9 -72.5t21.5 -56.5t33 -42.5t36 -30.5t39 -21t33.5 -13t27 -8v445q-88 -5 -143.5 -55.5 t-55.5 -145.5z" />
<glyph unicode="&#xb7;" horiz-adv-x="579" d="M152 682q0 57 39.5 96t95.5 39q57 0 96 -39t39 -96q0 -56 -39 -95.5t-96 -39.5q-55 0 -95 39.5t-40 95.5z" />
<glyph unicode="&#xb8;" horiz-adv-x="501" d="M61 -379q63 28 86 55.5t23 67.5q0 63 -74 137l70 168l131 -41l-43 -100q80 -77 80 -168q0 -75 -59 -142.5t-146 -82.5z" />
<glyph unicode="&#xb9;" horiz-adv-x="604" d="M20 1251l281 158h137v-711h-182v510l-158 -88z" />
<glyph unicode="&#xba;" horiz-adv-x="845" d="M76 1057q0 152 98 257t258 105q158 0 250 -103.5t92 -258.5q0 -154 -99.5 -259.5t-256.5 -105.5q-158 0 -250 104t-92 261zM279 1057q0 -96 43 -142.5t102 -46.5q58 0 102.5 46.5t44.5 144.5q0 97 -44.5 141.5t-100.5 44.5t-101.5 -45.5t-45.5 -142.5z" />
<glyph unicode="&#xbb;" horiz-adv-x="962" d="M102 172l195 266l-195 269l144 92l256 -361l-256 -360zM461 172l194 266l-194 269l141 92l258 -361l-256 -360z" />
<glyph unicode="&#xbc;" horiz-adv-x="1562" d="M20 1251l281 158h135v-711h-182v510l-158 -88zM307 -4l727 1483l158 -68l-727 -1485zM889 305l307 406h176v-394h70v-135h-70v-182h-172v182h-268zM1055 317h145v195z" />
<glyph unicode="&#xbd;" horiz-adv-x="1562" d="M20 1251l281 158h135v-711h-182v510l-158 -88zM299 -4l727 1483l158 -68l-727 -1485zM940 608q111 111 258 111q108 0 179 -58t71 -149q0 -51 -24.5 -102.5t-48 -79.5t-68.5 -76q-14 -16 -93 -90h230v-164h-461l-35 115q144 124 202 184q117 125 118 193q0 28 -24.5 48.5 t-65.5 20.5q-74 0 -134 -63z" />
<glyph unicode="&#xbe;" horiz-adv-x="1581" d="M63 758l54 114q75 -38 157 -38q37 0 64 23.5t27 62.5q0 42 -32 69t-91 27h-70v114h70q46 0 77 26t31 61q0 26 -19 47.5t-59 21.5q-68 0 -129 -37l-61 103q50 36 97 51.5t116 15.5q103 0 165 -53t62 -141q0 -90 -71 -138q42 -22 67 -64.5t25 -98.5q0 -97 -70 -164.5 t-190 -67.5t-220 66zM313 -4l727 1483l158 -68l-725 -1485zM887 305l309 406h176v-394h70v-135h-70v-182h-172v182h-268zM1053 317h147v195z" />
<glyph unicode="&#xbf;" horiz-adv-x="864" d="M115 27q0 137 94 252t227 135v202h213v-350q-62 0 -115 -13.5t-97 -41.5t-69.5 -75.5t-25.5 -110.5q0 -119 89 -178.5t218 -59.5v-197q-85 1 -161 16t-145 49t-119 83.5t-79.5 123.5t-29.5 165zM410 891q0 55 39.5 94t93.5 39q57 0 97 -39t40 -94q0 -57 -40 -97t-97 -40 q-54 0 -93.5 40t-39.5 97z" />
<glyph unicode="&#xc0;" horiz-adv-x="1359" d="M16 29l566 1380h213l548 -1384l-223 -37l-164 420h-561l-164 -422zM420 1679l373 -219l92 123l-350 254zM471 598h412l-203 545z" />
<glyph unicode="&#xc1;" horiz-adv-x="1359" d="M16 29l566 1380h213l548 -1384l-223 -37l-164 420h-561l-164 -422zM471 598h412l-203 545zM487 1583l351 254l114 -158l-372 -219z" />
<glyph unicode="&#xc2;" horiz-adv-x="1359" d="M16 29l566 1380h213l548 -1384l-223 -37l-164 420h-561l-164 -422zM344 1591l125 -127l211 172l209 -172l127 127l-336 254zM471 598h412l-203 545z" />
<glyph unicode="&#xc3;" horiz-adv-x="1359" d="M16 29l566 1380h213l548 -1384l-223 -37l-164 420h-561l-164 -422zM324 1608q35 68 103.5 113.5t141.5 45.5q37 0 81 -24.5t82.5 -49t64.5 -24.5q44 0 72 18t63 58l115 -88q-95 -170 -254 -170q-40 0 -81.5 24t-79.5 48t-67 24q-13 0 -25 -1.5t-20.5 -3.5t-18 -7t-15 -8 t-15.5 -11.5t-13.5 -12.5t-15.5 -16l-16 -16zM471 598h412l-203 545z" />
<glyph unicode="&#xc4;" horiz-adv-x="1359" d="M16 29l566 1380h213l548 -1384l-223 -37l-164 420h-561l-164 -422zM350 1626q0 55 38.5 94t92.5 39q55 0 94 -38.5t39 -94.5q0 -54 -39 -92.5t-94 -38.5q-54 0 -92.5 38.5t-38.5 92.5zM471 598h412l-203 545zM750 1626q0 55 38.5 94t92.5 39q55 0 94 -38.5t39 -94.5 q0 -54 -39 -92.5t-94 -38.5q-54 0 -92.5 38.5t-38.5 92.5z" />
<glyph unicode="&#xc5;" horiz-adv-x="1359" d="M16 29l547 1335q-58 28 -91.5 79.5t-33.5 119.5q0 102 72 164.5t178 62.5q104 0 176 -62.5t72 -164.5q0 -67 -33 -118.5t-90 -80.5l530 -1339l-223 -37l-164 420h-561l-164 -422zM471 598h412l-203 545zM602 1563q0 -41 26 -68t60 -27q33 0 58.5 26.5t25.5 68.5 q0 41 -25 66.5t-59 25.5t-60 -25.5t-26 -66.5z" />
<glyph unicode="&#xc6;" horiz-adv-x="1773" d="M-18 27l815 1382h889v-197h-605v-395h559v-192h-559v-428h605v-197h-828v408h-420l-239 -422zM545 598h313v549z" />
<glyph unicode="&#xc7;" horiz-adv-x="1173" d="M84 707q0 158 55.5 292.5t150.5 226.5t224 143.5t274 51.5q217 0 351 -88l-99 -168q-94 58 -268 58q-91 0 -175 -37.5t-148 -103.5t-102 -164t-38 -211q0 -147 59.5 -266t169 -188t248.5 -69q169 0 281 56l88 -164q-111 -72 -287 -84l-34 -84h-3q82 -75 82 -168 q0 -75 -58.5 -142.5t-145.5 -82.5l-68 106q63 28 86 55.5t23 67.5q0 63 -74 137l45 109q-286 21 -461.5 213t-175.5 504z" />
<glyph unicode="&#xc8;" horiz-adv-x="1073" d="M160 0v1409h827v-197h-606v-395h561v-192h-561v-428h606v-197h-827zM285 1679l372 -219l93 123l-351 254z" />
<glyph unicode="&#xc9;" horiz-adv-x="1073" d="M160 0v1409h827v-197h-606v-395h561v-192h-561v-428h606v-197h-827zM403 1583l351 254l114 -158l-372 -219z" />
<glyph unicode="&#xca;" horiz-adv-x="1073" d="M160 0v1409h827v-197h-606v-395h561v-192h-561v-428h606v-197h-827zM248 1591l125 -127l211 172l209 -172l127 127l-336 254z" />
<glyph unicode="&#xcb;" horiz-adv-x="1073" d="M160 0v1409h827v-197h-606v-395h561v-192h-561v-428h606v-197h-827zM236 1626q0 55 38.5 94t92.5 39q55 0 94 -38.5t39 -94.5q0 -54 -39 -92.5t-94 -38.5q-54 0 -92.5 38.5t-38.5 92.5zM635 1626q0 55 38.5 94t92.5 39q56 0 94.5 -38.5t38.5 -94.5q0 -54 -39 -92.5 t-94 -38.5q-54 0 -92.5 38.5t-38.5 92.5z" />
<glyph unicode="&#xcc;" horiz-adv-x="540" d="M18 1679l373 -219l92 123l-350 254zM160 0v1409h221v-1409h-221z" />
<glyph unicode="&#xcd;" horiz-adv-x="540" d="M70 1583l350 254l115 -158l-373 -219zM160 0v1409h221v-1409h-221z" />
<glyph unicode="&#xce;" horiz-adv-x="540" d="M-66 1591l125 -127l211 172l209 -172l127 127l-336 254zM160 0v1409h221v-1409h-221z" />
<glyph unicode="&#xcf;" horiz-adv-x="540" d="M-63 1626q0 55 38.5 94t92.5 39q56 0 94.5 -38.5t38.5 -94.5q0 -54 -39 -92.5t-94 -38.5q-54 0 -92.5 38.5t-38.5 92.5zM160 0v1409h221v-1409h-221zM336 1626q0 55 38.5 94t92.5 39q55 0 94 -38.5t39 -94.5q0 -54 -39 -92.5t-94 -38.5q-54 0 -92.5 38.5t-38.5 92.5z" />
<glyph unicode="&#xd0;" horiz-adv-x="1460" d="M20 655v133h142v621h516q171 0 305.5 -52t220 -144.5t130 -217t44.5 -272.5q0 -207 -96.5 -373t-262.5 -258t-368 -92h-489v655h-142zM383 197h227q104 0 198 31.5t172.5 94t125.5 169t47 243.5q0 477 -532 477h-238v-424h229v-133h-229v-458z" />
<glyph unicode="&#xd1;" horiz-adv-x="1548" d="M160 0v1409h243l762 -1042v1042h224v-1409h-232l-774 1049v-1049h-223zM424 1608q35 68 104 113.5t142 45.5q37 0 80.5 -24.5t82 -49t64.5 -24.5q44 0 72 18t63 58l115 -88q-95 -170 -254 -170q-40 0 -81.5 24t-79 48t-66.5 24q-13 0 -25 -2t-20 -3t-18.5 -7t-15.5 -8 t-15.5 -11.5t-13.5 -12t-16 -16t-16 -16.5z" />
<glyph unicode="&#xd2;" horiz-adv-x="1581" d="M84 705q0 148 49.5 278t139.5 227t225 153t297 56q157 0 290.5 -57.5t222.5 -155t139 -227t50 -272.5q0 -211 -86.5 -374t-247 -254t-370.5 -91q-208 0 -369.5 89.5t-250.5 253t-89 374.5zM309 705q0 -80 19.5 -155.5t59.5 -142t96 -116t133 -78.5t167 -29 q150 0 262.5 71t169 188t56.5 262q0 108 -31.5 202t-90.5 165t-151 112t-206 41t-206.5 -41t-152.5 -112t-92.5 -165t-32.5 -202zM520 1679l373 -219l92 123l-350 254z" />
<glyph unicode="&#xd3;" horiz-adv-x="1581" d="M84 705q0 148 49.5 278t139.5 227t225 153t297 56q157 0 290.5 -57.5t222.5 -155t139 -227t50 -272.5q0 -211 -86.5 -374t-247 -254t-370.5 -91q-208 0 -369.5 89.5t-250.5 253t-89 374.5zM309 705q0 -80 19.5 -155.5t59.5 -142t96 -116t133 -78.5t167 -29 q150 0 262.5 71t169 188t56.5 262q0 108 -31.5 202t-90.5 165t-151 112t-206 41t-206.5 -41t-152.5 -112t-92.5 -165t-32.5 -202zM606 1583l350 254l115 -158l-373 -219z" />
<glyph unicode="&#xd4;" horiz-adv-x="1581" d="M84 705q0 148 49.5 278t139.5 227t225 153t297 56q157 0 290.5 -57.5t222.5 -155t139 -227t50 -272.5q0 -211 -86.5 -374t-247 -254t-370.5 -91q-208 0 -369.5 89.5t-250.5 253t-89 374.5zM309 705q0 -80 19.5 -155.5t59.5 -142t96 -116t133 -78.5t167 -29 q150 0 262.5 71t169 188t56.5 262q0 108 -31.5 202t-90.5 165t-151 112t-206 41t-206.5 -41t-152.5 -112t-92.5 -165t-32.5 -202zM463 1591l125 -127l211 172l209 -172l127 127l-336 254z" />
<glyph unicode="&#xd5;" horiz-adv-x="1603" d="M84 705q0 148 49.5 278t139.5 227t225 153t297 56q157 0 290.5 -57.5t222.5 -155t139 -227t50 -272.5q0 -211 -86.5 -374t-247 -254t-370.5 -91q-208 0 -369.5 89.5t-250.5 253t-89 374.5zM309 705q0 -80 19.5 -155.5t59.5 -142t96 -116t133 -78.5t167 -29 q150 0 262.5 71t169 188t56.5 262q0 108 -31.5 202t-90.5 165t-151 112t-206 41t-206.5 -41t-152.5 -112t-92.5 -165t-32.5 -202zM430 1608q35 68 104 113.5t142 45.5q37 0 80.5 -24.5t82 -49t64.5 -24.5q44 0 72 18t63 58l115 -88q-95 -170 -254 -170q-40 0 -81.5 24 t-79 48t-66.5 24q-13 0 -25 -2t-20 -3t-18.5 -7t-15.5 -8t-15.5 -11.5t-13.5 -12t-16 -16t-16 -16.5z" />
<glyph unicode="&#xd6;" horiz-adv-x="1581" d="M84 705q0 148 49.5 278t139.5 227t225 153t297 56q157 0 290.5 -57.5t222.5 -155t139 -227t50 -272.5q0 -211 -86.5 -374t-247 -254t-370.5 -91q-208 0 -369.5 89.5t-250.5 253t-89 374.5zM309 705q0 -80 19.5 -155.5t59.5 -142t96 -116t133 -78.5t167 -29 q150 0 262.5 71t169 188t56.5 262q0 108 -31.5 202t-90.5 165t-151 112t-206 41t-206.5 -41t-152.5 -112t-92.5 -165t-32.5 -202zM463 1626q0 55 38.5 94t92.5 39q56 0 94.5 -38.5t38.5 -94.5q0 -54 -39 -92.5t-94 -38.5q-54 0 -92.5 38.5t-38.5 92.5zM862 1626 q0 55 38.5 94t92.5 39q55 0 94 -38.5t39 -94.5q0 -54 -39 -92.5t-94 -38.5q-54 0 -92.5 38.5t-38.5 92.5z" />
<glyph unicode="&#xd7;" horiz-adv-x="1005" d="M84 397l291 287l-291 289l131 131l287 -289l289 289l131 -131l-291 -287l291 -289l-131 -131l-289 289l-287 -289z" />
<glyph unicode="&#xd8;" horiz-adv-x="1581" d="M84 92l145 152q-145 191 -145 461q0 148 49.5 278t139.5 227t225 153t297 56q257 0 444 -147l143 147l113 -104l-149 -154q151 -193 151 -454q0 -211 -86.5 -374t-247 -254t-370.5 -91q-269 0 -455 147l-143 -145zM309 705q0 -169 80 -299l705 718q-125 101 -301 101 q-114 0 -206.5 -41t-152.5 -112t-92.5 -165t-32.5 -202zM487 287q128 -103 297 -103q150 0 263 71t170 188t57 262q0 175 -80 305z" />
<glyph unicode="&#xd9;" horiz-adv-x="1382" d="M129 465v944h223v-926q0 -142 99 -220.5t251 -78.5q154 0 241 77t87 237v911h223v-942q0 -116 -46 -209t-124 -151t-177 -88.5t-210 -30.5q-157 0 -283.5 52t-205 162t-78.5 263zM416 1679l372 -219l93 123l-351 254z" />
<glyph unicode="&#xda;" horiz-adv-x="1382" d="M129 465v944h223v-926q0 -142 99 -220.5t251 -78.5q154 0 241 77t87 237v911h223v-942q0 -116 -46 -209t-124 -151t-177 -88.5t-210 -30.5q-157 0 -283.5 52t-205 162t-78.5 263zM510 1583l350 254l115 -158l-373 -219z" />
<glyph unicode="&#xdb;" horiz-adv-x="1382" d="M129 465v944h223v-926q0 -142 99 -220.5t251 -78.5q154 0 241 77t87 237v911h223v-942q0 -116 -46 -209t-124 -151t-177 -88.5t-210 -30.5q-157 0 -283.5 52t-205 162t-78.5 263zM360 1591l125 -127l211 172l209 -172l127 127l-336 254z" />
<glyph unicode="&#xdc;" horiz-adv-x="1382" d="M129 465v944h223v-926q0 -142 99 -220.5t251 -78.5q154 0 241 77t87 237v911h223v-942q0 -116 -46 -209t-124 -151t-177 -88.5t-210 -30.5q-157 0 -283.5 52t-205 162t-78.5 263zM371 1626q0 55 38.5 94t92.5 39q56 0 94.5 -38.5t38.5 -94.5q0 -54 -39 -92.5t-94 -38.5 q-54 0 -92.5 38.5t-38.5 92.5zM770 1626q0 55 38.5 94t92.5 39q55 0 94 -38.5t39 -94.5q0 -54 -39 -92.5t-94 -38.5q-54 0 -92.5 38.5t-38.5 92.5z" />
<glyph unicode="&#xdd;" horiz-adv-x="1206" d="M16 1358l226 63l372 -587l377 587l215 -65l-487 -725v-631h-223v631zM408 1583l350 254l114 -158l-372 -219z" />
<glyph unicode="&#xde;" horiz-adv-x="1099" d="M160 0v1409h221v-260h168q73 0 140.5 -13.5t132 -44t112 -76.5t76 -115.5t28.5 -154.5q0 -145 -69 -251.5t-184.5 -158.5t-262.5 -52h-141v-283h-221zM381 471h121q145 0 227 73.5t82 196.5q0 60 -23.5 103t-65.5 65.5t-89.5 32.5t-104.5 10h-147v-481z" />
<glyph unicode="&#xdf;" horiz-adv-x="1112" d="M139 0v1139q0 86 37.5 153.5t97.5 106t127 58.5t134 20q82 0 148.5 -20.5t108.5 -53.5t70.5 -76t40.5 -85.5t12 -84.5q0 -58 -18.5 -105.5t-46.5 -76.5t-60.5 -57t-60.5 -48t-46.5 -47.5t-18.5 -58.5q0 -32 20.5 -59.5t53.5 -49.5t72.5 -45.5t79 -52t72.5 -63t53.5 -86 t20.5 -113.5q0 -134 -102.5 -220.5t-239.5 -86.5q-145 0 -254 71l99 162q77 -53 155 -53q56 0 94.5 33t38.5 94q0 36 -20.5 65.5t-53 51t-71.5 42.5t-78 47t-71.5 58t-53 81.5t-20.5 111.5q0 61 18.5 109.5t46 76.5t59.5 54.5t59.5 46t46 49.5t18.5 67q0 70 -51.5 106.5 t-118.5 36.5q-46 0 -89.5 -15.5t-77.5 -55t-34 -97.5v-1130h-197z" />
<glyph unicode="&#xe0;" horiz-adv-x="946" d="M72 244q0 72 30 127t85.5 91t118.5 58t145 37l143 25v67q0 62 -37 96.5t-111 34.5q-96 0 -249 -88l-86 144q182 118 350 118q65 0 122 -14.5t108 -46t80.5 -89t29.5 -136.5v-469l96 -95l-139 -133l-127 117q-143 -100 -283 -100q-119 0 -197.5 67t-78.5 189zM199 1290 l127 150l325 -285l-102 -115zM272 258q0 -53 32 -80.5t77 -27.5q40 0 107 24t106 51v217l-125 -24q-85 -17 -141 -57.5t-56 -102.5z" />
<glyph unicode="&#xe1;" horiz-adv-x="946" d="M72 244q0 72 30 127t85.5 91t118.5 58t145 37l143 25v67q0 62 -37 96.5t-111 34.5q-96 0 -249 -88l-86 144q182 118 350 118q65 0 122 -14.5t108 -46t80.5 -89t29.5 -136.5v-469l96 -95l-139 -133l-127 117q-143 -100 -283 -100q-119 0 -197.5 67t-78.5 189zM272 258 q0 -53 32 -80.5t77 -27.5q40 0 107 24t106 51v217l-125 -24q-85 -17 -141 -57.5t-56 -102.5zM281 1176l327 284l125 -147l-350 -252z" />
<glyph unicode="&#xe2;" horiz-adv-x="946" d="M72 244q0 72 30 127t85.5 91t118.5 58t145 37l143 25v67q0 62 -37 96.5t-111 34.5q-96 0 -249 -88l-86 144q182 118 350 118q65 0 122 -14.5t108 -46t80.5 -89t29.5 -136.5v-469l96 -95l-139 -133l-127 117q-143 -100 -283 -100q-119 0 -197.5 67t-78.5 189zM119 1190 l338 252l334 -252l-127 -129l-209 174l-209 -174zM272 258q0 -53 32 -80.5t77 -27.5q40 0 107 24t106 51v217l-125 -24q-85 -17 -141 -57.5t-56 -102.5z" />
<glyph unicode="&#xe3;" horiz-adv-x="946" d="M72 244q0 72 30 127t85.5 91t118.5 58t145 37l143 25v67q0 62 -37 96.5t-111 34.5q-96 0 -249 -88l-86 144q182 118 350 118q65 0 122 -14.5t108 -46t80.5 -89t29.5 -136.5v-469l96 -95l-139 -133l-127 117q-143 -100 -283 -100q-119 0 -197.5 67t-78.5 189zM94 1245 q35 68 104 114t142 46q37 0 80.5 -24.5t82 -49t64.5 -24.5q45 0 72 17t63 58l117 -88q-100 -170 -256 -170q-31 0 -64 15t-57 33.5t-53 33.5t-53 15q-32 0 -56 -9.5t-35 -19t-38 -37.5q-7 -6 -10 -10zM272 258q0 -53 32 -80.5t77 -27.5q40 0 107 24t106 51v217l-125 -24 q-85 -17 -141 -57.5t-56 -102.5z" />
<glyph unicode="&#xe4;" horiz-adv-x="946" d="M72 244q0 72 30 127t85.5 91t118.5 58t145 37l143 25v67q0 62 -37 96.5t-111 34.5q-96 0 -249 -88l-86 144q182 118 350 118q65 0 122 -14.5t108 -46t80.5 -89t29.5 -136.5v-469l96 -95l-139 -133l-127 117q-143 -100 -283 -100q-119 0 -197.5 67t-78.5 189zM129 1268 q0 55 38.5 94t92.5 39q56 0 94.5 -38.5t38.5 -94.5q0 -54 -39 -92.5t-94 -38.5q-54 0 -92.5 38.5t-38.5 92.5zM272 258q0 -53 32 -80.5t77 -27.5q40 0 107 24t106 51v217l-125 -24q-85 -17 -141 -57.5t-56 -102.5zM528 1268q0 55 38.5 94t92.5 39q56 0 95 -39t39 -94 q0 -54 -39.5 -92.5t-94.5 -38.5q-54 0 -92.5 38.5t-38.5 92.5z" />
<glyph unicode="&#xe5;" horiz-adv-x="946" d="M72 244q0 72 30 127t85.5 91t118.5 58t145 37l143 25v67q0 62 -37 96.5t-111 34.5q-96 0 -249 -88l-86 144q182 118 350 118q65 0 122 -14.5t108 -46t80.5 -89t29.5 -136.5v-469l96 -95l-139 -133l-127 117q-143 -100 -283 -100q-119 0 -197.5 67t-78.5 189zM209 1264 q0 101 71.5 163t176.5 62t177.5 -62.5t72.5 -162.5q0 -102 -72.5 -166t-177.5 -64t-176.5 64t-71.5 166zM272 258q0 -53 32 -80.5t77 -27.5q40 0 107 24t106 51v217l-125 -24q-85 -17 -141 -57.5t-56 -102.5zM373 1264q0 -41 26 -68t58 -27q34 0 60 26.5t26 68.5 q0 41 -26 65.5t-60 24.5t-59 -25t-25 -65z" />
<glyph unicode="&#xe6;" horiz-adv-x="1456" d="M66 244q0 58 20.5 105.5t54 80t84 58.5t102.5 41.5t117 27.5l144 25v69q0 61 -38.5 94t-113.5 33q-96 0 -246 -86l-86 144q182 118 351 118q193 0 278 -110q113 110 293 110q182 0 278.5 -120.5t96.5 -307.5v-112h-604q9 -106 77.5 -177t174.5 -71q109 0 237 51l68 -158 q-142 -71 -314 -71q-234 0 -354 149q-169 -149 -344 -149q-119 0 -197.5 67t-78.5 189zM266 258q0 -53 31.5 -79.5t77.5 -26.5q39 0 106 23t107 50v217l-125 -24q-85 -17 -141 -57.5t-56 -102.5zM799 563h397q0 93 -45.5 158t-136.5 65q-50 0 -90.5 -20.5t-65 -54.5t-39 -71 t-20.5 -77z" />
<glyph unicode="&#xe7;" horiz-adv-x="862" d="M74 459q0 222 130 358.5t333 136.5q160 0 286 -77l-96 -160q-87 55 -180 55q-121 0 -193.5 -85t-72.5 -218q0 -135 76 -216t196 -81q98 0 188 53l95 -153q-103 -65 -224 -78l-34 -86h-3q82 -75 82 -168q0 -75 -58.5 -142.5t-145.5 -82.5l-68 106q63 28 86 55.5t23 67.5 q0 63 -74 137l45 113q-180 22 -285.5 148.5t-105.5 316.5z" />
<glyph unicode="&#xe8;" horiz-adv-x="940" d="M72 463q0 212 117.5 351.5t322.5 139.5q93 0 165 -33.5t117 -92.5t68 -135.5t23 -166.5v-112h-602q8 -106 76 -177t173 -71q113 0 238 51l70 -158q-142 -71 -314 -71q-218 0 -336 129t-118 346zM258 1290l127 150l326 -285l-103 -115zM285 563h397q0 94 -46 159.5 t-136 65.5q-50 0 -90.5 -21t-65 -55.5t-39 -71.5t-20.5 -77z" />
<glyph unicode="&#xe9;" horiz-adv-x="940" d="M72 463q0 212 117.5 351.5t322.5 139.5q93 0 165 -33.5t117 -92.5t68 -135.5t23 -166.5v-112h-602q8 -106 76 -177t173 -71q113 0 238 51l70 -158q-142 -71 -314 -71q-218 0 -336 129t-118 346zM285 563h397q0 94 -46 159.5t-136 65.5q-50 0 -90.5 -21t-65 -55.5 t-39 -71.5t-20.5 -77zM324 1176l327 284l125 -147l-350 -252z" />
<glyph unicode="&#xea;" horiz-adv-x="940" d="M72 463q0 212 117.5 351.5t322.5 139.5q93 0 165 -33.5t117 -92.5t68 -135.5t23 -166.5v-112h-602q8 -106 76 -177t173 -71q113 0 238 51l70 -158q-142 -71 -314 -71q-218 0 -336 129t-118 346zM162 1190l338 252l334 -252l-127 -129l-209 174l-209 -174zM285 563h397 q0 94 -46 159.5t-136 65.5q-50 0 -90.5 -21t-65 -55.5t-39 -71.5t-20.5 -77z" />
<glyph unicode="&#xeb;" horiz-adv-x="940" d="M72 463q0 212 117.5 351.5t322.5 139.5q93 0 165 -33.5t117 -92.5t68 -135.5t23 -166.5v-112h-602q8 -106 76 -177t173 -71q113 0 238 51l70 -158q-142 -71 -314 -71q-218 0 -336 129t-118 346zM168 1268q0 55 38.5 94t92.5 39q55 0 94 -38.5t39 -94.5q0 -54 -39 -92.5 t-94 -38.5q-54 0 -92.5 38.5t-38.5 92.5zM285 563h397q0 94 -46 159.5t-136 65.5q-50 0 -90.5 -21t-65 -55.5t-39 -71.5t-20.5 -77zM567 1268q0 55 38.5 94t92.5 39q56 0 94.5 -38.5t38.5 -94.5q0 -54 -39 -92.5t-94 -38.5q-54 0 -92.5 38.5t-38.5 92.5z" />
<glyph unicode="&#xec;" horiz-adv-x="505" d="M6 1290l127 150l326 -285l-103 -115zM150 0v942h204v-942h-204z" />
<glyph unicode="&#xed;" horiz-adv-x="505" d="M45 1176l328 284l125 -147l-351 -252zM152 0v942h204v-942h-204z" />
<glyph unicode="&#xee;" horiz-adv-x="505" d="M-84 1190l338 252l334 -252l-127 -129l-209 174l-209 -174zM152 0v942h202v-942h-202z" />
<glyph unicode="&#xef;" horiz-adv-x="505" d="M-80 1268q0 55 38.5 94t92.5 39q55 0 94 -38.5t39 -94.5q0 -54 -39 -92.5t-94 -38.5q-54 0 -92.5 38.5t-38.5 92.5zM152 0v942h202v-942h-202zM319 1268q0 55 39 94t93 39q55 0 94 -38.5t39 -94.5q0 -54 -39 -92.5t-94 -38.5q-54 0 -93 38.5t-39 92.5z" />
<glyph unicode="&#xf0;" horiz-adv-x="1085" d="M70 485q0 201 113 335t306 134q144 0 265 -88q-34 144 -129 277l-179 -109l-65 103l156 100q-67 72 -125 111l139 129q72 -39 160 -131l166 104l67 -111l-147 -90q93 -137 150 -312.5t57 -356.5q0 -94 -16 -178.5t-51.5 -161t-88.5 -132t-133 -88t-178 -32.5 q-217 0 -342 136t-125 361zM272 479q0 -148 68.5 -231t189.5 -82q75 0 130 34t84.5 92t43 122t13.5 137q0 57 -4 84q-150 135 -293 135q-108 0 -170 -76.5t-62 -214.5z" />
<glyph unicode="&#xf1;" horiz-adv-x="1060" d="M139 0v942h205v-106q60 52 137 85t152 33q142 0 225.5 -72.5t83.5 -197.5v-684h-207v639q0 133 -131 133q-72 0 -142 -40.5t-118 -86.5v-645h-205zM170 1245q35 68 104 114t142 46q37 0 80.5 -24.5t82 -49t64.5 -24.5q45 0 72 17t63 58l117 -88q-100 -170 -256 -170 q-31 0 -64 15t-57 33.5t-53 33.5t-53 15q-34 0 -60 -11t-37 -21.5t-43 -43.5z" />
<glyph unicode="&#xf2;" horiz-adv-x="1060" d="M66 469q0 68 16.5 135.5t54 131.5t90.5 112.5t133 78t175 29.5q96 0 175.5 -29.5t131 -78t87 -112.5t51 -130.5t15.5 -134.5t-16.5 -135t-53 -130t-89 -110.5t-130.5 -76.5t-171 -29q-146 0 -254 65.5t-161.5 173t-53.5 240.5zM266 1290l127 150l326 -285l-103 -115z M279 469q0 -136 71.5 -216.5t181.5 -80.5q50 0 93 17t79 51.5t57 93.5t21 137q0 79 -22.5 139.5t-59.5 94.5t-79 50.5t-86 16.5q-42 0 -84.5 -16t-82 -49.5t-64.5 -95t-25 -142.5z" />
<glyph unicode="&#xf3;" horiz-adv-x="1060" d="M66 469q0 68 16.5 135.5t54 131.5t90.5 112.5t133 78t175 29.5q96 0 175.5 -29.5t131 -78t87 -112.5t51 -130.5t15.5 -134.5t-16.5 -135t-53 -130t-89 -110.5t-130.5 -76.5t-171 -29q-146 0 -254 65.5t-161.5 173t-53.5 240.5zM279 469q0 -136 71.5 -216.5t181.5 -80.5 q50 0 93 17t79 51.5t57 93.5t21 137q0 79 -22.5 139.5t-59.5 94.5t-79 50.5t-86 16.5q-42 0 -84.5 -16t-82 -49.5t-64.5 -95t-25 -142.5zM350 1176l328 284l125 -147l-350 -252z" />
<glyph unicode="&#xf4;" horiz-adv-x="1060" d="M66 469q0 68 16.5 135.5t54 131.5t90.5 112.5t133 78t175 29.5q96 0 175.5 -29.5t131 -78t87 -112.5t51 -130.5t15.5 -134.5t-16.5 -135t-53 -130t-89 -110.5t-130.5 -76.5t-171 -29q-146 0 -254 65.5t-161.5 173t-53.5 240.5zM201 1190l338 252l333 -252l-127 -129 l-208 174l-209 -174zM279 469q0 -136 71.5 -216.5t181.5 -80.5q50 0 93 17t79 51.5t57 93.5t21 137q0 79 -22.5 139.5t-59.5 94.5t-79 50.5t-86 16.5q-42 0 -84.5 -16t-82 -49.5t-64.5 -95t-25 -142.5z" />
<glyph unicode="&#xf5;" horiz-adv-x="1060" d="M66 469q0 68 16.5 135.5t54 131.5t90.5 112.5t133 78t175 29.5q96 0 175.5 -29.5t131 -78t87 -112.5t51 -130.5t15.5 -134.5t-16.5 -135t-53 -130t-89 -110.5t-130.5 -76.5t-171 -29q-146 0 -254 65.5t-161.5 173t-53.5 240.5zM176 1245q35 68 104 114t142 46 q37 0 80.5 -24.5t82 -49t64.5 -24.5q45 0 72 17t63 58l117 -88q-100 -170 -256 -170q-31 0 -64 15t-57 33.5t-53 33.5t-53 15q-32 0 -56 -9.5t-35 -19t-38 -37.5q-7 -6 -10 -10zM279 469q0 -136 71.5 -216.5t181.5 -80.5q50 0 93 17t79 51.5t57 93.5t21 137 q0 79 -22.5 139.5t-59.5 94.5t-79 50.5t-86 16.5q-42 0 -84.5 -16t-82 -49.5t-64.5 -95t-25 -142.5z" />
<glyph unicode="&#xf6;" horiz-adv-x="1060" d="M66 469q0 68 16.5 135.5t54 131.5t90.5 112.5t133 78t175 29.5q96 0 175.5 -29.5t131 -78t87 -112.5t51 -130.5t15.5 -134.5t-16.5 -135t-53 -130t-89 -110.5t-130.5 -76.5t-171 -29q-146 0 -254 65.5t-161.5 173t-53.5 240.5zM205 1268q0 55 38.5 94t92.5 39 q56 0 94.5 -38.5t38.5 -94.5q0 -54 -39 -92.5t-94 -38.5q-54 0 -92.5 38.5t-38.5 92.5zM279 469q0 -136 71.5 -216.5t181.5 -80.5q50 0 93 17t79 51.5t57 93.5t21 137q0 79 -22.5 139.5t-59.5 94.5t-79 50.5t-86 16.5q-42 0 -84.5 -16t-82 -49.5t-64.5 -95t-25 -142.5z M604 1268q0 55 38.5 94t92.5 39q55 0 94 -38.5t39 -94.5q0 -54 -39 -92.5t-94 -38.5q-54 0 -92.5 38.5t-38.5 92.5z" />
<glyph unicode="&#xf7;" horiz-adv-x="1001" d="M41 600v186h920v-186h-920zM360 334q0 58 41.5 98.5t98.5 40.5q58 0 98.5 -40.5t40.5 -98.5q0 -57 -40.5 -98t-98.5 -41q-57 0 -98.5 41t-41.5 98zM360 1055q0 58 41.5 98.5t98.5 40.5q58 0 98.5 -40t40.5 -99q0 -57 -40.5 -98.5t-98.5 -41.5q-57 0 -98.5 41.5 t-41.5 98.5z" />
<glyph unicode="&#xf8;" horiz-adv-x="1060" d="M25 59l120 123q-79 122 -79 287q0 68 16.5 135.5t54 131.5t90.5 112.5t133 78t175 29.5q163 0 276 -82l107 111l104 -100l-113 -117q86 -131 86 -297q0 -68 -16.5 -135t-53 -130t-89 -110.5t-130.5 -76.5t-171 -29q-171 0 -289 88l-115 -117zM279 469q0 -67 24 -127 l365 389q-58 41 -133 41q-42 0 -84.5 -16t-82 -49.5t-64.5 -95t-25 -142.5zM385 219q61 -47 147 -47q50 0 93 17t79 51.5t57 93.5t21 137q0 81 -28 139z" />
<glyph unicode="&#xf9;" horiz-adv-x="1062" d="M125 258v684h205v-637q0 -133 133 -133q108 0 256 129v641h205v-942h-205v109q-62 -53 -136.5 -87t-148.5 -34q-142 0 -225.5 72.5t-83.5 197.5zM211 1290l127 150l326 -285l-103 -115z" />
<glyph unicode="&#xfa;" horiz-adv-x="1062" d="M125 258v684h205v-637q0 -133 133 -133q108 0 256 129v641h205v-942h-205v109q-62 -53 -136.5 -87t-148.5 -34q-142 0 -225.5 72.5t-83.5 197.5zM303 1176l328 284l125 -147l-350 -252z" />
<glyph unicode="&#xfb;" horiz-adv-x="1062" d="M125 258v684h205v-637q0 -133 133 -133q108 0 256 129v641h205v-942h-205v109q-62 -53 -136.5 -87t-148.5 -34q-142 0 -225.5 72.5t-83.5 197.5zM178 1190l338 252l334 -252l-127 -129l-209 174l-209 -174z" />
<glyph unicode="&#xfc;" horiz-adv-x="1062" d="M125 258v684h205v-637q0 -133 133 -133q108 0 256 129v641h205v-942h-205v109q-62 -53 -136.5 -87t-148.5 -34q-142 0 -225.5 72.5t-83.5 197.5zM190 1268q0 55 39 94t93 39q56 0 94.5 -38.5t38.5 -94.5q0 -54 -39 -92.5t-94 -38.5q-54 0 -93 38.5t-39 92.5zM590 1268 q0 55 38.5 94t92.5 39q55 0 94 -38.5t39 -94.5q0 -54 -39 -92.5t-94 -38.5q-54 0 -92.5 38.5t-38.5 92.5z" />
<glyph unicode="&#xfd;" horiz-adv-x="966" d="M14 -301q27 -2 76 -2q79 0 137.5 44t87.5 116l62 151l-363 899l211 47l262 -702l271 704l198 -47l-450 -1099q-124 -299 -393 -299q-47 0 -99 6v182zM293 1176l328 284l124 -147l-350 -252z" />
<glyph unicode="&#xfe;" horiz-adv-x="1103" d="M152 -446v1923h204v-621q44 27 73.5 43.5t87 35.5t110.5 19q100 0 179 -38.5t128 -105t74.5 -152t25.5 -183.5q0 -92 -27.5 -178t-78.5 -155.5t-132.5 -111.5t-181.5 -42q-138 0 -260 104v-538h-202zM356 279q59 -49 116.5 -78t127.5 -29q106 0 166.5 87t60.5 212 q0 129 -57 214t-166 85q-128 0 -248 -96v-395z" />
<glyph unicode="&#xff;" horiz-adv-x="966" d="M14 -301q27 -2 76 -2q79 0 137.5 44t87.5 116l62 151l-363 899l211 47l262 -702l271 704l198 -47l-450 -1099q-124 -299 -393 -299q-47 0 -99 6v182zM158 1268q0 55 38.5 94t92.5 39q55 0 94 -38.5t39 -94.5q0 -54 -39 -92.5t-94 -38.5q-54 0 -92.5 38.5t-38.5 92.5z M557 1268q0 55 38.5 94t92.5 39q56 0 94.5 -38.5t38.5 -94.5q0 -54 -39 -92.5t-94 -38.5q-54 0 -92.5 38.5t-38.5 92.5z" />
<glyph unicode="&#x152;" horiz-adv-x="1835" d="M84 705q0 148 49.5 278t139.5 227t225 153t297 56q65 0 133 -10h819v-197h-606v-395h561v-192h-561v-428h606v-197h-807q-70 -12 -147 -12q-208 0 -369.5 89.5t-250.5 253t-89 374.5zM309 705q0 -100 31.5 -193t89.5 -166.5t150 -117.5t204 -44q66 0 136 17v1007 q-66 17 -127 17q-114 0 -206.5 -41t-152.5 -112t-92.5 -165t-32.5 -202z" />
<glyph unicode="&#x153;" horiz-adv-x="1650" d="M61 469q0 68 16.5 135.5t54 131.5t90.5 112.5t133 78t175 29.5q230 0 355 -163q119 161 336 161q123 0 208.5 -58.5t124.5 -153t39 -216.5v-112h-602q8 -106 76.5 -177t173.5 -71q113 0 238 51l69 -158q-142 -71 -313 -71q-237 0 -358 159q-126 -157 -347 -157 q-146 0 -254 65.5t-161.5 173t-53.5 240.5zM274 469q0 -136 72 -216.5t182 -80.5q42 0 83.5 15.5t80 48t62.5 93.5t24 142q0 79 -22.5 139.5t-60 94.5t-79.5 50.5t-86 16.5q-42 0 -84.5 -16t-82 -49.5t-64.5 -95t-25 -142.5zM993 563h398q0 60 -18 109t-61 82.5t-104 33.5 q-50 0 -90.5 -21t-65 -55.5t-39 -71.5t-20.5 -77z" />
<glyph unicode="&#x178;" horiz-adv-x="1206" d="M16 1358l226 63l372 -587l377 587l215 -65l-487 -725v-631h-223v631zM283 1626q0 55 38.5 94t92.5 39q56 0 94.5 -38.5t38.5 -94.5q0 -54 -39 -92.5t-94 -38.5q-54 0 -92.5 38.5t-38.5 92.5zM682 1626q0 55 38.5 94t92.5 39q55 0 94 -38.5t39 -94.5q0 -54 -39 -92.5 t-94 -38.5q-54 0 -92.5 38.5t-38.5 92.5z" />
<glyph unicode="&#x2c6;" horiz-adv-x="761" d="M45 1190l338 252l334 -252l-127 -129l-209 174l-209 -174z" />
<glyph unicode="&#x2dc;" horiz-adv-x="804" d="M35 1245q35 68 104 114t142 46q37 0 80.5 -24.5t82 -49t64.5 -24.5q45 0 72 17t63 58l117 -88q-100 -170 -256 -170q-31 0 -64.5 15t-57.5 33.5t-53 33.5t-53 15q-32 0 -56 -9.5t-35 -19t-38 -37.5q-7 -6 -10 -10z" />
<glyph unicode="&#x2000;" horiz-adv-x="922" />
<glyph unicode="&#x2001;" horiz-adv-x="1845" />
<glyph unicode="&#x2002;" horiz-adv-x="922" />
<glyph unicode="&#x2003;" horiz-adv-x="1845" />
<glyph unicode="&#x2004;" horiz-adv-x="615" />
<glyph unicode="&#x2005;" horiz-adv-x="461" />
<glyph unicode="&#x2006;" horiz-adv-x="307" />
<glyph unicode="&#x2007;" horiz-adv-x="307" />
<glyph unicode="&#x2008;" horiz-adv-x="230" />
<glyph unicode="&#x2009;" horiz-adv-x="369" />
<glyph unicode="&#x200a;" horiz-adv-x="102" />
<glyph unicode="&#x2010;" horiz-adv-x="610" d="M33 430v197h542v-197h-542z" />
<glyph unicode="&#x2011;" horiz-adv-x="610" d="M33 430v197h542v-197h-542z" />
<glyph unicode="&#x2012;" horiz-adv-x="610" d="M33 430v197h542v-197h-542z" />
<glyph unicode="&#x2013;" horiz-adv-x="1024" d="M61 385v172h902v-172h-902z" />
<glyph unicode="&#x2014;" horiz-adv-x="2048" d="M61 385v172h1926v-172h-1926z" />
<glyph unicode="&#x2018;" horiz-adv-x="430" d="M41 1079l174 404h174l-147 -404h-201z" />
<glyph unicode="&#x2019;" horiz-adv-x="430" d="M41 1077l147 404h201l-174 -404h-174z" />
<glyph unicode="&#x201a;" horiz-adv-x="475" d="M43 -209l147 404h201l-174 -404h-174z" />
<glyph unicode="&#x201c;" horiz-adv-x="761" d="M41 1079l174 404h174l-147 -404h-201zM373 1079l174 404h174l-148 -404h-200z" />
<glyph unicode="&#x201d;" horiz-adv-x="761" d="M41 1077l147 404h201l-174 -404h-174zM373 1077l147 404h201l-174 -404h-174z" />
<glyph unicode="&#x201e;" horiz-adv-x="827" d="M43 -209l147 404h201l-174 -404h-174zM395 -209l148 404h200l-174 -404h-174z" />
<glyph unicode="&#x2022;" horiz-adv-x="995" d="M197 604q0 124 88.5 212.5t212.5 88.5t212.5 -88.5t88.5 -212.5q0 -123 -88.5 -211t-212.5 -88t-212.5 88t-88.5 211z" />
<glyph unicode="&#x2026;" horiz-adv-x="1536" d="M135 127q0 57 41 96t98 39t96.5 -39t39.5 -96q0 -58 -39.5 -98.5t-96.5 -40.5t-98 40.5t-41 98.5zM631 127q0 57 40 96t97 39t97 -39t40 -96q0 -58 -40 -98.5t-97 -40.5t-97 40.5t-40 98.5zM1126 127q0 57 40.5 96t97.5 39t97 -39t40 -96q0 -58 -40 -98.5t-97 -40.5 t-97.5 40.5t-40.5 98.5z" />
<glyph unicode="&#x202f;" horiz-adv-x="369" />
<glyph unicode="&#x2039;" horiz-adv-x="602" d="M102 438l256 361l144 -92l-197 -269l197 -266l-144 -94z" />
<glyph unicode="&#x203a;" horiz-adv-x="602" d="M102 172l195 266l-195 269l140 92l260 -361l-256 -360z" />
<glyph unicode="&#x205f;" horiz-adv-x="461" />
<glyph unicode="&#x20ac;" horiz-adv-x="1054" d="M90 705q0 336 142 526t399 190q203 0 336 -133l-156 -137q-76 72 -188 72q-113 0 -185 -76.5t-100 -218.5h438v-148h-457q-2 -27 -2 -75q0 -60 2 -91h457v-147h-432q27 -136 95.5 -210.5t178.5 -74.5q64 0 123.5 25t94.5 63l149 -125q-143 -157 -362 -157 q-138 0 -241 51.5t-166.5 147t-94.5 225t-31 293.5z" />
<glyph unicode="&#x2122;" horiz-adv-x="1796" d="M45 1262v147h692v-147h-258v-670h-168v670h-266zM772 590l53 819h166l250 -553l277 553h151l39 -819l-162 -2l-22 497l-217 -440h-140l-200 438l-31 -495z" />
<glyph unicode="&#x25fc;" horiz-adv-x="952" d="M0 0v952h952v-952h-952z" />
<glyph unicode="&#xfb01;" horiz-adv-x="1191" d="M37 768v174h176v258q0 126 74 207.5t215 81.5q29 0 55 -2t48 -5.5t38 -7t32.5 -9.5t24.5 -9t21.5 -9t15.5 -7l-63 -158q-72 29 -135 29q-48 0 -84.5 -27.5t-36.5 -95.5v-246h590v-942h-205v768h-385v-768h-205v768h-176zM772 1264q0 55 38.5 94t92.5 39q55 0 94 -38.5 t39 -94.5q0 -54 -39 -92.5t-94 -38.5q-54 0 -92.5 38.5t-38.5 92.5z" />
<glyph unicode="&#xfb02;" horiz-adv-x="1173" d="M37 768v174h176v258q0 126 74 207.5t215 81.5q36 0 68.5 -3t54.5 -7t44.5 -11t33 -11t25.5 -11t17 -8l-63 -158q-73 31 -143 31q-48 0 -84.5 -27.5t-36.5 -95.5v-246h227v-174h-227v-768h-205v768h-176zM829 0v1477h205v-1477h-205z" />
</font>
</defs>
</svg>
