<?xml version="1.0" standalone="no"?>
<!DOCTYPE svg PUBLIC "-//W3C//DTD SVG 1.1//EN" "http://www.w3.org/Graphics/SVG/1.1/DTD/svg11.dtd" >
<svg xmlns="http://www.w3.org/2000/svg">
<metadata></metadata>
<defs>
<font id="jigsawlight" horiz-adv-x="1024" >
<font-face units-per-em="2048" ascent="1638" descent="-410" />
<missing-glyph horiz-adv-x="368" />
<glyph horiz-adv-x="2048" />
<glyph horiz-adv-x="2048" />
<glyph unicode="&#xd;" horiz-adv-x="2048" />
<glyph unicode=" "  horiz-adv-x="368" />
<glyph unicode="&#x09;" horiz-adv-x="368" />
<glyph unicode="&#xa0;" horiz-adv-x="368" />
<glyph unicode="!" horiz-adv-x="593" d="M205 80q0 38 27 65t65 27t65 -27t27 -65t-27 -65t-65 -27t-65 27t-27 65zM231 326v1083h131v-1083h-131z" />
<glyph unicode="&#x22;" horiz-adv-x="585" d="M102 1477h140l-21 -349h-96zM342 1477h141l-22 -349h-96z" />
<glyph unicode="#" horiz-adv-x="1316" d="M143 432v117h213l43 323h-204v117h219l55 420h123l-57 -420h323l55 420h121l-57 -420h197v-117h-211l-41 -323h202v-117h-221l-57 -432h-125l57 432h-317l-60 -432h-120l57 432h-195zM477 549h322l41 323h-322z" />
<glyph unicode="$" horiz-adv-x="968" d="M102 129l82 94q55 -55 123 -81.5t127 -30.5v575q-54 26 -89.5 45t-74.5 45.5t-62.5 54.5t-44 65t-29.5 83.5t-9 103.5q0 123 90 216.5t219 115.5v125h101v-119q79 -2 147 -23.5t162 -82.5l-74 -105q-83 54 -131 70t-104 16v-516q49 -23 76.5 -37t68 -38t63 -44.5 t49.5 -51.5t41 -64.5t23.5 -78.5t9.5 -97q0 -141 -94.5 -246.5t-236.5 -128.5v-131h-101v125q-88 4 -170 32.5t-162 108.5zM258 1073q0 -93 45 -147t131 -99v459q-72 -21 -124 -73.5t-52 -139.5zM535 121q89 22 143.5 85.5t54.5 153.5q0 56 -14.5 100t-43.5 76.5t-61.5 55.5 t-78.5 47v-518z" />
<glyph unicode="%" horiz-adv-x="1513" d="M61 1063q0 161 86.5 259.5t221.5 98.5q133 0 217 -97.5t84 -260.5q0 -162 -85.5 -260t-215.5 -98q-132 0 -220 98t-88 260zM193 1065q0 -111 50 -182.5t124 -71.5t124 70t50 184q0 117 -49 184.5t-123 67.5q-76 0 -126 -67.5t-50 -184.5zM342 -12l694 1489l105 -47 l-697 -1491zM831 346q0 161 87 260t223 99q132 0 216.5 -98.5t84.5 -262.5q0 -162 -86 -259t-217 -97q-132 0 -220 98t-88 260zM963 346q0 -111 50.5 -182.5t123.5 -71.5q74 0 124 70t50 184q0 117 -48 184.5t-124 67.5q-75 0 -125.5 -68t-50.5 -184z" />
<glyph unicode="&#x26;" horiz-adv-x="1349" d="M102 399q0 69 21.5 130.5t52 101t67.5 70t63 44.5t42 19q-211 103 -211 336q0 141 98 231t273 90q84 0 155 -24.5t148 -73.5l-57 -100q-3 2 -27 17t-31.5 19t-31.5 15t-42.5 14.5t-49 7.5t-64.5 4q-99 0 -162 -62t-63 -153q0 -60 21 -106.5t53 -74t75 -45t82 -24t78 -6.5 h696v-122h-223v-707h-131v111q-34 -25 -59 -40.5t-74.5 -38.5t-115.5 -34.5t-146 -11.5q-100 0 -183.5 33t-138.5 90t-85 131.5t-30 158.5zM250 412q0 -138 91 -218.5t210 -80.5q77 0 148 17.5t120.5 45.5t73.5 45t41 33v453h-397q-52 -12 -97 -32.5t-90.5 -54t-72.5 -87.5 t-27 -121z" />
<glyph unicode="'" horiz-adv-x="405" d="M133 1477h139l-20 -349h-96z" />
<glyph unicode="(" horiz-adv-x="755" d="M184 715q0 271 111 519.5t260 356.5l98 -86q-127 -103 -228 -332t-101 -458q0 -119 40.5 -272t118.5 -298.5t170 -212.5l-98 -92q-163 133 -267 376.5t-104 498.5z" />
<glyph unicode=")" horiz-adv-x="755" d="M102 -68q93 67 172 212.5t119.5 298.5t40.5 272q0 228 -102 457.5t-230 332.5l101 86q147 -109 257.5 -357t110.5 -519q0 -255 -103 -498.5t-265 -376.5z" />
<glyph unicode="*" horiz-adv-x="802" d="M82 997v117l227 -8l-119 194l103 58l106 -203l111 205l102 -57l-123 -197l232 8v-117l-232 9l123 -201l-102 -60l-109 207l-108 -204l-103 59l123 197zM309 1053q0 -37 26.5 -63.5t63.5 -26.5t63.5 26.5t26.5 63.5t-26.5 63.5t-63.5 26.5t-63.5 -26.5t-26.5 -63.5z" />
<glyph unicode="+" horiz-adv-x="1001" d="M39 647v123h399v393h125v-393h400v-123h-400v-409h-125v409h-399z" />
<glyph unicode="," horiz-adv-x="409" d="M68 -182l102 354h160l-172 -354h-90z" />
<glyph unicode="-" horiz-adv-x="614" d="M41 467v123h532v-123h-532z" />
<glyph unicode="." horiz-adv-x="409" d="M106 86q0 40 29.5 69t69.5 29t69 -29t29 -69t-29 -69t-69 -29t-69.5 29t-29.5 69z" />
<glyph unicode="/" horiz-adv-x="688" d="M0 -2l571 1452l117 -41l-573 -1452z" />
<glyph unicode="0" d="M61 705q0 340 122 528t335 188q205 0 325 -187.5t120 -531.5q0 -341 -122 -527.5t-325 -186.5q-206 0 -330.5 188t-124.5 529zM199 705q0 -122 17 -225t53 -187.5t98 -133t145 -48.5q67 0 121 31.5t90 85.5t59.5 130.5t34 162t10.5 184.5q0 125 -16.5 228t-52 186.5 t-97 130t-145.5 46.5q-111 0 -183.5 -79t-103 -207.5t-30.5 -304.5z" />
<glyph unicode="1" d="M111 1145l505 264h103v-1409h-131v1255l-418 -217z" />
<glyph unicode="2" d="M57 102q4 4 53 49t97.5 91t121 119.5t134.5 140.5t125.5 146t105.5 145q32 52 50 119t18 124q0 42 -16 86t-47.5 84.5t-87 66t-126.5 25.5q-91 0 -167 -44t-109 -87l-92 93q167 161 381 161q176 0 288.5 -112.5t114.5 -274.5q0 -72 -24.5 -152.5t-65.5 -146.5 q-51 -84 -130 -178.5t-137 -153t-155 -151.5t-127 -123h631v-129h-795z" />
<glyph unicode="3" d="M135 88l58 115q145 -90 282 -90q127 0 198.5 73t71.5 215q0 75 -32 132t-85.5 88.5t-115.5 47t-131 15.5h-55v123h57q57 0 113.5 16t106 47.5t80 84.5t30.5 120q0 93 -63.5 159t-162.5 66q-131 0 -254 -73l-49 96q156 98 303 98q173 0 272 -90.5t99 -240.5 q0 -121 -68.5 -212t-181.5 -120q53 -13 99 -37.5t90 -66.5t70 -110.5t26 -154.5q0 -108 -50.5 -198.5t-151 -147.5t-232.5 -57q-187 0 -324 102z" />
<glyph unicode="4" d="M39 532l629 877h129v-852h172v-125h-172v-432h-133v432h-555zM209 557h455v643z" />
<glyph unicode="5" d="M80 80l63 121q58 -34 142 -63t153 -29q154 0 243 82t89 233q0 91 -26.5 154.5t-75.5 97t-105.5 47.5t-128.5 14q-79 0 -198 -18l-74 80l90 610h596v-131h-486l-65 -430q93 14 158 14q96 0 173.5 -21.5t142 -69t100.5 -133t36 -202.5q0 -80 -29 -157t-84 -143.5 t-146.5 -107t-205.5 -40.5q-202 0 -362 92z" />
<glyph unicode="6" d="M90 504q0 160 52.5 306.5t145.5 264t217.5 208.5t272.5 149l47 -119q-198 -76 -325 -194.5t-221 -313.5q157 33 229 33q183 0 299.5 -115.5t116.5 -298.5q0 -199 -111 -318.5t-299 -119.5q-89 0 -161 26t-120.5 72t-81 111.5t-47 142t-14.5 166.5zM229 477 q0 -69 17 -133.5t50 -119t90 -87.5t130 -33q128 0 198 88t70 222q0 121 -77 211t-195 90q-60 0 -134.5 -12.5t-129.5 -32.5q-19 -90 -19 -193z" />
<glyph unicode="7" d="M133 1257v138h758l61 -105l-598 -1302l-129 41l559 1228h-651z" />
<glyph unicode="8" d="M100 369q0 257 262 372q-227 111 -227 316q0 63 22.5 125t66.5 116.5t120 88.5t172 34q90 0 163.5 -32t118.5 -83.5t69 -113t24 -123.5q0 -119 -67 -205.5t-167 -130.5q50 -18 94 -45.5t85 -69.5t64.5 -103.5t23.5 -135.5q0 -164 -117 -276.5t-295 -112.5 q-168 0 -290 109.5t-122 269.5zM231 383q0 -101 81.5 -189t199.5 -88q120 0 200.5 73t80.5 190q0 54 -17.5 99t-43 75.5t-67.5 57.5t-77.5 42.5t-87.5 34.5q-115 -38 -192 -113t-77 -182zM268 1069q0 -102 71 -167.5t196 -110.5q111 41 166 104.5t55 161.5q0 64 -22.5 114 t-59 78t-77.5 42t-83 14q-60 0 -114 -24t-93 -79.5t-39 -132.5z" />
<glyph unicode="9" d="M98 983q0 199 111 317.5t299 118.5q111 0 194.5 -39t133.5 -109.5t74 -162.5t24 -205q0 -160 -52.5 -306.5t-146 -264t-218.5 -209t-273 -150.5l-47 121q199 76 325 194t221 314q-157 -33 -229 -33q-183 0 -299.5 115.5t-116.5 298.5zM238 993q0 -121 77.5 -211 t196.5 -90q59 0 133 12.5t129 32.5q19 90 19 193q0 69 -17 133t-50 118t-90 86.5t-130 32.5q-127 0 -197.5 -87t-70.5 -220z" />
<glyph unicode=":" horiz-adv-x="409" d="M102 90q0 43 30 73t73 30t72.5 -30t29.5 -73t-29.5 -72.5t-72.5 -29.5t-73 29.5t-30 72.5zM102 838q0 43 30 72.5t73 29.5t72.5 -29.5t29.5 -72.5q0 -42 -30 -72.5t-72 -30.5t-72.5 30.5t-30.5 72.5z" />
<glyph unicode=";" horiz-adv-x="409" d="M61 -182l103 354h160l-172 -354h-91zM113 852q0 43 29.5 72.5t70.5 29.5q43 0 72.5 -29.5t29.5 -72.5q0 -42 -30 -72t-72 -30q-41 0 -70.5 30.5t-29.5 71.5z" />
<glyph unicode="&#x3c;" horiz-adv-x="978" d="M143 670l598 512l86 -84l-501 -426l510 -400l-93 -86z" />
<glyph unicode="=" horiz-adv-x="1142" d="M143 475v117h856v-117h-856zM143 801v117h856v-117h-856z" />
<glyph unicode="&#x3e;" horiz-adv-x="978" d="M143 272l510 398l-501 426l86 86l598 -510l-603 -486z" />
<glyph unicode="?" horiz-adv-x="817" d="M205 80q0 38 27 65t65 27t65 -27t27 -65t-27 -65t-65 -27t-65 27t-27 65zM236 330v381q148 0 233.5 72t85.5 214q0 147 -86.5 222t-232.5 75v125q208 0 333 -107t125 -315q0 -72 -17 -132t-43.5 -99t-61.5 -69t-67.5 -46t-65 -26t-51 -12.5t-28.5 -2.5v-280h-124z" />
<glyph unicode="@" horiz-adv-x="1630" d="M123 498q0 175 61.5 316.5t164.5 230t233 135.5t272 47q178 0 325.5 -75t237.5 -220t90 -334q0 -99 -13.5 -180t-35.5 -135t-53.5 -95t-63 -63.5t-69.5 -36.5t-67.5 -18t-61.5 -4q-52 0 -107 28.5t-82 63.5q-122 -92 -235 -92q-104 0 -161.5 58t-57.5 146q0 52 19.5 93.5 t49 70t81.5 53t100.5 40t121.5 34.5l74 19v67q0 144 -143 144q-38 0 -84.5 -20.5t-71 -38.5t-43.5 -34l-65 82q29 23 48.5 37t57.5 36.5t80.5 34t87.5 11.5q248 0 248 -231v-449q42 -47 90 -47q23 0 44.5 5.5t50 19.5t51.5 44t43.5 74t32 115.5t11.5 161.5 q0 142 -67.5 261.5t-189.5 190t-271 70.5q-270 0 -439 -169t-169 -435q0 -64 11.5 -131.5t36.5 -142.5t69.5 -140.5t104.5 -119t149 -84.5t196 -31q27 0 50.5 2t39 4t32.5 6t24.5 6.5t21.5 8t18 6.5l43 -103q-40 -16 -105 -30.5t-120 -14.5q-106 0 -206.5 30t-189.5 92.5 t-156 150.5t-105.5 211.5t-38.5 267.5zM621 287q0 -111 116 -111q72 0 207 94v205l-59 -14q-264 -66 -264 -174z" />
<glyph unicode="A" horiz-adv-x="1265" d="M41 25l551 1384h94l539 -1380l-129 -41l-185 475h-561l-190 -479zM399 586h463l-231 594z" />
<glyph unicode="B" horiz-adv-x="1081" d="M184 0v1409h363q43 0 85.5 -6.5t95.5 -28t92 -56.5t66 -99t27 -148q0 -207 -193 -310q-4 -2 -5 -3q19 -5 45 -19t60 -42.5t61.5 -65.5t47 -93t19.5 -120q0 -418 -489 -418h-275zM315 123h125q82 0 145 13.5t115.5 45t80.5 91t28 145.5q0 120 -89 194t-228 74h-177v-563z M315 811h138q86 0 150.5 21.5t101.5 58.5t55 82.5t18 99.5q0 62 -22 105t-62.5 65.5t-86.5 31.5t-105 9h-187v-473z" />
<glyph unicode="C" horiz-adv-x="1122" d="M102 705q0 162 58.5 299t155 227t218.5 140t252 50q98 0 179.5 -21t126.5 -52l-58 -115q-39 23 -111 43t-159 20q-53 0 -111.5 -16.5t-117.5 -47.5t-111.5 -81.5t-94 -113.5t-65.5 -149t-24 -183q0 -166 70 -302t190 -213t264 -77q80 0 156 18t118 37l54 -111 q-123 -69 -328 -69q-97 0 -191.5 28.5t-179.5 88t-150 143t-103 202t-38 255.5z" />
<glyph unicode="D" horiz-adv-x="1417" d="M184 0v1409h471q149 0 266.5 -42t190 -109.5t119.5 -159.5t65.5 -183.5t18.5 -189.5q0 -205 -89 -371t-246 -260t-351 -94h-445zM315 123h273q71 0 144.5 16t155 59.5t144 109.5t103.5 177t41 252q0 109 -25.5 197t-64 143.5t-95.5 97t-107 61.5t-112.5 32t-97.5 14 t-76 2h-283v-1161z" />
<glyph unicode="E" horiz-adv-x="1017" d="M184 0v1409h738v-125h-607v-498h562v-122h-562v-541h607v-123h-738z" />
<glyph unicode="F" horiz-adv-x="983" d="M184 0v1409h738v-125h-607v-498h562v-122h-562v-664h-131z" />
<glyph unicode="G" horiz-adv-x="1347" d="M102 690q0 194 91 361.5t253 268.5t357 101q229 0 383 -94l-66 -104q-121 73 -319 73q-123 0 -228.5 -49.5t-177.5 -132.5t-112.5 -193t-40.5 -229q0 -117 37 -222t104 -185t169 -127t224 -47q97 0 184.5 26t133.5 68v373h-371v122h502v-550q-82 -75 -208.5 -118.5 t-244.5 -43.5q-192 0 -347 97t-239 257t-84 348z" />
<glyph unicode="H" horiz-adv-x="1413" d="M184 0v1409h133v-614h781v614h131v-1409h-131v670h-781v-670h-133z" />
<glyph unicode="I" horiz-adv-x="499" d="M184 0v1409h131v-1409h-131z" />
<glyph unicode="J" horiz-adv-x="499" d="M-168 -315q55 0 104 12t95 41t79.5 74t53.5 115t20 159v1323h131v-1352q0 -236 -128.5 -363.5t-354.5 -127.5v119z" />
<glyph unicode="K" horiz-adv-x="1175" d="M184 0v1409h133v-1409h-133zM340 752l655 671l109 -73l-584 -590l615 -692l-111 -80z" />
<glyph unicode="L" horiz-adv-x="958" d="M184 0v1409h131v-1284h623v-125h-754z" />
<glyph unicode="M" horiz-adv-x="1785" d="M164 -4l82 1413h164l479 -1163l528 1163h144l61 -1413l-131 -8l-51 1194l-482 -1080l-143 -2l-453 1088l-65 -1200z" />
<glyph unicode="N" horiz-adv-x="1517" d="M184 0v1409h160l856 -1231v1231h133v-1409h-166l-850 1225v-1225h-133z" />
<glyph unicode="O" horiz-adv-x="1576" d="M102 705q0 149 49 280t137.5 227.5t219 152.5t285.5 56q196 0 353.5 -98t243 -260.5t85.5 -355.5q0 -211 -88 -375t-243.5 -254t-352.5 -90q-201 0 -358.5 91.5t-244 255t-86.5 370.5zM238 705q0 -112 37 -217t104.5 -189t173 -135t231.5 -51q168 0 296.5 82t194.5 215.5 t66 294.5q0 120 -37.5 227t-106.5 188t-174 128.5t-232 47.5q-169 0 -296.5 -82t-192 -215t-64.5 -294z" />
<glyph unicode="P" horiz-adv-x="1021" d="M184 0v1409h355q58 0 111 -9.5t107.5 -34.5t93.5 -64.5t64 -104.5t25 -149q0 -83 -30.5 -160t-87.5 -139.5t-149 -100t-204 -37.5h-154v-610h-131zM315 733h125q84 0 149.5 20t105 51.5t64.5 74.5t34.5 84t9.5 86q0 68 -22.5 115t-65.5 72.5t-94.5 36.5t-118.5 11h-187 v-551z" />
<glyph unicode="Q" horiz-adv-x="1576" d="M102 705q0 149 49 280t137.5 227.5t219 152.5t285.5 56q196 0 353.5 -98t243 -260.5t85.5 -355.5q0 -197 -79 -357t-220 -246l366 5v-121l-571 10q-166 -10 -180 -10q-201 0 -358.5 91.5t-244 255t-86.5 370.5zM238 705q0 -112 37 -217t104.5 -189t173 -135t231.5 -51 q168 0 296.5 82t194.5 215.5t66 294.5q0 120 -37.5 227t-106.5 188t-174 128.5t-232 47.5q-169 0 -296.5 -82t-192 -215t-64.5 -294z" />
<glyph unicode="R" horiz-adv-x="1048" d="M184 0v1409h344q152 0 241 -44q167 -82 167 -304q0 -162 -101 -269.5t-241 -138.5l414 -612l-125 -59l-430 657h-136v-639h-133zM317 764h115q93 0 162 20.5t107 51t60.5 73.5t29 78.5t6.5 75.5q0 59 -19.5 101.5t-48.5 65.5t-73.5 36t-81 16.5t-85.5 3.5h-172v-522z" />
<glyph unicode="S" horiz-adv-x="968" d="M102 129l82 94q59 -59 134.5 -85.5t134.5 -26.5q118 0 199 69.5t81 179.5q0 40 -8 74t-21.5 60t-35 49t-43 40t-52 34.5t-57 30t-61.5 28.5q-21 9 -31 14q-62 29 -102 52t-81 57t-64 72t-37.5 91.5t-14.5 120.5q0 140 113.5 239t263.5 99q96 0 166.5 -19.5t175.5 -86.5 l-74 -105q-66 44 -117 63.5t-73 21t-82 1.5q-26 0 -56 -7t-63 -24.5t-59.5 -42t-44 -63.5t-17.5 -86q0 -34 7 -63.5t17 -51t30 -43t36 -34.5t45.5 -30t47.5 -26t53 -26q151 -70 202 -104q122 -80 155 -202q15 -56 15 -124q0 -159 -117.5 -270t-285.5 -111q-60 0 -107.5 6.5 t-120 40t-133.5 94.5z" />
<glyph unicode="T" horiz-adv-x="1017" d="M-10 1284v125h1038v-125h-448v-1284h-134v1284h-456z" />
<glyph unicode="U" horiz-adv-x="1351" d="M154 449v960h133v-940q0 -165 110.5 -260.5t288.5 -95.5q173 0 276 89.5t103 282.5v924h133v-956q0 -147 -72 -255t-188 -160t-258 -52q-234 0 -380 126t-146 337z" />
<glyph unicode="V" horiz-adv-x="1265" d="M41 1380l129 41l463 -1188l473 1192l119 -41l-545 -1384h-102z" />
<glyph unicode="W" horiz-adv-x="1820" d="M41 1384l131 35l356 -1149l338 1139h92l351 -1151l350 1163l121 -32l-428 -1389h-95l-348 1151l-338 -1151h-94z" />
<glyph unicode="X" horiz-adv-x="1140" d="M41 47l451 658l-449 653l115 63l413 -602l414 602l105 -63l-445 -647l455 -660l-117 -63l-416 606l-417 -606z" />
<glyph unicode="Y" horiz-adv-x="1064" d="M0 1356l109 63l426 -614l423 614l107 -67l-467 -680v-672h-131v672z" />
<glyph unicode="Z" horiz-adv-x="1159" d="M72 104l833 1170h-809v123h942l49 -92l-841 -1182h827v-123h-948z" />
<glyph unicode="[" horiz-adv-x="557" d="M143 -131v1690h373v-111h-248v-1468h248v-111h-373z" />
<glyph unicode="\" horiz-adv-x="686" d="M0 1409l115 41l573 -1452l-115 -41z" />
<glyph unicode="]" horiz-adv-x="557" d="M41 -20h246v1468h-246v111h373v-1690h-373v111z" />
<glyph unicode="^" horiz-adv-x="1206" d="M86 539l436 847h166l432 -847h-141l-377 739l-381 -739h-135z" />
<glyph unicode="_" d="M0 -193h1024v-114h-1024v114z" />
<glyph unicode="`" horiz-adv-x="526" d="M82 1325l92 96l270 -282l-65 -66z" />
<glyph unicode="a" horiz-adv-x="899" d="M88 221q0 59 21.5 105.5t54.5 78.5t92.5 60t114 46t141.5 42l90 25v90q0 174 -174 174q-99 0 -227 -107l-72 88q2 2 23 19.5t35 28t43.5 28.5t56 28.5t64.5 18.5t77 8q131 0 214 -65.5t83 -198.5v-522l113 -100l-84 -93l-138 127q-155 -114 -284 -114q-117 0 -180.5 66.5 t-63.5 166.5zM213 231q0 -73 38 -106t99 -33q89 0 252 117v264l-76 -20q-67 -18 -117.5 -37t-97.5 -45.5t-72.5 -62t-25.5 -77.5z" />
<glyph unicode="b" horiz-adv-x="1056" d="M164 0v1477h123v-648q1 0 38.5 26.5t68.5 44.5t85.5 36t106.5 18q82 0 149.5 -29t111 -76t73 -110.5t42.5 -129.5t13 -136q0 -85 -25 -168.5t-73 -155.5t-128.5 -116.5t-181.5 -44.5q-59 0 -118.5 23.5t-89 44.5t-64.5 50q-6 5 -8 7v-113h-123zM287 246q1 -1 23 -21.5 t30.5 -27.5t32 -26t41 -27.5t42.5 -20t52 -16.5t55 -5q123 0 206 101.5t83 267.5q0 167 -73 267t-199 100q-145 0 -283 -133q-9 -8 -10 -9v-450z" />
<glyph unicode="c" horiz-adv-x="847" d="M92 471q0 112 37.5 205t100.5 153t141.5 92.5t163.5 32.5q154 0 274 -82q-59 -102 -59 -104q-41 30 -98 50t-111 20q-140 0 -231 -103t-91 -272q0 -171 92 -266t224 -95q120 0 231 78l61 -104q-145 -88 -299 -88q-132 0 -232.5 67.5t-152 176.5t-51.5 239z" />
<glyph unicode="d" horiz-adv-x="1056" d="M82 473q0 69 13 135.5t43 130t73.5 110.5t110.5 76t149 29q52 0 106.5 -17.5t86.5 -36.5t68.5 -44t39.5 -27v648h121v-1477h-121v113q-1 -1 -19 -14.5t-24 -17.5t-25.5 -17.5t-30.5 -19t-31 -16.5t-36 -16.5t-36.5 -12t-40.5 -9t-40 -2.5q-81 0 -149.5 29.5t-115 78 t-79.5 112t-48 131t-15 134.5zM207 471q0 -167 82 -268t205 -101q23 0 47.5 5t43.5 11.5t41.5 18.5t37 21t34.5 25t28.5 23t25.5 22.5t20 17.5v450q-2 2 -16.5 15.5t-23.5 21t-28.5 22.5t-35 24.5t-39 22t-46 19.5t-50.5 12t-56 5q-126 0 -198 -99.5t-72 -267.5z" />
<glyph unicode="e" horiz-adv-x="905" d="M86 461q0 136 46 246t142.5 178.5t229.5 68.5q91 0 159 -32t107.5 -89t58.5 -129.5t19 -160.5v-74h-635q0 -74 19 -138.5t56.5 -116t98.5 -81t139 -29.5q67 0 130 21.5t104 50.5q0 1 15 -25.5t29 -53.5l15 -27q-135 -82 -301 -82q-136 0 -235.5 65t-148 171t-48.5 237z M225 580h494q0 108 -56.5 183t-160.5 75q-61 0 -112.5 -25t-84.5 -65t-53 -82.5t-27 -85.5z" />
<glyph unicode="f" horiz-adv-x="575" d="M63 827v115h164v295q0 112 65.5 183t176.5 71q52 0 99 -10.5t68 -21.5l21 -11l-49 -107q-53 35 -133 35q-18 0 -37.5 -6.5t-41 -21.5t-35 -47t-13.5 -76v-283h227v-113h-225v-829h-123v827h-164z" />
<glyph unicode="g" horiz-adv-x="935" d="M41 -154q0 59 20 110.5t52.5 86.5t70.5 62.5t77 43t69.5 23.5t50.5 8v137q-116 21 -195.5 110t-79.5 206q0 132 98.5 226.5t231.5 94.5q94 0 176 -53l303 51v-123h-219q70 -90 70 -196q0 -121 -80 -209t-199 -107v-137q28 0 69 -10.5t92 -36t93.5 -61.5t71.5 -95.5 t29 -130.5q0 -136 -117.5 -235.5t-286.5 -99.5q-86 0 -161.5 28.5t-126 75.5t-80 107.5t-29.5 123.5zM166 -152q0 -96 81.5 -165.5t190.5 -69.5q111 0 194 69.5t83 165.5q0 98 -82 168t-193 70q-110 0 -192 -70.5t-82 -167.5zM227 633q0 -88 61.5 -149.5t147.5 -61.5 t146.5 61.5t60.5 149.5t-60.5 150.5t-146.5 62.5t-147.5 -62.5t-61.5 -150.5z" />
<glyph unicode="h" horiz-adv-x="1017" d="M164 0v1477h123v-664q60 57 153 99t172 42q113 0 187.5 -66t74.5 -165v-723h-120v666q0 89 -45.5 128.5t-118.5 39.5q-135 0 -303 -168v-666h-123z" />
<glyph unicode="i" horiz-adv-x="512" d="M164 1247q0 38 27 65t65 27t65 -27t27 -65t-27 -66t-65 -28t-65 28t-27 66zM193 0v942h124v-942h-124z" />
<glyph unicode="j" horiz-adv-x="512" d="M-25 -385q218 146 218 424v903h122v-934q0 -151 -70 -272.5t-200 -206.5zM162 1247q0 38 27 65t65 27t66 -27t28 -65t-28 -66t-66 -28t-65 28t-27 66z" />
<glyph unicode="k" horiz-adv-x="911" d="M164 0v1477h123v-1477h-123zM297 532l463 422l90 -77l-401 -349l428 -475l-105 -67z" />
<glyph unicode="l" horiz-adv-x="450" d="M164 0v1477h123v-1477h-123z" />
<glyph unicode="m" horiz-adv-x="1544" d="M164 0v942h123v-129q80 71 166 106t149 35q94 0 152 -40t80 -105q159 143 321 143q122 0 184 -65.5t62 -155.5v-731h-123v705q0 38 -13 65t-34.5 40.5t-42.5 19.5t-43 6q-58 0 -125.5 -34t-108.5 -68t-63 -60v-674h-125v705q0 49 -23.5 80.5t-51 41t-56.5 9.5 q-49 0 -104.5 -22.5t-97 -52.5t-69.5 -54.5t-34 -34.5v-672h-123z" />
<glyph unicode="n" horiz-adv-x="1017" d="M164 0v942h123v-131q64 59 147 101t162 42q140 0 209 -69.5t69 -173.5v-711h-122v666q0 88 -45 130t-117 42q-49 0 -104.5 -22.5t-96.5 -52.5t-68.5 -54.5t-33.5 -34.5v-674h-123z" />
<glyph unicode="o" horiz-adv-x="1034" d="M72 469q0 64 16.5 129.5t52.5 129.5t86.5 114t126.5 81t166 31t165.5 -30.5t126 -80t85.5 -114t50.5 -129.5t15.5 -129t-15.5 -129t-50.5 -129.5t-85 -114t-125 -80t-165 -30.5q-93 0 -170 29.5t-128 78t-86 112t-50.5 129.5t-15.5 132zM201 469q0 -94 30.5 -168 t79 -115.5t101.5 -62.5t106 -21q51 0 103.5 20t101.5 61t80 116t31 172q0 76 -20 139t-51.5 104.5t-73 70t-83.5 41t-84 12.5q-40 0 -82 -11.5t-85.5 -39.5t-77 -69t-55 -105.5t-21.5 -143.5z" />
<glyph unicode="p" horiz-adv-x="1056" d="M164 -489v1431h123v-113q1 0 38.5 26.5t68.5 44.5t85.5 36t106.5 18q82 0 149.5 -29t111 -76t73 -110.5t42.5 -129.5t13 -136q0 -85 -25 -168.5t-73 -155.5t-128.5 -116.5t-181.5 -44.5q-46 0 -91 12t-86.5 36t-57.5 35t-45 33v-593h-123zM287 236q147 -134 276 -134 q123 0 206 101.5t83 267.5q0 167 -73 267t-199 100q-145 0 -283 -133q-9 -8 -10 -9v-460z" />
<glyph unicode="q" horiz-adv-x="1056" d="M82 473q0 69 13 135.5t43 130t73.5 110.5t110.5 76t149 29q52 0 106.5 -17.5t86.5 -36.5t68.5 -44t39.5 -27v113h121v-1431h-121v602q-1 -1 -19 -14.5t-24 -17.5t-25.5 -17.5t-30.5 -19t-31 -16.5t-36 -16.5t-36.5 -12t-40.5 -9t-40 -2.5q-81 0 -149.5 29.5t-115 78 t-79.5 112t-48 131t-15 134.5zM207 471q0 -167 82 -268t205 -101q23 0 47.5 5t43.5 11.5t41.5 18.5t37 21t34.5 25t28.5 23t25.5 22.5t20 17.5v450q-2 2 -16.5 15.5t-23.5 21t-28.5 22.5t-35 24.5t-39 22t-46 19.5t-50.5 12t-56 5q-126 0 -198 -99.5t-72 -267.5z" />
<glyph unicode="r" horiz-adv-x="679" d="M166 0v942h123v-133q14 16 33.5 35t53.5 46.5t75 45.5t79 18q16 0 30.5 -1t24.5 -2t22.5 -3.5t18.5 -4t16.5 -5.5t13.5 -5t14 -5.5t12 -5.5l-51 -121q-58 28 -119 28q-57 0 -123 -50t-100 -107v-672h-123z" />
<glyph unicode="s" horiz-adv-x="716" d="M92 57l60 105q83 -60 188 -60q70 0 117 40t47 106q0 68 -50 112t-155 95q-106 54 -153.5 110.5t-47.5 153.5q0 74 44 129.5t104 80.5t123 25q141 0 233 -67l-57 -101q-27 21 -76.5 36.5t-97.5 15.5q-61 0 -104.5 -32t-43.5 -85q0 -20 3.5 -36.5t13 -31t16 -23.5t24 -21.5 t25.5 -17.5t32 -18t32 -18t42 -23t46.5 -25t42 -26.5t43 -32.5t34 -36.5t30 -46t17 -53t7.5 -64.5q0 -120 -89 -190t-198 -70q-154 0 -252 69z" />
<glyph unicode="t" horiz-adv-x="636" d="M51 827v115h162v176h123v-176h248v-115h-246v-573q0 -49 9 -82t25 -47t30.5 -18.5t33.5 -4.5q36 0 69 9.5t49 18.5l15 9l47 -102q-8 -5 -22.5 -13.5t-63 -22t-100.5 -13.5q-112 0 -163.5 60t-51.5 185v594h-164z" />
<glyph unicode="u" horiz-adv-x="1007" d="M143 231v711h123v-666q0 -90 45 -131t119 -41q47 0 99.5 21.5t91.5 50.5t65.5 53.5t34.5 36.5v676h123v-942h-123v133q-162 -145 -297 -145q-142 0 -211.5 69.5t-69.5 173.5z" />
<glyph unicode="v" horiz-adv-x="880" d="M31 911l112 43l301 -792l299 790l107 -41l-346 -911h-129z" />
<glyph unicode="w" horiz-adv-x="1456" d="M31 913l112 39l265 -782l258 772h127l256 -772l266 782l110 -34l-313 -918h-127l-256 758l-260 -758h-125z" />
<glyph unicode="x" horiz-adv-x="901" d="M31 47l346 438l-326 416l111 51l299 -379l287 381l108 -53l-328 -418l342 -438l-104 -57l-322 411l-313 -411z" />
<glyph unicode="y" horiz-adv-x="923" d="M31 -377q12 -2 37 -2q77 0 140.5 43t92.5 115l111 270l-377 858l115 47l325 -749l307 749l111 -41l-471 -1153q-46 -115 -136.5 -181t-209.5 -66q-31 0 -45 2v108z" />
<glyph unicode="z" horiz-adv-x="811" d="M51 86l524 743h-493v113h618l35 -92l-520 -735h492v-115h-607z" />
<glyph unicode="{" horiz-adv-x="634" d="M55 662v102q61 1 100.5 19.5t58.5 56.5t25.5 80t6.5 106v274q0 256 266 256h57v-118h-53q-41 0 -69 -11.5t-43 -27t-22.5 -46t-9 -54t-1.5 -64.5v-236q0 -119 -33.5 -188t-132.5 -100q53 -10 87.5 -32.5t51 -59.5t22 -74t5.5 -92v-265q0 -46 5 -77t19 -61.5t44.5 -46 t76.5 -15.5h53v-119h-57q-141 0 -203.5 62t-62.5 194v301q0 61 -6.5 99.5t-26.5 71.5t-58.5 48.5t-99.5 16.5z" />
<glyph unicode="|" horiz-adv-x="473" d="M172 -133v1692h121v-1692h-121z" />
<glyph unicode="}" horiz-adv-x="634" d="M66 -12h51q47 0 78 15.5t45 46t19 61.5t5 77v265q0 55 5.5 92t22 74t51 59.5t87.5 32.5q-99 31 -132.5 100t-33.5 188v236q0 29 -0.5 46.5t-3.5 42t-8.5 38.5t-16.5 30.5t-26.5 25t-38.5 14.5t-53 6h-51v118h57q264 0 264 -256v-274q0 -64 6.5 -106t26 -80t59 -56.5 t101.5 -19.5v-102q-62 -1 -101 -16.5t-58.5 -48.5t-26.5 -71.5t-7 -99.5v-301q0 -133 -61.5 -194.5t-202.5 -61.5h-57v119z" />
<glyph unicode="~" horiz-adv-x="1116" d="M41 664q54 77 133 129.5t178 52.5q53 0 113.5 -21.5t105 -48t94.5 -48t85 -21.5q66 0 127.5 34t97.5 88l100 -65q-136 -186 -327 -186q-53 0 -114.5 21.5t-106.5 48t-95.5 48t-85.5 21.5q-52 0 -118 -40t-103 -85z" />
<glyph unicode="&#xa1;" horiz-adv-x="593" d="M205 930q0 38 27 65t65 27t65 -27t27 -65t-27 -65t-65 -27t-65 27t-27 65zM233 -399v1081h132v-1081h-132z" />
<glyph unicode="&#xa2;" horiz-adv-x="847" d="M92 471q0 196 105 321.5t260 153.5v125h100v-119q145 -5 252 -80q-59 -102 -59 -104q-86 64 -193 70v-734q114 8 209 76l61 -104q-134 -80 -270 -88v-125h-100v131q-167 26 -266 161.5t-99 315.5zM219 463q0 -142 67 -233t171 -117v714q-108 -28 -173 -125t-65 -239z" />
<glyph unicode="&#xa3;" horiz-adv-x="962" d="M123 655v125h184q-2 31 -14 109t-12 123q0 184 107.5 295.5t273.5 111.5q139 0 219 -49l-50 -123q-83 45 -165 45q-112 0 -178 -80.5t-66 -189.5q0 -38 5 -77.5t13 -87.5t11 -77h301v-125h-283q13 -197 -4 -266q-16 -58 -27 -91.5t-40 -85t-68 -87.5h592v-125h-795v102 q95 47 153 149.5t58 221.5q0 111 -10 182h-205z" />
<glyph unicode="&#xa4;" horiz-adv-x="968" d="M102 705q0 214 57.5 373.5t176.5 251t287 91.5q64 0 119.5 -14.5t83.5 -30t63 -39.5l-58 -114q-3 2 -21 13t-27.5 16.5t-32 15.5t-41.5 15t-48.5 9t-60.5 4q-138 0 -230 -102.5t-120 -310.5h500v-103h-508q-2 -25 -2 -75q0 -62 2 -91h508v-102h-498q55 -401 348 -401 q34 0 66.5 5.5t64 17t49 19t45.5 22t29 15.5l53 -110q-4 -2 -26 -15t-32.5 -18t-34 -16.5t-43 -17t-47.5 -12.5t-59 -10t-65 -3q-254 0 -376 179.5t-122 537.5z" />
<glyph unicode="&#xa5;" horiz-adv-x="1105" d="M41 1356l109 63l425 -614l424 614l107 -67l-377 -549h289v-107h-379v-151h379v-109h-379v-436h-131v436h-393v109h393v151h-393v107h301z" />
<glyph unicode="&#xa6;" horiz-adv-x="458" d="M156 -131v655h135v-655h-135zM156 903v656h135v-656h-135z" />
<glyph unicode="&#xa7;" horiz-adv-x="888" d="M82 594q0 63 25 121t60.5 94.5t64.5 58.5t47 29q-2 1 -22 13t-30.5 19.5t-31 23.5t-32.5 32.5t-25.5 39.5t-20 52t-6.5 62q0 123 92.5 202.5t251.5 79.5q23 0 45 -1.5t39 -3.5t36.5 -7t31 -7.5t30 -10.5t25.5 -10.5t25 -12.5t21.5 -11.5t23 -13t20.5 -12.5l-74 -104 q-19 12 -24 15.5t-31 16.5t-45.5 19t-52 12t-66.5 6q-90 0 -150.5 -39t-60.5 -112q0 -45 31 -81t80 -62.5t109 -51.5t119.5 -55t108.5 -66t80 -91t31 -124q0 -173 -219 -295q3 -1 30.5 -16t46 -26t48 -35t48 -48.5t32.5 -62t14 -78.5q0 -133 -98.5 -218t-262.5 -85 q-128 0 -206 31.5t-148 89.5l76 100q44 -31 72.5 -48t85.5 -33.5t123 -16.5q87 0 155 44.5t68 121.5q0 48 -32.5 86.5t-84.5 66.5t-115 55t-126 58t-115 68.5t-84.5 94t-32.5 126.5zM215 606q0 -32 15 -61.5t35 -50t52 -40.5t54.5 -31t54.5 -25t41 -19q33 16 64.5 36.5 t64.5 49t53.5 64t20.5 71.5h2q0 34 -16 64.5t-37 51t-57 42t-59.5 32t-61.5 26t-48 20.5q-15 -6 -35 -17.5t-46 -33t-47 -47t-35.5 -60.5t-14.5 -72z" />
<glyph unicode="&#xa8;" horiz-adv-x="595" d="M45 1249q0 38 27 65t65 27t65 -27t27 -65t-27 -65t-65 -27t-65 27t-27 65zM365 1249q0 38 28 65t66 27t65 -27t27 -65t-27 -65t-65 -27t-66 27t-28 65z" />
<glyph unicode="&#xa9;" horiz-adv-x="1630" d="M109 680q0 151 58.5 288.5t157.5 236.5t236.5 157.5t288.5 58.5q150 0 287 -58.5t236 -157.5t157.5 -236.5t58.5 -288.5q0 -150 -58.5 -287t-157.5 -236t-236 -157.5t-287 -58.5q-151 0 -288.5 58.5t-236.5 157.5t-157.5 236t-58.5 287zM233 680q0 -127 49 -243.5 t131.5 -201t197 -134.5t239.5 -50q166 0 307.5 84.5t224 229.5t82.5 315q0 171 -82.5 316.5t-224 230t-307.5 84.5q-125 0 -239.5 -50t-197 -134.5t-131.5 -201.5t-49 -245zM457 684q0 94 35.5 173.5t94.5 132t133.5 81.5t153.5 29q123 0 205 -53l-53 -97q-76 41 -164 41 q-35 0 -73 -11.5t-76 -36.5t-68 -59.5t-48.5 -86.5t-18.5 -113q0 -132 82.5 -219.5t201.5 -87.5q88 0 168 39l49 -97q-90 -51 -217 -51q-54 0 -110.5 17t-109 51.5t-94 83t-66.5 117t-25 147.5z" />
<glyph unicode="&#xaa;" horiz-adv-x="780" d="M102 881q0 28 7 53.5t17.5 45t29.5 37.5t36 31t43.5 25.5t45.5 20t49 17t47.5 14t47.5 12l42 10.5v49q0 57 -26 82t-79 25q-77 0 -163 -86l-76 94q9 6 32 24t32 24l28.5 19t32.5 17.5t32.5 11.5t39 9.5t42.5 2.5q100 0 165 -50.5t65 -156.5v-360l86 -80l-84 -92l-100 92 q-101 -76 -201 -76q-90 0 -140.5 53.5t-50.5 131.5zM227 887q0 -78 80 -78q54 0 160 74v153q-13 -4 -31 -10q-46 -12 -77 -22.5t-64.5 -27t-50.5 -39t-17 -50.5z" />
<glyph unicode="&#xab;" horiz-adv-x="1011" d="M164 438l250 350l98 -63l-209 -287l209 -284l-98 -66zM500 438l250 350l98 -63l-209 -287l209 -284l-98 -66z" />
<glyph unicode="&#xac;" horiz-adv-x="993" d="M66 643v123h862v-530h-131v407h-731z" />
<glyph unicode="&#xad;" horiz-adv-x="614" d="M41 467v123h532v-123h-532z" />
<glyph unicode="&#xae;" horiz-adv-x="1630" d="M109 680q0 151 58.5 288.5t157.5 236.5t236.5 157.5t288.5 58.5q150 0 287 -58.5t236 -157.5t157.5 -236.5t58.5 -288.5q0 -150 -58.5 -287t-157.5 -236t-236 -157.5t-287 -58.5q-151 0 -288.5 58.5t-236.5 157.5t-157.5 236t-58.5 287zM233 680q0 -127 49 -243.5 t131.5 -201t197 -134.5t239.5 -50q166 0 307.5 84.5t224 229.5t82.5 315q0 171 -82.5 316.5t-224 230t-307.5 84.5q-125 0 -239.5 -50t-197 -134.5t-131.5 -201.5t-49 -245zM633 279v817h217q256 0 256 -211q0 -89 -53.5 -150.5t-132.5 -87.5l237 -336l-106 -47l-254 369 h-49v-354h-115zM748 737h57q50 0 86 10.5t54 25t28 37.5t12 39t2 38q0 34 -12.5 56t-37 32.5t-49 14t-59.5 3.5h-81v-256z" />
<glyph unicode="&#xaf;" horiz-adv-x="563" d="M61 1128v111h441v-111h-441z" />
<glyph unicode="&#xb0;" horiz-adv-x="681" d="M88 1169q0 103 72.5 176.5t175.5 73.5q104 0 177 -73.5t73 -176.5t-73 -175t-177 -72q-103 0 -175.5 72t-72.5 175zM190 1169q0 -60 43 -104.5t103 -44.5q61 0 104 44t43 105q0 62 -43 107t-104 45q-60 0 -103 -45t-43 -107z" />
<glyph unicode="&#xb1;" horiz-adv-x="1005" d="M51 0v123h903v-123h-903zM51 748v122h389v400h125v-400h389v-122h-389v-400h-125v400h-389z" />
<glyph unicode="&#xb2;" horiz-adv-x="602" d="M82 799q144 127 200 185q141 149 142 235q0 37 -29.5 68.5t-85.5 31.5q-77 0 -135 -74l-82 78q106 96 223 96q99 0 162.5 -58t63.5 -144q0 -100 -129 -248q-62 -67 -156 -154h281v-104h-428z" />
<glyph unicode="&#xb3;" horiz-adv-x="544" d="M61 770l43 80q84 -49 142 -49q52 0 88.5 31.5t36.5 87.5q0 58 -45 89t-117 31h-49v88h49q58 0 101.5 28.5t43.5 78.5q0 36 -26 61t-66 25q-46 0 -72.5 -9.5t-58.5 -33.5l-47 82q76 59 178 59q94 0 146.5 -48t52.5 -128q0 -95 -92 -151q50 -18 82 -63t32 -111 q0 -88 -62 -150.5t-169 -62.5q-94 0 -191 65z" />
<glyph unicode="&#xb4;" horiz-adv-x="526" d="M82 1139l268 282l94 -96l-297 -252z" />
<glyph unicode="&#xb6;" horiz-adv-x="1064" d="M82 1020q0 84 25 149t64 104.5t93.5 64.5t107.5 34.5t111 9.5h398v-1759h-140v1634h-106v-673h-139q-46 0 -99 15t-109.5 50t-102 83.5t-74.5 124t-29 163.5zM219 1024q0 -65 18 -118t47 -85.5t61.5 -56t65.5 -35t53.5 -16t31.5 -4.5v548q-56 0 -102.5 -11.5t-87.5 -37 t-64 -72.5t-23 -112z" />
<glyph unicode="&#xb7;" horiz-adv-x="579" d="M190 715q0 41 29.5 69.5t69.5 28.5q41 0 69.5 -28.5t28.5 -69.5q0 -40 -28.5 -69.5t-69.5 -29.5q-40 0 -69.5 29.5t-29.5 69.5z" />
<glyph unicode="&#xb8;" horiz-adv-x="421" d="M70 -377q65 30 88.5 56.5t23.5 64.5q0 59 -76 135l68 160l96 -29l-43 -102q78 -71 78 -168q0 -70 -53.5 -123t-134.5 -80z" />
<glyph unicode="&#xb9;" horiz-adv-x="548" d="M61 1268l283 141h82v-702h-117v563l-192 -99z" />
<glyph unicode="&#xba;" horiz-adv-x="780" d="M66 1055q0 47 11 95.5t36.5 97t62 85.5t93 60.5t124.5 23.5q84 0 149 -34.5t101 -90t54 -115.5t18 -120q0 -61 -18 -121.5t-54 -115.5t-101 -89.5t-149 -34.5q-69 0 -126 22.5t-93.5 59t-61.5 84t-35.5 96t-10.5 97.5zM195 1055q0 -63 18 -111.5t48 -75t63 -40t67 -13.5 q33 0 65.5 13t62.5 39.5t48.5 75.5t18.5 114q0 62 -18 110t-47 75t-61.5 40.5t-66.5 13.5q-32 0 -65 -13t-63.5 -39.5t-50 -75.5t-19.5 -113z" />
<glyph unicode="&#xbb;" horiz-adv-x="1011" d="M164 154l209 284l-209 287l98 63l250 -350l-250 -350zM500 154l209 284l-209 287l100 63l248 -350l-248 -350z" />
<glyph unicode="&#xbc;" horiz-adv-x="1554" d="M61 1268l283 141h82v-702h-117v563l-192 -99zM354 -12l695 1489l102 -50l-694 -1488zM918 289l315 416h100v-400h86v-104h-86v-201h-112v201h-269zM1053 305h168v217z" />
<glyph unicode="&#xbd;" horiz-adv-x="1554" d="M61 1268l283 141h82v-702h-117v563l-192 -99zM354 -12l695 1489l102 -50l-694 -1488zM989 90q3 2 38 33t47.5 42t47.5 43.5t52.5 51t47 50t44.5 54t32.5 49.5t25 50.5t7.5 44.5q0 37 -28.5 68.5t-85.5 31.5q-79 0 -136 -73l-82 77q107 99 224 99q98 0 161.5 -59.5 t63.5 -145.5q0 -102 -129 -246q-59 -67 -156 -156h281v-104h-428z" />
<glyph unicode="&#xbe;" horiz-adv-x="1599" d="M63 770l46 80q79 -49 139 -49q52 0 88.5 31.5t36.5 87.5q0 58 -44.5 89t-115.5 31h-49v88h49q57 0 100 28.5t43 78.5q0 36 -26 61t-66 25q-46 0 -71 -9.5t-60 -33.5l-47 82q76 59 180 59q92 0 145.5 -48.5t53.5 -127.5q0 -93 -94 -151q50 -18 82 -63t32 -111 q0 -88 -61.5 -150.5t-167.5 -62.5q-57 0 -98.5 15.5t-94.5 49.5zM348 -12l696 1489l103 -50l-694 -1488zM913 289l316 416h98v-400h88v-104h-88v-201h-113v201h-266zM1049 305h165v217z" />
<glyph unicode="&#xbf;" horiz-adv-x="817" d="M123 12q0 72 17 132t43.5 99t61.5 69t67.5 46t65 26t51 12.5t28.5 2.5v283h125v-383q-148 0 -234 -72.5t-86 -214.5q0 -147 87 -222t233 -75v-125q-209 3 -334 109t-125 313zM426 930q0 38 28 65t66 27t65 -27t27 -65t-27 -66t-65 -28t-66 28t-28 66z" />
<glyph unicode="&#xc0;" horiz-adv-x="1265" d="M41 25l551 1384h94l539 -1380l-129 -41l-185 475h-561l-190 -479zM383 1690l319 -226l58 72l-291 256zM399 586h463l-231 594z" />
<glyph unicode="&#xc1;" horiz-adv-x="1265" d="M41 25l551 1384h94l539 -1380l-129 -41l-185 475h-561l-190 -479zM399 586h463l-231 594zM535 1536l290 256l86 -102l-319 -226z" />
<glyph unicode="&#xc2;" horiz-adv-x="1265" d="M41 25l551 1384h94l539 -1380l-129 -41l-185 475h-561l-190 -479zM352 1552l74 -86l205 170l205 -170l73 86l-278 215zM399 586h463l-231 594z" />
<glyph unicode="&#xc3;" horiz-adv-x="1265" d="M41 25l551 1384h94l539 -1380l-129 -41l-185 475h-561l-190 -479zM348 1542q14 63 72.5 116.5t120.5 53.5q36 0 115 -55t104 -55q39 0 61.5 21t48.5 67l80 -41q-23 -58 -74 -111t-116 -53q-36 0 -77.5 26.5t-79 53t-62.5 26.5q-41 0 -67.5 -22.5t-47.5 -69.5zM399 586 h463l-231 594z" />
<glyph unicode="&#xc4;" horiz-adv-x="1265" d="M41 25l551 1384h94l539 -1380l-129 -41l-185 475h-561l-190 -479zM379 1597q0 38 27 65.5t65 27.5t65 -27.5t27 -65.5t-27 -65t-65 -27t-65 27t-27 65zM399 586h463l-231 594zM698 1597q0 38 28.5 65.5t66.5 27.5t65 -27.5t27 -65.5t-27 -65t-65 -27q-39 0 -67 27t-28 65 z" />
<glyph unicode="&#xc5;" horiz-adv-x="1265" d="M41 25l551 1384q-66 12 -107 60.5t-41 117.5q0 82 55 132t140 50t140 -50t55 -132q0 -68 -41 -116t-105 -62l537 -1380l-129 -41l-185 475h-561l-190 -479zM399 586h463l-231 594zM539 1587q0 -44 29 -76t71 -32t71 32t29 76q0 43 -29 75t-71 32t-71 -32t-29 -75z" />
<glyph unicode="&#xc6;" horiz-adv-x="1695" d="M0 25l862 1384h737v-125h-606v-498h561v-122h-561v-541h604v-123h-735v463h-448l-299 -479zM489 586h373v594z" />
<glyph unicode="&#xc7;" horiz-adv-x="1122" d="M102 705q0 162 58.5 299t155 227t218.5 140t252 50q98 0 179.5 -21t126.5 -52l-58 -115q-39 23 -111 43t-159 20q-53 0 -111.5 -16.5t-117.5 -47.5t-111.5 -81.5t-94 -113.5t-65.5 -149t-24 -183q0 -166 70 -302t190 -213t264 -77q80 0 156 18t118 37l54 -111 q-100 -57 -261 -67l-34 -82q77 -70 77 -168q0 -70 -53.5 -123t-134.5 -80l-47 86q66 30 89.5 56.5t23.5 64.5q0 59 -76 135l45 111q-93 5 -182 37t-168.5 92.5t-139 143t-94.5 196.5t-35 246z" />
<glyph unicode="&#xc8;" horiz-adv-x="1017" d="M184 0v1409h738v-125h-607v-498h562v-122h-562v-541h607v-123h-738zM313 1690l320 -226l57 72l-291 256z" />
<glyph unicode="&#xc9;" horiz-adv-x="1017" d="M184 0v1409h738v-125h-607v-498h562v-122h-562v-541h607v-123h-738zM399 1536l291 256l86 -102l-319 -226z" />
<glyph unicode="&#xca;" horiz-adv-x="1017" d="M184 0v1409h738v-125h-607v-498h562v-122h-562v-541h607v-123h-738zM276 1552l74 -86l205 170l205 -170l74 86l-279 215z" />
<glyph unicode="&#xcb;" horiz-adv-x="1017" d="M184 0v1409h738v-125h-607v-498h562v-122h-562v-541h607v-123h-738zM295 1597q0 38 27 65.5t65 27.5t65 -27.5t27 -65.5t-27 -65t-65 -27t-65 27t-27 65zM614 1597q0 38 28.5 65.5t66.5 27.5t65 -27.5t27 -65.5t-27 -65t-65 -27q-39 0 -67 27t-28 65z" />
<glyph unicode="&#xcc;" horiz-adv-x="499" d="M-2 1690l319 -226l58 72l-291 256zM184 0v1409h131v-1409h-131z" />
<glyph unicode="&#xcd;" horiz-adv-x="499" d="M121 1536l291 256l86 -102l-320 -226zM184 0v1409h131v-1409h-131z" />
<glyph unicode="&#xce;" horiz-adv-x="499" d="M-31 1552l74 -86l205 170l205 -170l73 86l-278 215zM184 0v1409h131v-1409h-131z" />
<glyph unicode="&#xcf;" horiz-adv-x="499" d="M184 0v1409h131v-1409h-131zM184 1597q0 38 27 65.5t65 27.5t65.5 -27.5t27.5 -65.5t-27.5 -65t-65.5 -27t-65 27t-27 65zM504 1597q0 38 28 65.5t66 27.5t65 -27.5t27 -65.5t-27 -65t-65 -27t-66 27t-28 65z" />
<glyph unicode="&#xd0;" horiz-adv-x="1417" d="M23 668v110h161v631h471q149 0 266.5 -42t190 -109.5t119.5 -159.5t65.5 -183.5t18.5 -189.5q0 -205 -89 -371t-246 -260t-351 -94h-445v668h-161zM315 123h273q71 0 144.5 16t155 59.5t144 109.5t103.5 177t41 252q0 109 -25.5 197t-64 143.5t-95.5 97t-107 61.5 t-112.5 32t-97.5 14t-76 2h-283v-506h265v-110h-265v-545z" />
<glyph unicode="&#xd1;" horiz-adv-x="1517" d="M184 0v1409h160l856 -1231v1231h133v-1409h-166l-850 1225v-1225h-133zM467 1542q14 63 72.5 116.5t119.5 53.5q36 0 115.5 -55t104.5 -55q39 0 61.5 21t48.5 67l80 -41q-23 -58 -74 -111t-116 -53q-36 0 -78 26.5t-79.5 53t-62.5 26.5q-41 0 -66.5 -22.5t-47.5 -69.5z " />
<glyph unicode="&#xd2;" horiz-adv-x="1576" d="M102 705q0 149 49 280t137.5 227.5t219 152.5t285.5 56q196 0 353.5 -98t243 -260.5t85.5 -355.5q0 -211 -88 -375t-243.5 -254t-352.5 -90q-201 0 -358.5 91.5t-244 255t-86.5 370.5zM238 705q0 -112 37 -217t104.5 -189t173 -135t231.5 -51q168 0 296.5 82t194.5 215.5 t66 294.5q0 120 -37.5 227t-106.5 188t-174 128.5t-232 47.5q-169 0 -296.5 -82t-192 -215t-64.5 -294zM559 1690l320 -226l57 72l-291 256z" />
<glyph unicode="&#xd3;" horiz-adv-x="1576" d="M102 705q0 149 49 280t137.5 227.5t219 152.5t285.5 56q196 0 353.5 -98t243 -260.5t85.5 -355.5q0 -211 -88 -375t-243.5 -254t-352.5 -90q-201 0 -358.5 91.5t-244 255t-86.5 370.5zM238 705q0 -112 37 -217t104.5 -189t173 -135t231.5 -51q168 0 296.5 82t194.5 215.5 t66 294.5q0 120 -37.5 227t-106.5 188t-174 128.5t-232 47.5q-169 0 -296.5 -82t-192 -215t-64.5 -294zM657 1536l291 256l86 -102l-319 -226z" />
<glyph unicode="&#xd4;" horiz-adv-x="1576" d="M102 705q0 149 49 280t137.5 227.5t219 152.5t285.5 56q196 0 353.5 -98t243 -260.5t85.5 -355.5q0 -211 -88 -375t-243.5 -254t-352.5 -90q-201 0 -358.5 91.5t-244 255t-86.5 370.5zM238 705q0 -112 37 -217t104.5 -189t173 -135t231.5 -51q168 0 296.5 82t194.5 215.5 t66 294.5q0 120 -37.5 227t-106.5 188t-174 128.5t-232 47.5q-169 0 -296.5 -82t-192 -215t-64.5 -294zM514 1552l74 -86l205 170l204 -170l74 86l-278 215z" />
<glyph unicode="&#xd5;" horiz-adv-x="1576" d="M102 705q0 149 49 280t137.5 227.5t219 152.5t285.5 56q196 0 353.5 -98t243 -260.5t85.5 -355.5q0 -211 -88 -375t-243.5 -254t-352.5 -90q-201 0 -358.5 91.5t-244 255t-86.5 370.5zM238 705q0 -112 37 -217t104.5 -189t173 -135t231.5 -51q168 0 296.5 82t194.5 215.5 t66 294.5q0 120 -37.5 227t-106.5 188t-174 128.5t-232 47.5q-169 0 -296.5 -82t-192 -215t-64.5 -294zM496 1542q14 63 72.5 116.5t119.5 53.5q36 0 115 -55t104 -55q39 0 62 21t49 67l80 -41q-23 -58 -74 -111t-117 -53q-36 0 -77.5 26.5t-79 53t-62.5 26.5 q-41 0 -67.5 -22.5t-47.5 -69.5z" />
<glyph unicode="&#xd6;" horiz-adv-x="1576" d="M102 705q0 149 49 280t137.5 227.5t219 152.5t285.5 56q196 0 353.5 -98t243 -260.5t85.5 -355.5q0 -211 -88 -375t-243.5 -254t-352.5 -90q-201 0 -358.5 91.5t-244 255t-86.5 370.5zM238 705q0 -112 37 -217t104.5 -189t173 -135t231.5 -51q168 0 296.5 82t194.5 215.5 t66 294.5q0 120 -37.5 227t-106.5 188t-174 128.5t-232 47.5q-169 0 -296.5 -82t-192 -215t-64.5 -294zM543 1597q0 38 27 65.5t65 27.5t65 -27.5t27 -65.5t-27 -65t-65 -27t-65 27t-27 65zM862 1597q0 38 28 65.5t66 27.5t65.5 -27.5t27.5 -65.5t-27.5 -65t-65.5 -27 t-66 27t-28 65z" />
<glyph unicode="&#xd7;" horiz-adv-x="1005" d="M129 393l289 287l-289 289l86 86l287 -289l289 289l86 -86l-291 -287l291 -289l-86 -86l-289 289l-287 -289z" />
<glyph unicode="&#xd8;" horiz-adv-x="1576" d="M98 70l156 166q-152 195 -152 469q0 149 49 280t137.5 227.5t219 152.5t285.5 56q252 0 436 -157l147 155l92 -82l-153 -161q76 -97 118 -218t42 -251q0 -211 -88 -375t-243.5 -254t-352.5 -90q-267 0 -453 159l-150 -157zM238 705q0 -209 112 -369l793 838 q-144 122 -352 122q-169 0 -296.5 -82t-192 -215t-64.5 -294zM430 244q147 -131 354 -131q168 0 296.5 82t194.5 215.5t66 294.5q0 219 -114 376z" />
<glyph unicode="&#xd9;" horiz-adv-x="1290" d="M154 449v960h133v-940q0 -165 110.5 -260.5t288.5 -95.5q173 0 276 89.5t103 282.5v924h133v-956q0 -147 -72 -255t-188 -160t-258 -52q-234 0 -380 126t-146 337zM471 1690l320 -226l57 72l-291 256z" />
<glyph unicode="&#xda;" horiz-adv-x="1290" d="M154 449v960h133v-940q0 -165 110.5 -260.5t288.5 -95.5q173 0 276 89.5t103 282.5v924h133v-956q0 -147 -72 -255t-188 -160t-258 -52q-234 0 -380 126t-146 337zM545 1536l291 256l86 -102l-320 -226z" />
<glyph unicode="&#xdb;" horiz-adv-x="1290" d="M154 449v960h133v-940q0 -165 110.5 -260.5t288.5 -95.5q173 0 276 89.5t103 282.5v924h133v-956q0 -147 -72 -255t-188 -160t-258 -52q-234 0 -380 126t-146 337zM412 1552l73 -86l205 170l205 -170l74 86l-279 215z" />
<glyph unicode="&#xdc;" horiz-adv-x="1290" d="M154 449v960h133v-940q0 -165 110.5 -260.5t288.5 -95.5q173 0 276 89.5t103 282.5v924h133v-956q0 -147 -72 -255t-188 -160t-258 -52q-234 0 -380 126t-146 337zM434 1597q0 38 27 65.5t65 27.5t65 -27.5t27 -65.5t-27 -65t-65 -27t-65 27t-27 65zM754 1597 q0 38 28 65.5t66 27.5t65 -27.5t27 -65.5t-27 -65t-65 -27t-66 27t-28 65z" />
<glyph unicode="&#xdd;" horiz-adv-x="1064" d="M0 1356l109 63l426 -614l423 614l107 -67l-467 -680v-672h-131v672zM399 1536l291 256l86 -102l-319 -226z" />
<glyph unicode="&#xde;" horiz-adv-x="1021" d="M184 0v1409h131v-283h224q58 0 111 -9.5t107.5 -34.5t93.5 -64.5t64 -104.5t25 -149q0 -83 -30.5 -160t-87.5 -139t-149 -99.5t-204 -37.5h-154v-328h-131zM315 451h125q84 0 149.5 20t105 51t64.5 74t34.5 84t9.5 86q0 68 -22.5 115t-65.5 72.5t-94.5 36.5t-118.5 11 h-187v-550z" />
<glyph unicode="&#xdf;" horiz-adv-x="1050" d="M164 0v1159q0 81 27.5 144t74 100t101.5 55.5t116 18.5q74 0 133.5 -19.5t96 -49.5t61 -70.5t34 -79.5t9.5 -78q0 -50 -14 -91t-36 -69t-48.5 -52t-53 -45.5t-48.5 -43t-36 -50.5t-14 -63q0 -41 20.5 -74.5t53.5 -58.5t73 -49.5t79.5 -52.5t72.5 -61.5t53.5 -84 t20.5 -111.5q0 -125 -90.5 -205.5t-214.5 -80.5q-134 0 -205 51l62 104q17 -13 58 -27t85 -14q70 0 120 44.5t50 125.5q0 45 -20.5 80.5t-53 60t-72 47t-78.5 48t-71.5 56.5t-53 79t-20.5 109q0 53 13.5 95.5t35.5 69.5t48.5 50t53 43t48.5 42t35.5 53.5t13.5 70.5 q0 63 -32 106.5t-75 61.5t-92 18q-82 0 -140 -57.5t-58 -153.5v-1151h-123z" />
<glyph unicode="&#xe0;" horiz-adv-x="899" d="M88 221q0 59 21.5 105.5t54.5 78.5t92.5 60t114 46t141.5 42l90 25v90q0 174 -174 174q-99 0 -227 -107l-72 88q2 2 23 19.5t35 28t43.5 28.5t56 28.5t64.5 18.5t77 8q131 0 214 -65.5t83 -198.5v-522l113 -100l-84 -93l-138 127q-155 -114 -284 -114q-117 0 -180.5 66.5 t-63.5 166.5zM213 231q0 -73 38 -106t99 -33q89 0 252 117v264l-76 -20q-67 -18 -117.5 -37t-97.5 -45.5t-72.5 -62t-25.5 -77.5zM225 1325l92 96l271 -282l-66 -66z" />
<glyph unicode="&#xe1;" horiz-adv-x="899" d="M88 221q0 59 21.5 105.5t54.5 78.5t92.5 60t114 46t141.5 42l90 25v90q0 174 -174 174q-99 0 -227 -107l-72 88q2 2 23 19.5t35 28t43.5 28.5t56 28.5t64.5 18.5t77 8q131 0 214 -65.5t83 -198.5v-522l113 -100l-84 -93l-138 127q-155 -114 -284 -114q-117 0 -180.5 66.5 t-63.5 166.5zM213 231q0 -73 38 -106t99 -33q89 0 252 117v264l-76 -20q-67 -18 -117.5 -37t-97.5 -45.5t-72.5 -62t-25.5 -77.5zM338 1139l268 282l94 -96l-297 -252z" />
<glyph unicode="&#xe2;" horiz-adv-x="899" d="M88 221q0 59 21.5 105.5t54.5 78.5t92.5 60t114 46t141.5 42l90 25v90q0 174 -174 174q-99 0 -227 -107l-72 88q2 2 23 19.5t35 28t43.5 28.5t56 28.5t64.5 18.5t77 8q131 0 214 -65.5t83 -198.5v-522l113 -100l-84 -93l-138 127q-155 -114 -284 -114q-117 0 -180.5 66.5 t-63.5 166.5zM166 1186l278 215l279 -215l-74 -88l-205 172l-204 -172zM213 231q0 -73 38 -106t99 -33q89 0 252 117v264l-76 -20q-67 -18 -117.5 -37t-97.5 -45.5t-72.5 -62t-25.5 -77.5z" />
<glyph unicode="&#xe3;" horiz-adv-x="899" d="M88 221q0 59 21.5 105.5t54.5 78.5t92.5 60t114 46t141.5 42l90 25v90q0 174 -174 174q-99 0 -227 -107l-72 88q2 2 23 19.5t35 28t43.5 28.5t56 28.5t64.5 18.5t77 8q131 0 214 -65.5t83 -198.5v-522l113 -100l-84 -93l-138 127q-155 -114 -284 -114q-117 0 -180.5 66.5 t-63.5 166.5zM143 1192q14 63 72.5 116.5t120.5 53.5q36 0 115 -55.5t104 -55.5q39 0 62 21t49 67l79 -41q-23 -58 -73.5 -110.5t-116.5 -52.5q-36 0 -77.5 26.5t-79 53t-62.5 26.5q-41 0 -67.5 -22.5t-47.5 -69.5zM213 231q0 -73 38 -106t99 -33q89 0 252 117v264l-76 -20 q-67 -18 -117.5 -37t-97.5 -45.5t-72.5 -62t-25.5 -77.5z" />
<glyph unicode="&#xe4;" horiz-adv-x="899" d="M88 221q0 59 21.5 105.5t54.5 78.5t92.5 60t114 46t141.5 42l90 25v90q0 174 -174 174q-99 0 -227 -107l-72 88q2 2 23 19.5t35 28t43.5 28.5t56 28.5t64.5 18.5t77 8q131 0 214 -65.5t83 -198.5v-522l113 -100l-84 -93l-138 127q-155 -114 -284 -114q-117 0 -180.5 66.5 t-63.5 166.5zM178 1249q0 38 27 65t65 27t65 -27t27 -65t-27 -65t-65 -27t-65 27t-27 65zM213 231q0 -73 38 -106t99 -33q89 0 252 117v264l-76 -20q-67 -18 -117.5 -37t-97.5 -45.5t-72.5 -62t-25.5 -77.5zM498 1249q0 38 28 65t66 27t65 -27t27 -65t-27 -65t-65 -27 t-66 27t-28 65z" />
<glyph unicode="&#xe5;" horiz-adv-x="899" d="M88 221q0 59 21.5 105.5t54.5 78.5t92.5 60t114 46t141.5 42l90 25v90q0 174 -174 174q-99 0 -227 -107l-72 88q2 2 23 19.5t35 28t43.5 28.5t56 28.5t64.5 18.5t77 8q131 0 214 -65.5t83 -198.5v-522l113 -100l-84 -93l-138 127q-155 -114 -284 -114q-117 0 -180.5 66.5 t-63.5 166.5zM213 231q0 -73 38 -106t99 -33q89 0 252 117v264l-76 -20q-67 -18 -117.5 -37t-97.5 -45.5t-72.5 -62t-25.5 -77.5zM244 1251q0 82 55 132.5t139 50.5q85 0 140 -50.5t55 -132.5t-55.5 -133t-139.5 -51t-139 51t-55 133zM338 1251q0 -44 29 -76t71 -32 t71.5 32.5t29.5 75.5t-29.5 75t-71.5 32t-71 -32t-29 -75z" />
<glyph unicode="&#xe6;" horiz-adv-x="1402" d="M72 221q0 59 21.5 105.5t54.5 78.5t92.5 60t114 46t141.5 42l90 25v90q0 90 -44.5 130t-129.5 40q-36 0 -76 -13.5t-74 -35t-50 -33t-28 -21.5l-71 88q2 2 23 19.5t35 28t43.5 28.5t56 28.5t64.5 18.5t77 8q97 0 169.5 -36t104.5 -109q115 145 311 145q91 0 159 -32 t107.5 -89t58.5 -129.5t19 -160.5v-74h-632q0 -102 31.5 -183.5t103 -134.5t174.5 -53q119 0 235 78q0 1 15 -25.5t30 -53.5l15 -27q-135 -82 -301 -82q-224 0 -346 172q-42 -37 -69.5 -58.5t-75.5 -52t-100 -46t-106 -15.5q-116 0 -179.5 66t-63.5 167zM197 231 q0 -133 137 -133q97 0 252 111v264l-76 -20q-67 -18 -117.5 -37t-97.5 -45.5t-72.5 -62t-25.5 -77.5zM719 580h493q0 108 -56.5 183t-160.5 75q-61 0 -112.5 -25t-84 -65t-52.5 -82.5t-27 -85.5z" />
<glyph unicode="&#xe7;" horiz-adv-x="847" d="M92 471q0 112 37.5 205t100.5 153t141.5 92.5t163.5 32.5q154 0 274 -82q-59 -102 -59 -104q-41 30 -98 50t-111 20q-140 0 -231 -103t-91 -272q0 -171 92 -266t224 -95q120 0 231 78l61 -104q-125 -77 -264 -86l-33 -82q78 -71 78 -168q0 -70 -53.5 -123t-134.5 -80 l-47 86q65 30 88.5 56.5t23.5 64.5q0 60 -75 135l47 115q-167 24 -266 159t-99 318z" />
<glyph unicode="&#xe8;" horiz-adv-x="905" d="M86 461q0 136 46 246t142.5 178.5t229.5 68.5q91 0 159 -32t107.5 -89t58.5 -129.5t19 -160.5v-74h-635q0 -74 19 -138.5t56.5 -116t98.5 -81t139 -29.5q67 0 130 21.5t104 50.5q0 1 15 -25.5t29 -53.5l15 -27q-135 -82 -301 -82q-136 0 -235.5 65t-148 171t-48.5 237z M225 580h494q0 108 -56.5 183t-160.5 75q-61 0 -112.5 -25t-84.5 -65t-53 -82.5t-27 -85.5zM240 1325l92 96l270 -282l-65 -66z" />
<glyph unicode="&#xe9;" horiz-adv-x="905" d="M86 461q0 136 46 246t142.5 178.5t229.5 68.5q91 0 159 -32t107.5 -89t58.5 -129.5t19 -160.5v-74h-635q0 -74 19 -138.5t56.5 -116t98.5 -81t139 -29.5q67 0 130 21.5t104 50.5q0 1 15 -25.5t29 -53.5l15 -27q-135 -82 -301 -82q-136 0 -235.5 65t-148 171t-48.5 237z M225 580h494q0 108 -56.5 183t-160.5 75q-61 0 -112.5 -25t-84.5 -65t-53 -82.5t-27 -85.5zM340 1139l268 282l94 -96l-296 -252z" />
<glyph unicode="&#xea;" horiz-adv-x="905" d="M86 461q0 136 46 246t142.5 178.5t229.5 68.5q91 0 159 -32t107.5 -89t58.5 -129.5t19 -160.5v-74h-635q0 -74 19 -138.5t56.5 -116t98.5 -81t139 -29.5q67 0 130 21.5t104 50.5q0 1 15 -25.5t29 -53.5l15 -27q-135 -82 -301 -82q-136 0 -235.5 65t-148 171t-48.5 237z M223 1186l279 215l278 -215l-73 -88l-205 172l-205 -172zM225 580h494q0 108 -56.5 183t-160.5 75q-61 0 -112.5 -25t-84.5 -65t-53 -82.5t-27 -85.5z" />
<glyph unicode="&#xeb;" horiz-adv-x="905" d="M86 461q0 136 46 246t142.5 178.5t229.5 68.5q91 0 159 -32t107.5 -89t58.5 -129.5t19 -160.5v-74h-635q0 -74 19 -138.5t56.5 -116t98.5 -81t139 -29.5q67 0 130 21.5t104 50.5q0 1 15 -25.5t29 -53.5l15 -27q-135 -82 -301 -82q-136 0 -235.5 65t-148 171t-48.5 237z M225 580h494q0 108 -56.5 183t-160.5 75q-61 0 -112.5 -25t-84.5 -65t-53 -82.5t-27 -85.5zM250 1249q0 38 27 65t65 27t65 -27t27 -65t-27 -65t-65 -27t-65 27t-27 65zM569 1249q0 38 28 65t67 27q38 0 65 -27t27 -65t-27 -65t-65 -27q-39 0 -67 27t-28 65z" />
<glyph unicode="&#xec;" horiz-adv-x="512" d="M29 1325l92 96l270 -282l-65 -66zM195 0v942h122v-942h-122z" />
<glyph unicode="&#xed;" horiz-adv-x="512" d="M125 1139l268 282l94 -96l-297 -252zM195 0v942h122v-942h-122z" />
<glyph unicode="&#xee;" horiz-adv-x="512" d="M-23 1186l279 215l279 -215l-74 -88l-205 172l-205 -172zM195 0v942h122v-942h-122z" />
<glyph unicode="&#xef;" horiz-adv-x="512" d="M4 1249q0 38 27 65t65 27t65 -27t27 -65t-27 -65t-65 -27t-65 27t-27 65zM195 0v942h122v-942h-122zM324 1249q0 38 28 65t66 27t65 -27t27 -65t-27 -65t-65 -27t-66 27t-28 65z" />
<glyph unicode="&#xf0;" horiz-adv-x="1056" d="M82 494q0 126 44.5 229t135 167t211.5 64q163 0 297 -127q-39 174 -156 332l-186 -115l-57 91l172 108q-31 36 -66 72t-55 53l-19 18l103 91q76 -64 158 -158l194 121l60 -90l-183 -115q205 -290 205 -662q0 -90 -13.5 -172t-46 -158.5t-80.5 -132t-122 -89t-166 -33.5 q-202 0 -316 141.5t-114 364.5zM211 487q0 -182 85 -283.5t210 -101.5q68 0 122 28.5t87.5 74.5t55.5 108t31 124t9 128q0 55 -6 101q-32 32 -55.5 52.5t-68.5 53t-96.5 49.5t-105.5 17q-50 0 -95 -18.5t-85 -57.5t-64 -109.5t-24 -165.5z" />
<glyph unicode="&#xf1;" horiz-adv-x="1017" d="M164 0v942h123v-131q64 59 147 101t162 42q140 0 209 -69.5t69 -173.5v-711h-122v666q0 88 -45 130t-117 42q-49 0 -104.5 -22.5t-96.5 -52.5t-68.5 -54.5t-33.5 -34.5v-674h-123zM223 1192q14 63 72.5 116.5t120.5 53.5q36 0 115 -55.5t104 -55.5q39 0 61.5 21t48.5 67 l80 -41q-23 -58 -73.5 -110.5t-116.5 -52.5q-36 0 -77.5 26.5t-79 53t-62.5 26.5q-41 0 -67.5 -22.5t-47.5 -69.5z" />
<glyph unicode="&#xf2;" horiz-adv-x="1034" d="M72 469q0 64 16.5 129.5t52.5 129.5t86.5 114t126.5 81t166 31t165.5 -30.5t126 -80t85.5 -114t50.5 -129.5t15.5 -129t-15.5 -129t-50.5 -129.5t-85 -114t-125 -80t-165 -30.5q-93 0 -170 29.5t-128 78t-86 112t-50.5 129.5t-15.5 132zM201 469q0 -94 30.5 -168 t79 -115.5t101.5 -62.5t106 -21q51 0 103.5 20t101.5 61t80 116t31 172q0 76 -20 139t-51.5 104.5t-73 70t-83.5 41t-84 12.5q-40 0 -82 -11.5t-85.5 -39.5t-77 -69t-55 -105.5t-21.5 -143.5zM281 1325l92 96l270 -282l-65 -66z" />
<glyph unicode="&#xf3;" horiz-adv-x="1034" d="M72 469q0 64 16.5 129.5t52.5 129.5t86.5 114t126.5 81t166 31t165.5 -30.5t126 -80t85.5 -114t50.5 -129.5t15.5 -129t-15.5 -129t-50.5 -129.5t-85 -114t-125 -80t-165 -30.5q-93 0 -170 29.5t-128 78t-86 112t-50.5 129.5t-15.5 132zM201 469q0 -94 30.5 -168 t79 -115.5t101.5 -62.5t106 -21q51 0 103.5 20t101.5 61t80 116t31 172q0 76 -20 139t-51.5 104.5t-73 70t-83.5 41t-84 12.5q-40 0 -82 -11.5t-85.5 -39.5t-77 -69t-55 -105.5t-21.5 -143.5zM389 1139l268 282l95 -96l-297 -252z" />
<glyph unicode="&#xf4;" horiz-adv-x="1034" d="M72 469q0 64 16.5 129.5t52.5 129.5t86.5 114t126.5 81t166 31t165.5 -30.5t126 -80t85.5 -114t50.5 -129.5t15.5 -129t-15.5 -129t-50.5 -129.5t-85 -114t-125 -80t-165 -30.5q-93 0 -170 29.5t-128 78t-86 112t-50.5 129.5t-15.5 132zM201 469q0 -94 30.5 -168 t79 -115.5t101.5 -62.5t106 -21q51 0 103.5 20t101.5 61t80 116t31 172q0 76 -20 139t-51.5 104.5t-73 70t-83.5 41t-84 12.5q-40 0 -82 -11.5t-85.5 -39.5t-77 -69t-55 -105.5t-21.5 -143.5zM244 1186l278 215l279 -215l-74 -88l-205 172l-205 -172z" />
<glyph unicode="&#xf5;" horiz-adv-x="1034" d="M72 469q0 64 16.5 129.5t52.5 129.5t86.5 114t126.5 81t166 31t165.5 -30.5t126 -80t85.5 -114t50.5 -129.5t15.5 -129t-15.5 -129t-50.5 -129.5t-85 -114t-125 -80t-165 -30.5q-93 0 -170 29.5t-128 78t-86 112t-50.5 129.5t-15.5 132zM201 469q0 -94 30.5 -168 t79 -115.5t101.5 -62.5t106 -21q51 0 103.5 20t101.5 61t80 116t31 172q0 76 -20 139t-51.5 104.5t-73 70t-83.5 41t-84 12.5q-40 0 -82 -11.5t-85.5 -39.5t-77 -69t-55 -105.5t-21.5 -143.5zM215 1192q14 63 72.5 116.5t120.5 53.5q36 0 115 -55.5t104 -55.5q39 0 61.5 21 t48.5 67l80 -41q-23 -58 -73.5 -110.5t-116.5 -52.5q-36 0 -77.5 26.5t-79 53t-62.5 26.5q-41 0 -67.5 -22.5t-47.5 -69.5z" />
<glyph unicode="&#xf6;" horiz-adv-x="1034" d="M72 469q0 64 16.5 129.5t52.5 129.5t86.5 114t126.5 81t166 31t165.5 -30.5t126 -80t85.5 -114t50.5 -129.5t15.5 -129t-15.5 -129t-50.5 -129.5t-85 -114t-125 -80t-165 -30.5q-93 0 -170 29.5t-128 78t-86 112t-50.5 129.5t-15.5 132zM201 469q0 -94 30.5 -168 t79 -115.5t101.5 -62.5t106 -21q51 0 103.5 20t101.5 61t80 116t31 172q0 76 -20 139t-51.5 104.5t-73 70t-83.5 41t-84 12.5q-40 0 -82 -11.5t-85.5 -39.5t-77 -69t-55 -105.5t-21.5 -143.5zM268 1249q0 38 27 65t65 27t65.5 -27t27.5 -65t-27.5 -65t-65.5 -27t-65 27 t-27 65zM588 1249q0 38 28 65t66 27t65 -27t27 -65t-27 -65t-65 -27t-66 27t-28 65z" />
<glyph unicode="&#xf7;" horiz-adv-x="940" d="M41 641v123h858v-123h-858zM367 330q0 43 29.5 72.5t72.5 29.5t72.5 -29.5t29.5 -72.5v2q0 -43 -29.5 -73t-72.5 -30t-72.5 29.5t-29.5 71.5zM367 1079q0 42 30 72.5t72 30.5t72 -30.5t30 -72.5q0 -43 -29.5 -72.5t-72.5 -29.5t-72.5 29.5t-29.5 72.5z" />
<glyph unicode="&#xf8;" horiz-adv-x="1034" d="M72 469q0 64 16.5 129.5t52.5 129.5t86.5 114t126.5 81t166 31q148 0 256 -80l94 113l78 -65l-98 -119q56 -69 84.5 -157.5t28.5 -174.5q0 -64 -15.5 -129t-50.5 -129.5t-85 -114t-125 -80t-165 -30.5q-163 0 -280 92l-78 -94l-80 65l88 105q-100 131 -100 313zM201 469 q0 -127 53 -215l442 526q-82 58 -174 58q-40 0 -82 -11.5t-85.5 -39.5t-77 -69t-55 -105.5t-21.5 -143.5zM322 176q89 -74 196 -74q51 0 103.5 20t101.5 61t80 116t31 172q0 144 -66 236z" />
<glyph unicode="&#xf9;" horiz-adv-x="1007" d="M143 231v711h123v-666q0 -90 45 -131t119 -41q47 0 99.5 21.5t91.5 50.5t65.5 53.5t34.5 36.5v676h123v-942h-123v133q-162 -145 -297 -145q-142 0 -211.5 69.5t-69.5 173.5zM258 1325l92 96l271 -282l-66 -66z" />
<glyph unicode="&#xfa;" horiz-adv-x="1007" d="M143 231v711h123v-666q0 -90 45 -131t119 -41q47 0 99.5 21.5t91.5 50.5t65.5 53.5t34.5 36.5v676h123v-942h-123v133q-162 -145 -297 -145q-142 0 -211.5 69.5t-69.5 173.5zM389 1139l268 282l95 -96l-297 -252z" />
<glyph unicode="&#xfb;" horiz-adv-x="1007" d="M143 231v711h123v-666q0 -90 45 -131t119 -41q47 0 99.5 21.5t91.5 50.5t65.5 53.5t34.5 36.5v676h123v-942h-123v133q-162 -145 -297 -145q-142 0 -211.5 69.5t-69.5 173.5zM213 1186l279 215l278 -215l-74 -88l-204 172l-205 -172z" />
<glyph unicode="&#xfc;" horiz-adv-x="1007" d="M143 231v711h123v-666q0 -90 45 -131t119 -41q47 0 99.5 21.5t91.5 50.5t65.5 53.5t34.5 36.5v676h123v-942h-123v133q-162 -145 -297 -145q-142 0 -211.5 69.5t-69.5 173.5zM242 1249q0 38 27 65t65 27t65 -27t27 -65t-27 -65t-65 -27t-65 27t-27 65zM561 1249 q0 38 28 65t66 27t65.5 -27t27.5 -65t-27.5 -65t-65.5 -27t-66 27t-28 65z" />
<glyph unicode="&#xfd;" horiz-adv-x="923" d="M31 -377q12 -2 37 -2q77 0 140.5 43t92.5 115l111 270l-377 858l115 47l325 -749l307 749l111 -41l-471 -1153q-46 -115 -136.5 -181t-209.5 -66q-31 0 -45 2v108zM369 1139l268 282l94 -96l-297 -252z" />
<glyph unicode="&#xfe;" horiz-adv-x="1056" d="M164 -489v1966h123v-648q1 0 38.5 26.5t68.5 44.5t85.5 36t106.5 18q82 0 149.5 -29t111 -76t73 -110.5t42.5 -129.5t13 -136q0 -85 -25 -168.5t-73 -155.5t-128.5 -116.5t-181.5 -44.5q-46 0 -91 12t-86.5 36t-57.5 35t-45 33v-593h-123zM287 236q147 -134 276 -134 q123 0 206 101.5t83 267.5q0 167 -73 267t-199 100q-145 0 -283 -133q-9 -8 -10 -9v-460z" />
<glyph unicode="&#xff;" horiz-adv-x="923" d="M31 -377q12 -2 37 -2q77 0 140.5 43t92.5 115l111 270l-377 858l115 47l325 -749l307 749l111 -41l-471 -1153q-46 -115 -136.5 -181t-209.5 -66q-31 0 -45 2v108zM223 1249q0 38 27 65t65 27t65.5 -27t27.5 -65t-27.5 -65t-65.5 -27t-65 27t-27 65zM543 1249q0 38 28 65 t66 27t65 -27t27 -65t-27 -65t-65 -27t-66 27t-28 65z" />
<glyph unicode="&#x152;" horiz-adv-x="1734" d="M102 705q0 149 49 280t137.5 227.5t219 152.5t285.5 56q70 0 131 -12h714v-125h-606v-498h561v-122h-561v-541h606v-123h-708q-68 -12 -139 -12q-201 0 -358.5 91.5t-244 255t-86.5 370.5zM238 705q0 -112 37 -217t104.5 -189t173 -135t231.5 -51q55 0 117 10v1163 q-58 10 -110 10q-169 0 -296.5 -82t-192 -215t-64.5 -294z" />
<glyph unicode="&#x153;" horiz-adv-x="1648" d="M61 469q0 63 16.5 129t52.5 130t87 114t127 81t166 31q131 0 225.5 -60t149.5 -159q52 103 141.5 161t214.5 58q92 0 160 -32t108 -89t59 -129.5t19 -160.5v-74h-635q0 -101 32 -181.5t104.5 -132t175.5 -51.5q130 0 233 72q0 1 15.5 -25.5t31.5 -53.5l15 -27 q-140 -82 -304 -82q-129 0 -224 58t-148 159q-55 -98 -148.5 -157.5t-222.5 -59.5q-93 0 -170 29.5t-128 78t-86.5 112t-51 129.5t-15.5 132zM190 469q0 -76 20.5 -139t53 -104.5t75 -70t85 -41t84.5 -12.5q40 0 81.5 11.5t84 39.5t75.5 69t53.5 105.5t20.5 143.5 q0 94 -29.5 168t-76.5 115.5t-99.5 62.5t-105.5 21q-51 0 -104.5 -20t-103.5 -61t-82 -116t-32 -172zM965 580h493q0 107 -57 182.5t-162 75.5q-61 0 -112.5 -25t-83.5 -65t-52 -82.5t-26 -85.5z" />
<glyph unicode="&#x178;" horiz-adv-x="1105" d="M0 1356l109 63l426 -614l423 614l107 -67l-467 -680v-672h-131v672zM285 1597q0 38 27 65.5t65 27.5t65 -27.5t27 -65.5t-27 -65t-65 -27t-65 27t-27 65zM604 1597q0 38 28 65.5t66 27.5t65.5 -27.5t27.5 -65.5t-27.5 -65t-65.5 -27t-66 27t-28 65z" />
<glyph unicode="&#x2c6;" horiz-adv-x="647" d="M45 1186l279 215l278 -215l-74 -88l-204 172l-205 -172z" />
<glyph unicode="&#x2dc;" horiz-adv-x="694" d="M41 1192q14 63 72.5 116.5t119.5 53.5q36 0 115.5 -55.5t104.5 -55.5q39 0 61.5 21t48.5 67l80 -41q-23 -58 -73.5 -110.5t-116.5 -52.5q-36 0 -78 26.5t-79.5 53t-62.5 26.5q-41 0 -66.5 -22.5t-47.5 -69.5z" />
<glyph unicode="&#x2000;" horiz-adv-x="896" />
<glyph unicode="&#x2001;" horiz-adv-x="1792" />
<glyph unicode="&#x2002;" horiz-adv-x="896" />
<glyph unicode="&#x2003;" horiz-adv-x="1792" />
<glyph unicode="&#x2004;" horiz-adv-x="597" />
<glyph unicode="&#x2005;" horiz-adv-x="448" />
<glyph unicode="&#x2006;" horiz-adv-x="298" />
<glyph unicode="&#x2007;" horiz-adv-x="298" />
<glyph unicode="&#x2008;" horiz-adv-x="224" />
<glyph unicode="&#x2009;" horiz-adv-x="358" />
<glyph unicode="&#x200a;" horiz-adv-x="99" />
<glyph unicode="&#x2010;" horiz-adv-x="614" d="M41 467v123h532v-123h-532z" />
<glyph unicode="&#x2011;" horiz-adv-x="614" d="M41 467v123h532v-123h-532z" />
<glyph unicode="&#x2012;" horiz-adv-x="614" d="M41 467v123h532v-123h-532z" />
<glyph unicode="&#x2013;" d="M0 416v108h1024v-108h-1024z" />
<glyph unicode="&#x2014;" horiz-adv-x="2048" d="M0 416v108h2048v-108h-2048z" />
<glyph unicode="&#x2018;" horiz-adv-x="421" d="M92 1075l170 404h109l-148 -404h-131z" />
<glyph unicode="&#x2019;" horiz-adv-x="421" d="M82 1073l147 404h131l-170 -404h-108z" />
<glyph unicode="&#x201a;" horiz-adv-x="382" d="M31 -244l147 404h131l-170 -404h-108z" />
<glyph unicode="&#x201c;" horiz-adv-x="679" d="M92 1075l170 404h109l-148 -404h-131zM340 1075l170 404h108l-147 -404h-131z" />
<glyph unicode="&#x201d;" horiz-adv-x="679" d="M94 1077l148 404h131l-170 -404h-109zM342 1077l147 404h132l-170 -404h-109z" />
<glyph unicode="&#x201e;" horiz-adv-x="718" d="M61 -244l148 404h131l-170 -404h-109zM309 -244l148 404h131l-170 -404h-109z" />
<glyph unicode="&#x2022;" horiz-adv-x="995" d="M197 604q0 124 88.5 212.5t212.5 88.5t212.5 -88.5t88.5 -212.5q0 -123 -88.5 -211t-212.5 -88t-212.5 88t-88.5 211z" />
<glyph unicode="&#x2026;" horiz-adv-x="1376" d="M143 86q0 40 29 69t70 29q40 0 68 -29t28 -69t-28 -69t-68 -29q-41 0 -70 29t-29 69zM590 86q0 40 29 68t69 28t68 -28t28 -68t-28 -69t-68 -29t-69 29t-29 69zM1038 86q0 40 28.5 69t68.5 29q41 0 69.5 -29t28.5 -69t-28.5 -69t-69.5 -29q-40 0 -68.5 29t-28.5 69z" />
<glyph unicode="&#x202f;" horiz-adv-x="358" />
<glyph unicode="&#x2039;" horiz-adv-x="675" d="M164 438l250 350l98 -63l-209 -287l209 -284l-98 -66z" />
<glyph unicode="&#x203a;" horiz-adv-x="675" d="M164 154l209 284l-209 287l98 63l250 -350l-250 -350z" />
<glyph unicode="&#x205f;" horiz-adv-x="448" />
<glyph unicode="&#x20ac;" horiz-adv-x="968" d="M102 705q0 214 57.5 373.5t176.5 251t287 91.5q64 0 119.5 -14.5t83.5 -30t63 -39.5l-58 -114q-3 2 -21 13t-27.5 16.5t-32 15.5t-41.5 15t-48.5 9t-60.5 4q-138 0 -230 -102.5t-120 -310.5h500v-103h-508q-2 -25 -2 -75q0 -62 2 -91h508v-102h-498q55 -401 348 -401 q34 0 66.5 5.5t64 17t49 19t45.5 22t29 15.5l53 -110q-4 -2 -26 -15t-32.5 -18t-34 -16.5t-43 -17t-47.5 -12.5t-59 -10t-65 -3q-254 0 -376 179.5t-122 537.5z" />
<glyph unicode="&#x2122;" horiz-adv-x="1722" d="M20 1300v109h644v-109h-261v-708h-116v708h-267zM713 590l51 819h125l266 -618l293 618h113l36 -819l-112 -6l-27 606l-252 -543h-106l-238 543l-35 -606z" />
<glyph unicode="&#x25fc;" horiz-adv-x="952" d="M0 0v952h952v-952h-952z" />
<glyph unicode="&#xfb01;" horiz-adv-x="1064" d="M63 827v115h164v295q0 112 65.5 183t176.5 71q60 0 116 -15.5t72 -27.5l-49 -105q-72 33 -133 33q-18 0 -37.5 -6.5t-41 -21.5t-35 -47t-13.5 -76v-283h522v-942h-125v829h-395v-829h-123v827h-164zM717 1245q0 38 27 66t65 28t65 -28t27 -66t-27 -65t-65 -27t-65 27 t-27 65z" />
<glyph unicode="&#xfb02;" horiz-adv-x="1034" d="M63 827v115h164v295q0 112 65.5 183t176.5 71q52 0 99 -10.5t68 -21.5l21 -11l-49 -107q-53 35 -133 35q-18 0 -37.5 -6.5t-41 -21.5t-35 -47t-13.5 -76v-283h227v-113h-225v-829h-123v827h-164zM748 0v1477h122v-1477h-122z" />
</font>
</defs>
</svg>
