<?xml version="1.0" encoding="UTF-8" standalone="no"?>
<svg width="390px" height="124px" viewBox="0 0 390 124" version="1.1" xmlns="http://www.w3.org/2000/svg" xmlns:xlink="http://www.w3.org/1999/xlink" xmlns:sketch="http://www.bohemiancoding.com/sketch/ns">
    <!-- Generator: Sketch Beta 3.0.2 (7863) - http://www.bohemiancoding.com/sketch -->
    <title>app_logo</title>
    <desc>Created with Sketch Beta.</desc>
    <defs></defs>
    <g id="Page-1" stroke="none" stroke-width="1" fill="none" fill-rule="evenodd" sketch:type="MSPage">
        <g id="app_logo" sketch:type="MSArtboardGroup">
            <g id="icon" sketch:type="MSLayerGroup" fill="#F9D14C">
                <path d="M56.07542,124.116737 C53.7494566,124.116737 51.4557574,123.504198 49.4407047,122.340668 L7.39737599,98.0882416 C3.30860802,95.7260114 0.765593789,91.3298012 0.765593789,86.6082715 L0.765593789,38.0975575 C0.765593789,33.3789585 3.30860802,28.9798175 7.39737599,26.6205181 L49.4407047,2.36516108 C53.4708102,0.0439621019 58.6800297,0.0439621019 62.7072022,2.36516108 L104.750531,26.6205181 C108.839299,28.9798175 111.382313,33.3789585 111.382313,38.0975575 L111.382313,86.6082715 C111.382313,91.3298012 108.839299,95.7260114 104.750531,98.0882416 L62.7072022,122.340668 C60.6921494,123.504198 58.3984503,124.116737 56.07542,124.116737 L56.07542,124.116737 Z M56.07542,4.67756764 C54.4651376,4.67756764 52.8812533,5.10253462 51.4880218,5.90557568 L9.44175998,30.1609327 C6.6142332,31.7904613 4.85436176,34.8355695 4.85436176,38.0975575 L4.85436176,86.6082715 C4.85436176,89.8731902 6.6142332,92.9153677 9.44175998,94.547827 L51.4880218,118.803184 C54.2715517,120.409266 57.8763551,120.409266 60.6598851,118.803184 L102.706147,94.547827 C105.533674,92.9153677 107.293545,89.8731902 107.293545,86.6082715 L107.293545,38.0975575 C107.293545,34.8355695 105.533674,31.7904613 102.706147,30.1609327 L60.6598851,5.90557568 C59.2695866,5.10253462 57.6827692,4.67756764 56.07542,4.67756764 L56.07542,4.67756764 Z" id="Fill-1" sketch:type="MSShapeGroup"></path>
                <path d="M80.5698973,35.0964113 L31.0529812,35.0964113 C25.8584274,35.0964113 24.2334794,39.0090384 24.2334794,43.6133358 L24.2334794,46.6936138 C24.2334794,49.4925343 26.1546724,50.7938125 29.1728519,50.7938125 L46.2582705,50.7938125 C46.4489232,50.7938125 46.6307766,50.7293347 46.7803657,50.6091717 C49.2647175,48.6367387 52.4002218,47.4497619 55.8114393,47.4145922 C59.2226567,47.4497619 62.358161,48.6367387 64.8425129,50.6091717 C64.9921019,50.7293347 65.1739553,50.7938125 65.364608,50.7938125 L82.4470935,50.7938125 C85.4682061,50.7938125 87.3893991,49.4925343 87.3893991,46.6936138 L87.3893991,43.6133358 C87.3893991,39.0090384 85.7644511,35.0964113 80.5698973,35.0964113" id="Fill-2" sketch:type="MSShapeGroup"></path>
                <path d="M80.5698973,89.2401359 L31.0529812,89.2401359 C25.8584274,89.2401359 24.2334794,85.3275089 24.2334794,80.7232114 L24.2334794,77.6429335 C24.2334794,74.8410822 26.1546724,73.539804 29.1728519,73.539804 L46.2582705,73.539804 C46.4489232,73.539804 46.6307766,73.6072125 46.7803657,73.7273756 C49.2647175,75.6998086 52.4002218,76.8867853 55.8114393,76.921955 C59.2226567,76.8867853 62.358161,75.6998086 64.8425129,73.7273756 C64.9921019,73.6072125 65.1739553,73.539804 65.364608,73.539804 L82.4470935,73.539804 C85.4682061,73.539804 87.3893991,74.8410822 87.3893991,77.6429335 L87.3893991,80.7232114 C87.3893991,85.3275089 85.7644511,89.2401359 80.5698973,89.2401359" id="Fill-3" sketch:type="MSShapeGroup"></path>
                <path d="M41.1927738,62.1682736 C41.1927738,60.5709839 41.4508883,59.038172 41.9231205,57.5991458 C42.4569482,55.9754789 41.1810414,54.319573 39.471033,54.319573 L16.6865641,54.319573 C15.2728007,54.319573 11.7706565,54.6185153 11.7706565,62.3939458 C11.7706565,70.1693762 15.2728007,70.0169742 16.6865641,70.0169742 L39.471033,70.0169742 C41.1810414,70.0169742 42.4569482,68.3581376 41.9231205,66.7344706 C41.4508883,65.2983753 41.1927738,63.7626325 41.1927738,62.1682736" id="Fill-4" sketch:type="MSShapeGroup"></path>
                <path d="M70.6148912,62.1682736 C70.6148912,60.5709839 70.3597098,59.038172 69.8874776,57.5991458 C69.35365,55.9754789 70.6295568,54.319573 72.3395652,54.319573 L95.1240341,54.319573 C96.5377975,54.319573 100.039942,54.6185153 100.039942,62.3939458 C100.039942,70.1693762 96.5377975,70.0169742 95.1240341,70.0169742 L72.3395652,70.0169742 C70.6295568,70.0169742 69.35365,68.3581376 69.8874776,66.7344706 C70.3597098,65.2983753 70.6148912,63.7626325 70.6148912,62.1682736" id="Fill-5" sketch:type="MSShapeGroup"></path>
                <path d="M55.9639614,52.6548748 C50.7078121,52.6548748 46.4459901,56.9133371 46.4459901,62.1682736 C46.4459901,67.4202794 50.7078121,71.6816725 55.9639614,71.6816725 C61.2230439,71.6816725 65.4848659,67.4202794 65.4848659,62.1682736 C65.4848659,56.9133371 61.2230439,52.6548748 55.9639614,52.6548748 L55.9639614,52.6548748 Z M57.3630592,63.9795122 L57.3630592,67.0744442 C57.3630592,67.8481772 56.7383049,68.472439 55.9639614,68.472439 C55.1925511,68.472439 54.5677968,67.8481772 54.5677968,67.0744442 L54.5677968,63.9795122 C53.2742913,63.4343822 52.3679575,62.1565504 52.3679575,60.6677006 C52.3679575,58.6835444 53.9782398,57.0745314 55.9639614,57.0745314 C57.9526162,57.0745314 59.5628985,58.6835444 59.5628985,60.6677006 C59.5628985,62.1565504 58.6565647,63.4343822 57.3630592,63.9795122 L57.3630592,63.9795122 Z" id="Fill-6" sketch:type="MSShapeGroup"></path>
                <path d="M67.505785,92.7629657 L44.4250711,92.7629657 C42.0316459,92.7629657 40.3216375,95.0841647 41.0255861,97.3731248 C42.9262472,103.560058 45.3695354,108.120393 52.1069099,108.43692 C52.2213015,108.439851 53.6262656,108.445713 55.1250894,108.448644 L55.5562579,108.448644 L55.9639614,108.448644 C57.6651705,108.445713 59.7095545,108.439851 59.8239461,108.43692 C66.5613206,108.120393 69.0046088,103.560058 70.90527,97.3731248 C71.6092185,95.0841647 69.8992101,92.7629657 67.505785,92.7629657" id="Fill-7" sketch:type="MSShapeGroup"></path>
                <path d="M67.505785,31.5706507 L44.4250711,31.5706507 C42.0316459,31.5706507 40.3216375,29.2494518 41.0255861,26.9634225 C42.9262472,20.7735585 45.3695354,16.2132232 52.1069099,15.896696 C52.2213015,15.8937652 53.6262656,15.8879036 55.1250894,15.8849728 L55.5562579,15.8849728 L55.9639614,15.8849728 C57.6651705,15.8879036 59.7095545,15.8937652 59.8239461,15.896696 C66.5613206,16.2132232 69.0046088,20.7735585 70.90527,26.9634225 C71.6092185,29.2494518 69.8992101,31.5706507 67.505785,31.5706507" id="Fill-8" sketch:type="MSShapeGroup"></path>
            </g>
            <path d="M195.057141,93.0643879 L195.057141,27.7021661 L182.041698,27.7021661 L182.041698,54.1130639 L153.445726,54.1130639 L153.445726,27.7021661 L140.430284,27.7021661 L140.430284,93.0643879 L153.445726,93.0643879 L153.445726,65.323445 L182.041698,65.323445 L182.041698,93.0643879 L195.057141,93.0643879 Z M220.613009,34.4473954 C220.613009,30.4572598 217.382899,27.1321468 213.297761,27.1321468 C209.307625,27.1321468 206.077515,30.4572598 206.077515,34.4473954 C206.077515,38.4375311 209.307625,41.6676408 213.297761,41.6676408 C217.382899,41.6676408 220.613009,38.4375311 220.613009,34.4473954 Z M219.282964,93.0643879 L219.282964,49.2678992 L207.40756,49.2678992 L207.40756,93.0643879 L219.282964,93.0643879 Z M271.154727,51.0729606 L259.46933,48.6978798 L247.973939,80.0489455 L237.618587,48.6978798 L224.983158,51.0729606 L241.133707,93.0643879 L253.959143,93.0643879 L271.154727,51.0729606 Z M313.336161,75.4887905 L313.336161,69.2185774 C313.336161,58.0081963 307.065948,48.6978798 295.095541,48.6978798 C281.795089,48.6978798 274.004824,58.6732189 274.004824,71.4986549 C274.004824,85.3691263 281.510079,93.7294105 295.760564,93.7294105 C300.795735,93.7294105 306.020912,92.8743815 310.676071,90.594304 L307.255954,81.7590036 C303.645832,82.8990424 299.940706,83.4690618 296.140577,83.4690618 C291.580422,83.4690618 287.11527,80.238952 286.260241,75.4887905 L313.336161,75.4887905 Z M301.650764,67.413516 L286.070234,67.413516 C286.640254,63.0433674 288.730325,57.9131931 294.240512,57.9131931 C299.750699,57.9131931 301.650764,62.853361 301.650764,67.413516 Z" id="Hive" fill="#FFFFFF" sketch:type="MSShapeGroup"></path>
            <path d="M354.897166,28.7219967 L350.150882,28.1287112 L346.032783,47.3930395 L341.460995,28.303207 L335.702636,28.303207 L331.410041,47.3930395 L327.012748,28.1287112 L321.847675,28.7219967 L328.304017,52.3487182 L333.992578,52.3487182 L338.494567,33.817272 L343.136154,52.3487182 L348.685118,52.3487182 L354.897166,28.7219967 Z M370.392386,45.8923763 L370.392386,43.5890327 C370.392386,39.4709335 368.089043,36.0508173 363.69175,36.0508173 C358.80587,36.0508173 355.94414,39.7152275 355.94414,44.4266122 C355.94414,49.5218874 358.701172,52.5930122 363.936044,52.5930122 C365.785699,52.5930122 367.705152,52.2789199 369.41521,51.4413404 L368.158841,48.1957199 C366.832673,48.6145096 365.471607,48.8239045 364.075641,48.8239045 C362.400482,48.8239045 360.760222,47.6373336 360.44613,45.8923763 L370.392386,45.8923763 Z M366.099791,42.9259489 L360.376331,42.9259489 C360.585726,41.3205882 361.353508,39.4360344 363.377658,39.4360344 C365.401808,39.4360344 366.099791,41.2507899 366.099791,42.9259489 Z M389.203026,44.2172173 C389.203026,39.5058327 386.620489,36.0508173 382.048701,36.0508173 C380.478239,36.0508173 379.082273,36.6441027 377.791005,37.4816822 L377.791005,27.1864343 L373.393713,27.1864343 L373.393713,52.3487182 L377.721207,52.3487182 L377.721207,50.9178532 C378.80308,51.8950293 380.094349,52.5930122 381.909104,52.5930122 C386.620489,52.5930122 389.203026,48.5447113 389.203026,44.2172173 Z M384.805733,44.2870156 C384.805733,46.2413677 383.933255,48.6843079 381.560113,48.6843079 C380.02455,48.6843079 379.082273,48.1608207 377.791005,47.1487455 L377.791005,41.1111934 C378.105097,40.9017985 379.675559,39.9246224 381.525214,39.9246224 C383.898356,39.9246224 384.805733,42.1930669 384.805733,44.2870156 Z" id="Web" fill="#FFFFFF" sketch:type="MSShapeGroup"></path>
        </g>
    </g>
</svg>