<?xml version="1.0" encoding="UTF-8" standalone="no"?>
<svg width="100px" height="100px" viewBox="0 0 100 100" version="1.1" xmlns="http://www.w3.org/2000/svg" xmlns:xlink="http://www.w3.org/1999/xlink" xmlns:sketch="http://www.bohemiancoding.com/sketch/ns">
    <!-- Generator: Sketch Beta 3.0.4 (7897) - http://www.bohemiancoding.com/sketch -->
    <title>bitcoin</title>
    <desc>Created with Sketch Beta.</desc>
    <defs></defs>
    <g id="Page-1" stroke="none" stroke-width="1" fill="none" fill-rule="evenodd" sketch:type="MSPage">
        <g id="bitcoin" sketch:type="MSArtboardGroup">
            <rect id="Rectangle-156" fill="#F7931A" sketch:type="MSShapeGroup" x="0" y="0" width="100" height="100"></rect>
            <path d="M69.1058563,43.9443205 C69.9989125,37.9863596 65.4537188,34.7835009 59.2387762,32.6468626 L61.2548121,24.5760504 L56.3324879,23.3517161 L54.3697269,31.2098438 C53.0757066,30.8880188 51.7466369,30.5843839 50.4259792,30.2835474 L52.4027599,22.3736478 L47.4832396,21.1493135 L45.4658017,29.2173271 C44.3946949,28.9738595 43.3432158,28.7331903 42.3225801,28.479928 L42.328188,28.4547417 L35.5398387,26.7630614 L34.2303967,32.0102087 C34.2303967,32.0102087 37.8825342,32.8455545 37.8054258,32.8973264 C39.7990302,33.3940563 40.159337,34.7107405 40.0990522,35.754573 L37.8026218,44.9489743 C37.9400151,44.9839552 38.1180655,45.0343279 38.3143416,45.1126853 C38.1503109,45.0721073 37.9750644,45.0273317 37.79421,44.9839552 L34.5752819,57.8639528 C34.3313387,58.4684241 33.713069,59.3751312 32.3195087,59.0309183 C32.3685777,59.1022795 28.7416757,58.1396029 28.7416757,58.1396029 L26.2980382,63.7631455 L32.7036491,65.3568791 C33.8953254,65.654917 35.0631682,65.9669474 36.2127854,66.2607876 L34.1757198,74.4239496 L39.0924362,75.6482839 L41.1098741,67.5718748 C42.4529635,67.935677 43.7567976,68.2714945 45.0325923,68.5877225 L43.0221642,76.6263522 L47.9444884,77.8506865 L49.981554,69.7029163 C58.3751613,71.2882543 64.68684,70.648802 67.3435773,63.0719213 C69.4843887,56.9712381 67.2370274,53.4521513 62.8208151,51.1573989 C66.0369392,50.4172013 68.4595471,48.3057493 69.1058563,43.9443205 L69.1058563,43.9443205 Z M57.8592356,59.6843631 C56.3380958,65.7850463 46.0462181,62.4870393 42.7095244,61.6600889 L45.4125267,50.8453686 C48.7492205,51.6765167 59.449072,53.3220221 57.8592356,59.6843631 L57.8592356,59.6843631 Z M59.3817773,43.8561684 C57.9938249,49.4055513 49.427775,46.5860842 46.6490662,45.89486 L49.0997135,36.0861927 C51.8784223,36.7774169 60.8272106,38.0675155 59.3817773,43.8561684 L59.3817773,43.8561684 Z" id="Fill-4" fill="#FFFFFF" sketch:type="MSShapeGroup"></path>
        </g>
    </g>
</svg>