<?xml version="1.0" encoding="UTF-8" standalone="no"?>
<svg width="125px" height="47px" viewBox="0 0 125 47" version="1.1" xmlns="http://www.w3.org/2000/svg" xmlns:xlink="http://www.w3.org/1999/xlink" xmlns:sketch="http://www.bohemiancoding.com/sketch/ns">
    <!-- Generator: sketchtool 1.1.1 (155) - http://www.bohemiancoding.com/sketch -->
    <title>logo</title>
    <description>Created with sketchtool.</description>
    <defs></defs>
    <g id="branding" stroke="none" stroke-width="1" fill="none" fill-rule="evenodd" sketch:type="MSPage">
        <g id="logo" sketch:type="MSArtboardGroup">
            <g id="logotype" sketch:type="MSLayerGroup" transform="translate(48.556816, 12.837286)" fill="#FFFFFF">
                <path d="M66.3639791,0.385853991 L65.064785,0.223454733 L63.9375431,5.49665417 L62.6861135,0.271219221 L61.1098855,0.271219221 L59.9348791,5.49665417 L58.731214,0.223454733 L57.3173851,0.385853991 L59.0846712,6.85316561 L60.6417935,6.85316561 L61.8741173,1.78057703 L63.1446526,6.85316561 L64.6635633,6.85316561 L66.3639791,0.385853991 Z M70.206736,5.08587957 L70.206736,4.45538834 C70.206736,3.32814643 69.5762447,2.39196247 68.3725796,2.39196247 C67.035174,2.39196247 66.2518364,3.39501671 66.2518364,4.68465788 C66.2518364,6.07938091 67.0065153,6.9200359 68.4394499,6.9200359 C68.9457535,6.9200359 69.4711628,6.83405982 69.9392548,6.60479028 L69.5953505,5.71637081 C69.2323404,5.83100558 68.8597774,5.88832296 68.4776615,5.88832296 C68.0191224,5.88832296 67.5701362,5.56352445 67.4841602,5.08587957 L70.206736,5.08587957 Z M69.0317296,4.27388328 L67.4650544,4.27388328 C67.5223718,3.83445 67.7325355,3.31859353 68.2866036,3.31859353 C68.8406716,3.31859353 69.0317296,3.8153442 69.0317296,4.27388328 Z M75.3557477,4.62734049 C75.3557477,3.33769933 74.6488333,2.39196247 73.3974037,2.39196247 C72.9675233,2.39196247 72.5854074,2.55436173 72.2319502,2.78363127 L72.2319502,-0.0344734998 L71.0282851,-0.0344734998 L71.0282851,6.85316561 L72.2128444,6.85316561 L72.2128444,6.46149682 C72.5089843,6.72897795 72.8624415,6.9200359 73.3591921,6.9200359 C74.6488333,6.9200359 75.3557477,5.81189978 75.3557477,4.62734049 Z M74.1520826,4.64644629 C74.1520826,5.18140855 73.9132602,5.85011137 73.2636632,5.85011137 C72.8433357,5.85011137 72.5854074,5.70681791 72.2319502,5.42978388 L72.2319502,3.77713261 C72.3179263,3.71981523 72.7478067,3.4523341 73.2541103,3.4523341 C73.9037073,3.4523341 74.1520826,4.07327244 74.1520826,4.64644629 Z" id="Web" sketch:type="MSShapeGroup"></path>
                <path d="M0.674366118,0.25163073 L3.89911642,0.25163073 C4.26116021,0.25163073 4.55502307,0.544941728 4.55502307,0.906969603 L4.55502307,7.96576947 C4.55502307,8.32779735 4.84858818,8.62110835 5.21063198,8.62110835 L11.913206,8.62110835 C12.2752498,8.62110835 12.5688149,8.32779735 12.5688149,7.96576947 L12.5688149,0.906969603 C12.5688149,0.544941728 12.8626777,0.25163073 13.2247215,0.25163073 L16.4488764,0.25163073 C16.8112179,0.25163073 17.104783,0.544941728 17.104783,0.906969603 L17.104783,20.7471086 C17.104783,21.1091364 16.8112179,21.4024474 16.4488764,21.4024474 L13.2247215,21.4024474 C12.8626777,21.4024474 12.5688149,21.1091364 12.5688149,20.7471086 L12.5688149,13.0835407 C12.5688149,12.7218103 12.2752498,12.4284993 11.913206,12.4284993 L5.21063198,12.4284993 C4.84858818,12.4284993 4.55502307,12.7218103 4.55502307,13.0835407 L4.55502307,20.7471086 C4.55502307,21.1091364 4.26116021,21.4024474 3.89911642,21.4024474 L0.674366118,21.4024474 C0.312024588,21.4024474 0.0184594699,21.1091364 0.0184594699,20.7471086 L0.0184594699,0.906969603 C0.0184594699,0.544941728 0.312024588,0.25163073 0.674366118,0.25163073" id="Fill-9" sketch:type="MSShapeGroup"></path>
                <path d="M21.5206078,7.01979688 L24.0239501,7.01979688 C24.535456,7.01979688 24.9499009,7.43418048 24.9499009,7.94494618 L24.9499009,20.4772981 C24.9499009,20.9883613 24.535456,21.4024474 24.0239501,21.4024474 L21.5206078,21.4024474 C21.0093995,21.4024474 20.5946569,20.9883613 20.5946569,20.4772981 L20.5946569,7.94494618 C20.5946569,7.43418048 21.0093995,7.01979688 21.5206078,7.01979688" id="Fill-10" sketch:type="MSShapeGroup"></path>
                <path d="M31.1972405,7.01979688 C31.5098606,7.01979688 31.7843708,7.21970053 31.8754772,7.51866356 C32.4122905,9.28120683 34.2183412,15.2232831 34.8078533,17.3231638 L34.8688886,17.3231638 C35.458103,15.2241755 37.2412282,9.28596644 37.7723846,7.52074589 C37.8625978,7.22089043 38.1377035,7.01979688 38.4512167,7.01979688 L41.2478264,7.01979688 C41.7367046,7.01979688 42.0793958,7.50200492 41.918322,7.96309219 L37.3936677,20.9264864 C37.2942248,21.2114681 37.0250738,21.4024474 36.7231722,21.4024474 L32.7100239,21.4024474 C32.4090154,21.4024474 32.1404599,21.212658 32.0404215,20.9288662 L27.4609843,7.965472 C27.2978264,7.50378978 27.6405175,7.01979688 28.1305867,7.01979688 L31.1972405,7.01979688 Z" id="Fill-11" sketch:type="MSShapeGroup"></path>
                <path d="M50.533833,6.5967865 C46.300362,6.5967865 43.2152486,9.46742659 43.2152486,14.1809284 C43.2152486,18.9548177 46.2092556,21.8254578 50.6850815,21.8254578 C53.3679571,21.8254578 55.3871849,20.8428957 56.6239694,19.1951781 C56.9106866,18.8132193 56.7481242,18.2584272 56.3047992,18.0796443 L53.959851,17.1348617 C53.6350239,17.0042698 53.2762552,17.1309945 53.073201,17.4156787 C52.5989117,18.0811317 51.8343324,18.6225374 50.6246417,18.6225374 C48.8206751,18.6225374 48.0063743,17.5331816 47.7354369,16.2278584 C47.6398645,15.7667711 47.9777919,15.3288869 48.4491038,15.3288869 L56.9339098,15.3288869 C57.2334296,15.3288869 57.6710977,15.1358252 57.6710977,14.7262013 L57.6710977,14.271361 C57.6710977,10.1016447 55.372596,6.5967865 50.533833,6.5967865 L50.533833,6.5967865 Z M52.8317392,12.700392 L48.1644707,12.700392 C47.8831126,12.700392 47.6761879,12.4418857 47.7244208,12.1652333 C47.9876171,10.653462 48.9314319,9.67863431 50.533833,9.67863431 C51.9614646,9.67863431 53.0398549,10.52525 53.2720869,12.1729677 C53.3107923,12.4481327 53.1098222,12.700392 52.8317392,12.700392 L52.8317392,12.700392 Z" id="Fill-12" sketch:type="MSShapeGroup"></path>
                <path d="M22.8300392,5.33489476 C22.7279166,5.33489476 22.6272828,5.30782448 22.5388559,5.25695614 L20.6932067,4.19229076 C20.5136734,4.08876923 20.4020234,3.89570753 20.4020234,3.688367 L20.4020234,1.55903624 C20.4020234,1.35199319 20.5136734,1.15893148 20.6932067,1.05540996 L22.5388559,-0.00925542187 C22.7157096,-0.111289572 22.9443688,-0.111289572 23.1212224,-0.00925542187 L24.966574,1.05540996 C25.1464049,1.15893148 25.2577572,1.35199319 25.2577572,1.55903624 L25.2577572,3.688367 C25.2577572,3.89570753 25.1464049,4.08876923 24.966574,4.19229076 L23.1212224,5.25695614 C23.0327956,5.30782448 22.9321617,5.33489476 22.8300392,5.33489476" id="Fill-13" sketch:type="MSShapeGroup"></path>
            </g>
            <g sketch:type="MSLayerGroup" transform="translate(1.000000, 1.000000)" fill="#F8CF57">
                <path d="M20.1559526,45.0177184 C19.3043928,45.0177184 18.4648035,44.7937934 17.7273766,44.3705732 L2.33325476,35.5320027 C0.835491821,34.6718107 -0.0953213035,33.0692387 -0.0953213035,31.3490599 L-0.0953213035,13.671919 C-0.0953213035,11.9517402 0.835491821,10.3489629 2.33325476,9.48897617 L17.7273766,0.650405705 C19.202024,-0.196034733 21.1098813,-0.196034733 22.5839095,0.650405705 L37.9782377,9.48897617 C39.4760006,10.3489629 40.4066074,11.9517402 40.4066074,13.671919 L40.4066074,31.3490599 C40.4066074,33.0692387 39.4760006,34.6718107 37.9782377,35.5320027 L22.5839095,44.3705732 C21.8468954,44.7937934 21.0073061,45.0177184 20.1559526,45.0177184 L20.1559526,45.0177184 Z M20.1559526,1.4923307 C19.5671256,1.4923307 18.9861414,1.64708727 18.4761548,1.93997536 L3.08203303,10.7785458 C2.04596166,11.3735582 1.40223524,12.4823048 1.40223524,13.671919 L1.40223524,31.3490599 C1.40223524,32.5386741 2.04596166,33.6474207 3.08203303,34.2422278 L18.4761548,43.0810035 C19.4963343,43.6667797 20.8157774,43.6667797 21.8353376,43.0810035 L37.2294594,34.2422278 C38.2655308,33.6474207 38.9092572,32.5386741 38.9092572,31.3490599 L38.9092572,13.671919 C38.9092572,12.4823048 38.2655308,11.3735582 37.2294594,10.7785458 L21.8353376,1.93997536 C21.3255575,1.64708727 20.7445733,1.4923307 20.1559526,1.4923307 L20.1559526,1.4923307 Z" id="Fill-1" sketch:type="MSShapeGroup"></path>
                <path d="M29.3060052,12.7259132 L11.063709,12.7259132 C9.14939144,12.7259132 8.5504663,14.1681931 8.5504663,15.8661168 L8.5504663,17.0018732 C8.5504663,18.0342092 9.25841907,18.5141384 10.371124,18.5141384 L16.6650297,18.5141384 C16.7352228,18.5141384 16.8025084,18.4896332 16.8573337,18.4458144 C17.7725428,17.7181328 18.9278204,17.2809839 20.1848571,17.2679006 C21.4418938,17.2809839 22.5971714,17.7181328 23.5123805,18.4458144 C23.5672059,18.4896332 23.6344915,18.5141384 23.7048922,18.5141384 L29.9985903,18.5141384 C31.1112952,18.5141384 31.8192479,18.0342092 31.8192479,17.0018732 L31.8192479,15.8661168 C31.8192479,14.1681931 31.2203228,12.7259132 29.3060052,12.7259132" id="Fill-2" sketch:type="MSShapeGroup"></path>
                <path d="M29.3060052,32.6891846 L11.063709,32.6891846 C9.14939144,32.6891846 8.5504663,31.2469048 8.5504663,29.5491888 L8.5504663,28.4134323 C8.5504663,27.3808887 9.25841907,26.9009594 10.371124,26.9009594 L16.6650297,26.9009594 C16.7352228,26.9009594 16.8025084,26.9254647 16.8573337,26.9692834 C17.7725428,27.696965 18.9278204,28.1341139 20.1848571,28.1471972 C21.4418938,28.1341139 22.5971714,27.696965 23.5123805,26.9692834 C23.5672059,26.9254647 23.6344915,26.9009594 23.7048922,26.9009594 L29.9985903,26.9009594 C31.1112952,26.9009594 31.8192479,27.3808887 31.8192479,28.4134323 L31.8192479,29.5491888 C31.8192479,31.2469048 31.2203228,32.6891846 29.3060052,32.6891846" id="Fill-3" sketch:type="MSShapeGroup"></path>
                <path d="M14.799515,22.7076528 C14.799515,22.1191112 14.8942133,21.5534135 15.0684498,21.0234354 C15.2649072,20.4249256 14.7947385,19.8135401 14.1648703,19.8135401 L5.77015778,19.8135401 C5.24952486,19.8135401 3.95926068,19.9246445 3.95926068,22.7911368 C3.95926068,25.6578367 5.24952486,25.6017654 5.77015778,25.6017654 L14.1648703,25.6017654 C14.7947385,25.6017654 15.2649072,24.9901722 15.0684498,24.3918701 C14.8942133,23.861892 14.799515,23.2961943 14.799515,22.7076528" id="Fill-4" sketch:type="MSShapeGroup"></path>
                <path d="M25.6393539,22.7076528 C25.6393539,22.1191112 25.544448,21.5534135 25.3704191,21.0234354 C25.173754,20.4249256 25.6441304,19.8135401 26.2739986,19.8135401 L34.6687111,19.8135401 C35.1893441,19.8135401 36.4796082,19.9246445 36.4796082,22.7911368 C36.4796082,25.6578367 35.1893441,25.6017654 34.6687111,25.6017654 L26.2739986,25.6017654 C25.6441304,25.6017654 25.173754,24.9901722 25.3704191,24.3918701 C25.544448,23.861892 25.6393539,23.2961943 25.6393539,22.7076528" id="Fill-5" sketch:type="MSShapeGroup"></path>
                <path d="M20.2415515,19.200078 C18.30439,19.200078 16.7341844,20.7704913 16.7341844,22.7076528 C16.7341844,24.6448142 18.30439,26.2150198 20.2415515,26.2150198 C22.178713,26.2150198 23.7491263,24.6448142 23.7491263,22.7076528 C23.7491263,20.7704913 22.178713,19.200078 20.2415515,19.200078 L20.2415515,19.200078 Z M20.7569926,23.3757326 L20.7569926,24.5170961 C20.7569926,24.8016064 20.5262694,25.0323296 20.2415515,25.0323296 C19.9570413,25.0323296 19.726318,24.8016064 19.726318,24.5170961 L19.726318,23.3757326 C19.2505422,23.1747064 18.9163985,22.703707 18.9163985,22.1546231 C18.9163985,21.422788 19.5097165,20.82947 20.2415515,20.82947 C20.9733865,20.82947 21.5667045,21.422788 21.5667045,22.1546231 C21.5667045,22.703707 21.2327684,23.1747064 20.7569926,23.3757326 L20.7569926,23.3757326 Z" id="Fill-6" sketch:type="MSShapeGroup"></path>
                <path d="M24.4930062,33.9885864 L15.9900968,33.9885864 C15.1076998,33.9885864 14.4784546,34.8441937 14.7372135,35.6877561 C15.4372747,37.9694449 16.3375315,39.6505472 18.8196235,39.7672587 C18.8621962,39.7693354 19.3799217,39.7707891 19.9323284,39.7720351 L19.9323284,39.7724505 C19.9821696,39.7724505 20.0374102,39.7722428 20.0909895,39.7722428 C20.1414537,39.7722428 20.1917103,39.7724505 20.2415515,39.7724505 L20.2415515,39.7720351 C20.8676816,39.7707891 21.6206992,39.7693354 21.6634795,39.7672587 C24.1457792,39.6505472 25.0460359,37.9694449 25.7460972,35.6877561 C26.0048561,34.8441937 25.3756109,33.9885864 24.4930062,33.9885864" id="Fill-7" sketch:type="MSShapeGroup"></path>
                <path d="M24.4930062,11.4258885 L15.9900968,11.4258885 C15.1076998,11.4258885 14.4784546,10.5704888 14.7372135,9.72671872 C15.4372747,7.44502992 16.3375315,5.76392763 18.8196235,5.64721614 C18.8621962,5.64534709 19.3799217,5.64368572 19.9323284,5.64264736 L19.9323284,5.64202435 C19.9821696,5.64223202 20.0374102,5.64223202 20.0909895,5.64223202 C20.1414537,5.64223202 20.1917103,5.64223202 20.2415515,5.64202435 L20.2415515,5.64264736 C20.8676816,5.64368572 21.6206992,5.64534709 21.6634795,5.64721614 C24.1457792,5.76392763 25.0460359,7.44502992 25.7460972,9.72671872 C26.0048561,10.5704888 25.3756109,11.4258885 24.4930062,11.4258885" id="Fill-8" sketch:type="MSShapeGroup"></path>
            </g>
        </g>
    </g>
</svg>