<?xml version="1.0" encoding="UTF-8" standalone="no"?>
<svg width="30px" height="30px" viewBox="0 0 30 30" version="1.1" xmlns="http://www.w3.org/2000/svg" xmlns:xlink="http://www.w3.org/1999/xlink" xmlns:sketch="http://www.bohemiancoding.com/sketch/ns">
    <!-- Generator: sketchtool 1.1.1 (155) - http://www.bohemiancoding.com/sketch -->
    <title>refresh</title>
    <description>Created with sketchtool.</description>
    <defs></defs>
    <g id="interface" stroke="none" stroke-width="1" fill="none" fill-rule="evenodd" sketch:type="MSPage">
        <g id="refresh" sketch:type="MSArtboardGroup" fill="#FFFFFF">
            <path d="M24.9050926,16.9097222 C24.446757,19.2693019 23.2882037,21.2214429 21.4293981,22.7662037 C19.5705926,24.3109645 17.4274813,25.0833333 15,25.0833333 C12.4027648,25.0833333 10.1365837,24.2006261 8.20138889,22.4351852 L4.78935185,25.8726852 C4.6705241,25.9575622 4.56018569,26 4.45833333,26 C4.37345637,26 4.31404338,25.9915124 4.28009259,25.974537 C4.09336326,25.8896601 4,25.7453714 4,25.5416667 L4,16.8333333 C4,16.6975302 4.04243785,16.5871918 4.12731481,16.5023148 C4.21219178,16.4174378 4.32253019,16.375 4.45833333,16.375 L13.1666667,16.375 C13.3703714,16.375 13.5146601,16.4683633 13.599537,16.6550926 C13.6674386,16.8587973 13.6334883,17.0285487 13.4976852,17.1643519 L10.7986111,19.837963 C11.9868887,20.8904374 13.3873376,21.4166667 15,21.4166667 C16.4598838,21.4166667 17.758482,20.9753131 18.8958333,20.0925926 C20.0331847,19.2098721 20.7970659,18.0810254 21.1875,16.7060185 C21.2384262,16.4853384 21.3827149,16.375 21.6203704,16.375 L24.4467593,16.375 C24.6165132,16.375 24.7353392,16.434413 24.8032407,16.5532407 C24.8881177,16.6720685 24.922068,16.7908945 24.9050926,16.9097222 L24.9050926,16.9097222 Z M5.09490741,13.0902778 C5.53626764,10.7476735 6.6863333,8.79977628 8.54513889,7.24652778 C10.4039445,5.69327927 12.5555433,4.91666667 15,4.91666667 C17.5972352,4.91666667 19.8634163,5.79937389 21.7986111,7.56481481 L25.2106481,4.12731481 C25.3294759,4.04243785 25.4398143,4 25.5416667,4 C25.6265436,4 25.6859566,4.00848757 25.7199074,4.02546296 C25.9066367,4.11033993 26,4.25462861 26,4.45833333 L26,13.1666667 C26,13.3024698 25.9575622,13.4128082 25.8726852,13.4976852 C25.7878082,13.5825622 25.6774698,13.625 25.5416667,13.625 L16.8333333,13.625 C16.6296286,13.625 16.4853399,13.5316367 16.400463,13.3449074 C16.3325614,13.1412027 16.3665117,12.9714513 16.5023148,12.8356481 L19.2013889,10.162037 C18.0131113,9.10956264 16.6126624,8.58333333 15,8.58333333 C13.5401162,8.58333333 12.241518,9.02468694 11.1041667,9.90740741 C9.9668153,10.7901279 9.20293405,11.9189746 8.8125,13.2939815 C8.76157382,13.5146616 8.61728514,13.625 8.37962963,13.625 L5.55324074,13.625 C5.4004622,13.625 5.28163623,13.5740746 5.19675926,13.4722222 C5.11188229,13.3194437 5.07793201,13.1921301 5.09490741,13.0902778 L5.09490741,13.0902778 Z" id="sync" sketch:type="MSShapeGroup"></path>
        </g>
    </g>
</svg>