<?xml version="1.0" encoding="UTF-8" standalone="no"?>
<svg width="44px" height="44px" viewBox="0 0 44 44" version="1.1" xmlns="http://www.w3.org/2000/svg" xmlns:xlink="http://www.w3.org/1999/xlink" xmlns:sketch="http://www.bohemiancoding.com/sketch/ns">
    <!-- Generator: Sketch Beta 3.0.2 (7863) - http://www.bohemiancoding.com/sketch -->
    <title>Artboard 1</title>
    <desc>Created with Sketch Beta.</desc>
    <defs></defs>
    <g id="Page-1" stroke="none" stroke-width="1" fill="none" fill-rule="evenodd" sketch:type="MSPage">
        <g id="Artboard-1" sketch:type="MSArtboardGroup" fill="#FFFFFF">
            <path d="M41.8,25.828 C41.844,25.608 41.756,25.344 41.624,25.124 C41.492,24.904 41.228,24.772 40.876,24.772 L35.244,24.772 C34.76,24.772 34.496,24.992 34.364,25.432 C33.616,28.16 32.076,30.404 29.788,32.208 C27.544,33.968 24.948,34.848 22,34.848 C18.788,34.848 15.972,33.792 13.596,31.68 L19.008,26.312 C19.272,26.048 19.316,25.696 19.184,25.3 C19.052,24.948 18.744,24.772 18.348,24.772 L0.924,24.772 C0.396,24.772 0,25.124 0,25.652 L0,43.076 C0,43.472 0.176,43.78 0.572,43.956 C0.616,44 0.748,44 0.924,44 C1.144,44 1.364,43.912 1.584,43.736 L8.404,36.872 C12.276,40.392 16.808,42.152 22,42.152 C26.884,42.152 31.152,40.612 34.848,37.532 C38.588,34.452 40.876,30.536 41.8,25.828 L41.8,25.828 Z M2.2,18.172 C2.156,18.392 2.244,18.656 2.376,18.964 C2.552,19.184 2.816,19.272 3.124,19.272 L8.756,19.272 C9.24,19.272 9.504,19.052 9.636,18.568 C10.384,15.84 11.924,13.596 14.168,11.836 C16.456,10.032 19.052,9.152 22,9.152 C25.212,9.152 28.028,10.208 30.404,12.32 L24.992,17.688 C24.728,17.952 24.684,18.304 24.816,18.7 C24.948,19.096 25.256,19.272 25.652,19.272 L43.076,19.272 C43.604,19.272 44,18.876 44,18.348 L44,0.924 C44,0.528 43.824,0.22 43.428,0.044 C43.384,0 43.252,0 43.076,0 C42.856,0 42.636,0.088 42.416,0.264 L35.596,7.128 C31.724,3.608 27.192,1.848 22,1.848 C17.116,1.848 12.804,3.388 9.064,6.512 C5.368,9.592 3.08,13.464 2.2,18.172 L2.2,18.172 Z" id="Menu-7" sketch:type="MSShapeGroup"></path>
        </g>
    </g>
</svg>