<?xml version="1.0" encoding="UTF-8" standalone="no"?>
<svg width="85px" height="85px" viewBox="0 0 85 85" version="1.1" xmlns="http://www.w3.org/2000/svg" xmlns:xlink="http://www.w3.org/1999/xlink" xmlns:sketch="http://www.bohemiancoding.com/sketch/ns">
    <!-- Generator: Sketch Beta 3.0.4 (8156) - http://www.bohemiancoding.com/sketch -->
    <title>waggle_not_found</title>
    <desc>Created with Sketch Beta.</desc>
    <defs></defs>
    <g id="interface" stroke="none" stroke-width="1" fill="none" fill-rule="evenodd" sketch:type="MSPage">
        <g id="waggle_not_found" sketch:type="MSArtboardGroup" fill="#FECF08">
            <path d="M39.0288121,0.73144631 C40.9458962,-0.373180089 44.0596823,-0.369965726 45.9711879,0.73144631 L77.0091635,18.6155686 C78.9262476,19.720195 80.4803514,22.4130536 80.4803514,24.6158777 L80.4803514,60.3841223 C80.4803514,62.5933751 78.9206691,65.2830193 77.0091635,66.3844314 L45.9711879,84.2685537 C44.0541038,85.3731801 40.9403177,85.3699657 39.0288121,84.2685537 L7.9908365,66.3844314 C6.07375236,65.279805 4.51964861,62.5869464 4.51964861,60.3841223 L4.51964861,24.6158777 C4.51964861,22.4066249 6.07933091,19.7169807 7.9908365,18.6155686 L39.0288121,0.73144631 Z M46.9705631,49.6439882 L46.9705631,48.1283317 C46.9705631,45.2654248 50.5070951,43.8620392 53.1454602,41.223674 C54.8856585,39.4834758 56.3451796,37.2941941 56.3451796,33.869933 C56.3451796,28.2002548 52.1350225,22.3060348 43.0972186,22.3060348 C34.3962272,22.3060348 30.0737993,27.8073068 28.8388199,34.8242353 L36.9223215,36.1714855 C37.3152695,32.5788181 39.0554678,28.761609 43.0972186,28.761609 C46.1285317,28.761609 48.0371362,30.9508907 48.0371362,33.5892558 C48.0371362,36.3398918 46.0723963,37.7432775 44.4444689,38.9221215 C41.6376975,40.9429969 38.7747906,43.6374974 38.7747906,47.7353837 L38.7747906,49.6439882 L46.9705631,49.6439882 Z M38.1573009,58.1204379 C38.1573009,60.8149384 40.1220409,62.9480847 42.9849477,62.9480847 C45.8478546,62.9480847 47.8125945,60.8149384 47.8125945,58.1204379 C47.8125945,55.257531 45.8478546,53.3489265 42.9849477,53.3489265 C40.1220409,53.3489265 38.1573009,55.257531 38.1573009,58.1204379 Z" id="polygon" sketch:type="MSShapeGroup"></path>
        </g>
    </g>
</svg>